<?xml version="1.0" encoding="UTF-8" ?>
<svg width="1167" height="1050" xmlns="http://www.w3.org/2000/svg">
  <path d="M 0,0 0,1049 1166,1049 1166,0 Z" fill="none" stroke="black"/>
  <path d="M 918,35 919,34 937,34 938,35 941,35 942,36 945,36 946,37 948,37 949,38 951,38 952,39 967,39 968,40 973,40 974,41 976,41 977,42 979,42 980,43 996,43 997,44 1008,44 1009,45 1031,45 1032,44 1036,44 1037,43 1040,43 1041,44 1044,44 1045,43 1054,43 1055,44 1060,44 1061,45 1066,45 1069,48 1069,49 1070,50 1070,52 1071,53 1071,63 1070,64 1070,67 1069,68 1069,72 1068,73 1068,76 1069,77 1069,88 1068,89 1068,111 1067,112 1067,115 1066,116 1066,129 1065,130 1065,136 1064,137 1064,148 1063,149 1063,156 1062,157 1062,174 1061,175 1061,183 1060,184 1060,193 1059,194 1059,203 1058,204 1058,209 1057,210 1057,214 1056,215 1056,235 1055,236 1055,249 1056,250 1056,253 1057,254 1057,262 1058,263 1058,286 1059,287 1059,295 1060,296 1060,329 1059,330 1059,337 1060,338 1060,378 1059,379 1059,390 1058,391 1058,393 1057,394 1057,402 1056,403 1056,421 1055,422 1055,448 1056,449 1056,468 1057,469 1057,472 1058,473 1058,476 1057,477 1057,486 1056,487 1056,490 1057,491 1057,495 1058,496 1058,504 1057,505 1057,518 1058,519 1058,547 1059,548 1059,594 1060,595 1060,596 1061,597 1061,599 1060,600 1060,616 1059,617 1059,656 1058,657 1058,683 1057,684 1057,724 1056,725 1056,762 1055,763 1055,817 1054,818 1054,822 1055,823 1055,848 1054,849 1054,858 1053,859 1053,869 1052,870 1052,888 1051,889 1051,898 1050,899 1050,904 1049,905 1049,909 1048,910 1048,919 1047,920 1047,923 1046,924 1046,928 1045,929 1045,936 1044,937 1044,947 1043,948 1043,956 1042,957 1042,960 1041,961 1041,976 1042,977 1042,991 1041,992 1041,996 1040,997 1040,1002 1039,1003 1039,1014 1040,1015 1040,1021 1039,1022 1039,1024 1040,1025 1040,1028 1041,1029 1041,1031 1042,1032 1042,1042 1040,1044 1039,1044 1038,1045 1026,1045 1025,1044 1020,1044 1019,1045 1015,1045 1014,1046 991,1046 990,1045 978,1045 977,1044 933,1044 932,1043 919,1043 918,1042 913,1042 912,1041 905,1041 904,1040 901,1040 900,1039 896,1039 895,1038 891,1038 890,1037 882,1037 881,1036 873,1036 872,1035 869,1035 868,1034 860,1034 859,1033 854,1033 853,1032 837,1032 836,1031 834,1031 833,1030 828,1030 827,1029 822,1029 821,1028 815,1028 814,1027 789,1027 788,1026 781,1026 780,1027 755,1027 754,1026 736,1026 735,1025 722,1025 721,1024 709,1024 708,1023 698,1023 697,1022 685,1022 684,1021 667,1021 666,1020 657,1020 656,1021 651,1021 650,1020 640,1020 639,1019 630,1019 629,1018 627,1018 626,1017 615,1017 614,1016 606,1016 605,1015 595,1015 594,1014 592,1014 591,1015 589,1015 588,1014 576,1014 575,1013 564,1013 563,1012 536,1012 535,1011 521,1011 520,1010 491,1010 490,1009 484,1009 483,1008 476,1008 475,1007 460,1007 459,1008 454,1008 453,1007 432,1007 431,1008 421,1008 420,1007 418,1007 417,1006 405,1006 404,1005 391,1005 390,1004 378,1004 377,1003 368,1003 367,1002 363,1002 362,1001 355,1001 354,1000 350,1000 349,1001 342,1001 341,1000 334,1000 333,999 276,999 275,998 267,998 266,999 264,999 263,1000 259,1000 258,1001 249,1001 248,1002 220,1002 219,1003 216,1003 215,1002 199,1002 198,1003 194,1003 193,1002 170,1002 169,1003 167,1003 166,1004 152,1004 151,1005 146,1005 145,1004 137,1004 136,1003 131,1003 130,1002 127,1002 126,1001 119,1001 118,1002 110,1002 109,1003 106,1003 105,1004 97,1004 96,1003 88,1003 87,1002 85,1002 83,1000 83,994 84,993 84,985 85,984 85,980 86,979 86,974 85,973 85,971 86,970 86,966 87,965 87,963 88,962 88,942 89,941 89,934 90,933 90,923 91,922 91,901 90,900 90,894 91,893 91,882 92,881 92,877 91,876 91,850 92,849 92,841 91,840 91,821 92,820 92,811 93,810 93,808 92,807 92,802 93,801 93,789 94,788 94,781 95,780 95,762 96,761 96,741 95,740 95,730 96,729 96,693 97,692 97,670 98,669 98,654 99,653 99,635 100,634 100,587 101,586 101,582 100,581 100,575 101,574 101,522 102,521 102,503 101,502 101,499 100,498 100,474 99,473 99,454 100,453 100,420 99,419 99,409 100,408 100,402 99,401 99,377 100,376 100,370 101,369 101,334 102,333 102,307 103,306 103,302 104,301 104,282 103,281 103,274 102,273 102,259 103,258 103,255 102,254 102,245 101,244 101,242 100,241 100,228 99,227 99,224 98,223 98,213 99,212 99,209 100,208 100,204 99,203 99,199 100,198 100,191 99,190 99,187 100,186 100,172 99,171 99,168 98,167 98,163 97,162 97,155 96,154 96,148 95,147 95,137 94,136 94,131 93,130 93,110 92,109 92,103 91,102 91,98 90,97 90,93 89,92 89,90 90,89 90,76 93,73 94,73 95,72 96,72 97,71 104,71 105,70 108,70 109,69 112,69 113,68 116,68 117,67 131,67 132,68 136,68 137,67 147,67 148,66 161,66 162,67 171,67 172,68 182,68 183,69 193,69 194,70 196,70 197,69 204,69 205,70 208,70 209,69 214,69 215,68 218,68 219,67 229,67 230,66 254,66 255,67 258,67 259,66 271,66 272,65 298,65 299,64 314,64 315,63 337,63 338,62 346,62 347,61 353,61 354,60 364,60 365,59 370,59 371,58 400,58 401,57 415,57 416,56 426,56 427,55 430,55 431,54 434,54 435,53 436,53 437,52 443,52 444,51 447,51 448,50 451,50 452,49 455,49 456,48 458,48 459,47 463,47 464,46 473,46 474,45 488,45 489,44 494,44 495,43 512,43 513,42 520,42 521,41 538,41 539,40 562,40 563,39 582,39 583,38 588,38 589,37 639,37 640,38 653,38 654,39 658,39 659,40 677,40 678,39 686,39 687,38 715,38 716,39 738,39 739,38 748,38 749,39 756,39 757,38 790,38 791,39 810,39 811,40 816,40 817,41 823,41 824,42 842,42 843,43 847,43 848,44 853,44 854,43 861,43 862,42 873,42 874,41 880,41 881,40 884,40 885,41 887,41 888,40 892,40 893,39 896,39 897,38 900,38 901,37 906,37 907,36 911,36 912,35 Z" fill="none" stroke="black"/>
  <path d="M 923,44 922,45 916,45 915,46 903,46 902,47 900,47 899,48 898,48 897,49 895,49 894,50 882,50 881,51 878,51 877,52 865,52 864,53 844,53 843,52 841,52 840,51 834,51 833,52 828,52 827,51 814,51 813,50 808,50 807,49 800,49 799,48 781,48 780,47 762,47 761,48 731,48 730,49 719,49 718,48 681,48 680,49 676,49 675,50 664,50 663,49 660,49 659,48 644,48 643,47 626,47 625,46 617,46 616,47 585,47 584,48 576,48 575,49 553,49 552,50 545,50 544,49 540,49 539,50 529,50 528,51 519,51 518,52 501,52 500,53 491,53 490,54 486,54 485,55 468,55 467,56 462,56 461,57 457,57 456,58 452,58 451,59 447,59 446,60 443,60 442,61 437,61 436,62 433,62 432,63 429,63 428,64 424,64 423,65 415,65 414,66 404,66 403,67 382,67 381,68 369,68 368,69 360,69 359,70 351,70 350,71 338,71 337,72 316,72 315,73 308,73 307,74 295,74 294,75 290,75 289,74 282,74 281,75 230,75 229,76 215,76 214,77 198,77 197,78 183,78 182,77 174,77 173,76 159,76 158,75 155,75 154,76 150,76 149,75 146,75 145,76 129,76 128,77 117,77 116,78 109,78 108,79 104,79 103,80 98,80 98,83 100,85 100,97 101,98 101,102 102,103 102,104 103,105 103,109 104,110 104,128 105,129 105,133 104,134 104,137 105,138 105,143 107,145 107,146 108,147 108,152 107,153 107,155 109,157 109,162 108,163 108,164 106,166 106,168 110,168 111,169 111,176 110,177 110,180 111,180 112,181 112,185 111,186 110,186 109,187 108,187 108,193 109,194 111,194 112,193 114,193 115,194 115,198 113,200 112,200 111,201 108,201 108,204 109,204 110,205 114,205 116,207 116,209 114,211 107,211 106,212 106,215 116,215 117,216 117,219 116,220 116,228 115,229 115,231 114,232 114,234 113,235 113,244 112,245 112,261 111,262 111,273 112,274 112,277 113,278 113,285 114,286 114,296 113,297 113,306 112,307 112,312 111,313 111,319 112,320 112,339 111,340 111,343 110,344 110,349 111,350 111,363 110,364 110,376 109,377 109,381 108,382 108,392 109,393 109,401 110,402 110,406 109,407 109,434 110,435 110,447 109,448 109,457 108,458 108,462 109,463 109,478 110,479 110,499 111,500 111,508 112,509 112,518 111,519 111,522 110,523 110,531 111,532 111,541 110,542 110,545 111,546 111,553 110,554 110,561 111,562 111,569 110,570 110,599 109,600 109,612 110,613 110,622 109,623 109,654 108,655 108,675 107,676 107,693 106,694 106,704 105,705 105,708 106,709 106,720 105,721 105,775 104,776 104,780 103,781 103,804 102,805 102,819 101,820 101,838 102,839 102,849 101,850 101,926 100,927 100,930 99,931 99,938 98,939 98,947 97,948 97,964 96,965 96,968 95,969 95,991 96,992 96,993 101,993 102,992 107,992 108,991 111,991 112,990 120,990 121,989 123,989 124,988 128,988 131,991 131,992 134,992 135,993 159,993 160,992 167,992 168,991 179,991 180,990 185,990 186,991 193,991 194,992 198,992 199,991 245,991 246,990 257,990 258,989 260,989 261,988 263,988 264,987 284,987 285,988 297,988 298,987 326,987 327,988 332,988 333,989 337,989 338,990 348,990 349,989 356,989 357,990 362,990 363,991 368,991 369,992 380,992 381,993 389,993 390,994 395,994 396,993 403,993 404,994 409,994 410,995 413,995 414,996 418,996 419,997 430,997 431,996 471,996 472,997 493,997 494,998 505,998 506,997 512,997 513,998 517,998 518,999 528,999 529,1000 533,1000 534,1001 547,1001 548,1000 559,1000 560,1001 563,1001 564,1002 585,1002 586,1003 602,1003 603,1004 612,1004 613,1005 619,1005 620,1006 623,1006 624,1007 627,1007 628,1008 630,1008 631,1009 635,1009 636,1008 645,1008 646,1009 648,1009 649,1008 655,1008 656,1009 668,1009 669,1010 683,1010 684,1011 690,1011 691,1010 694,1010 695,1011 696,1011 697,1012 700,1012 701,1013 706,1013 707,1012 709,1012 710,1013 712,1013 713,1014 717,1014 718,1013 730,1013 731,1014 734,1014 735,1015 758,1015 759,1016 774,1016 775,1015 797,1015 798,1016 802,1016 803,1015 805,1015 806,1016 812,1016 813,1017 818,1017 819,1018 827,1018 828,1019 831,1019 832,1020 836,1020 837,1021 858,1021 859,1022 860,1022 861,1023 862,1023 863,1024 869,1024 870,1025 883,1025 884,1026 893,1026 894,1027 895,1027 896,1028 900,1028 901,1029 904,1029 905,1030 914,1030 915,1031 919,1031 920,1032 923,1032 924,1033 934,1033 935,1032 942,1032 943,1033 964,1033 965,1032 972,1032 973,1033 978,1033 979,1034 991,1034 992,1035 997,1035 998,1034 1005,1034 1006,1033 1010,1033 1011,1034 1017,1034 1018,1033 1026,1033 1027,1034 1029,1034 1031,1032 1031,1030 1030,1029 1030,1023 1029,1022 1029,1019 1028,1018 1028,1008 1029,1007 1029,1000 1030,999 1030,995 1031,994 1031,990 1032,989 1032,980 1031,979 1031,977 1030,976 1030,961 1031,960 1031,957 1032,956 1032,953 1033,952 1033,942 1034,941 1034,935 1035,934 1035,924 1036,923 1036,921 1037,920 1037,918 1038,917 1038,906 1039,905 1039,902 1040,901 1040,892 1041,891 1041,886 1042,885 1042,869 1043,868 1043,857 1044,856 1044,848 1045,847 1045,828 1044,827 1044,809 1045,808 1045,761 1046,760 1046,744 1047,743 1047,698 1048,697 1048,680 1049,679 1049,643 1050,642 1050,632 1049,631 1049,619 1050,618 1050,566 1049,565 1049,561 1050,560 1050,553 1049,552 1049,525 1048,524 1048,518 1047,517 1047,512 1048,511 1048,494 1047,493 1047,468 1046,467 1046,456 1047,455 1047,450 1046,449 1046,444 1045,443 1045,438 1046,437 1046,420 1047,419 1047,409 1046,408 1046,406 1047,405 1047,401 1048,400 1048,391 1049,390 1049,384 1050,383 1050,374 1051,373 1051,302 1050,301 1050,294 1049,293 1049,288 1048,287 1048,278 1049,277 1049,267 1048,266 1048,259 1047,258 1047,250 1046,249 1046,233 1047,232 1047,215 1048,214 1048,208 1049,207 1049,197 1050,196 1050,192 1051,191 1051,183 1052,182 1052,171 1053,170 1053,158 1054,157 1054,149 1055,148 1055,134 1056,133 1056,127 1057,126 1057,119 1058,118 1058,112 1059,111 1059,99 1060,98 1060,87 1061,86 1061,63 1062,62 1062,55 1061,54 1056,54 1055,53 1052,53 1051,54 1050,54 1049,55 1042,55 1041,54 1039,54 1038,55 1033,55 1031,53 1031,52 1030,51 1027,51 1025,53 1023,53 1022,54 1019,54 1018,55 1013,55 1012,56 1009,56 1008,55 1003,55 1002,54 983,54 982,53 978,53 977,52 974,52 973,51 967,51 966,50 965,50 964,49 949,49 948,48 947,48 946,47 944,47 943,46 940,46 939,45 937,45 936,44 Z" fill="none" stroke="black"/>
  <path d="M 761,434 762,433 776,433 777,434 780,434 781,435 785,435 786,436 793,436 794,437 799,437 800,438 807,438 808,439 812,439 813,440 815,440 816,441 818,441 819,442 820,442 821,443 822,443 823,444 824,444 828,448 828,449 835,456 835,457 836,458 836,459 843,466 843,469 844,470 844,471 847,474 847,476 848,477 848,478 849,479 849,480 850,481 850,482 851,483 851,485 852,486 852,489 853,490 853,491 854,492 854,493 855,494 855,496 856,497 856,507 857,508 857,510 858,511 858,513 859,514 859,522 860,523 860,525 859,526 859,528 858,529 858,536 857,537 857,538 856,539 856,540 855,541 855,543 854,544 854,556 853,557 853,560 852,561 852,563 849,566 849,567 848,568 848,569 845,572 845,573 843,575 843,576 842,577 842,578 836,584 836,585 831,590 831,591 820,602 820,603 818,605 817,605 811,611 811,612 805,618 805,619 803,621 802,621 801,622 800,622 799,623 798,623 797,624 796,624 795,625 795,626 789,632 789,633 786,636 786,637 785,638 785,639 784,640 784,641 783,642 783,643 782,644 782,645 781,646 781,648 780,649 780,654 779,655 779,660 778,661 778,671 779,672 779,675 780,676 780,678 781,679 781,681 782,682 782,685 783,686 783,691 784,692 784,698 785,699 785,701 786,702 786,708 787,709 787,740 786,741 786,762 785,763 785,765 784,766 784,767 783,768 783,771 782,772 782,774 781,775 781,777 780,778 780,779 779,780 779,781 778,782 778,783 777,784 777,785 776,786 776,787 774,789 774,790 773,791 773,792 772,793 772,794 771,795 771,797 770,798 770,799 769,800 769,801 765,805 764,805 764,806 763,807 763,808 762,809 762,810 761,811 761,812 760,813 760,814 759,815 759,816 755,820 754,820 752,822 752,823 751,824 751,825 746,830 746,831 744,833 744,834 741,837 741,838 735,844 735,845 731,849 730,849 729,850 728,850 727,851 726,851 723,854 722,854 717,859 716,859 715,860 714,860 713,861 712,861 709,864 708,864 706,866 705,866 702,869 701,869 700,870 699,870 697,872 696,872 695,873 694,873 693,874 692,874 691,875 690,875 689,876 688,876 685,879 684,879 682,881 680,881 679,882 677,882 676,883 675,883 673,885 672,885 670,887 669,887 668,888 666,888 665,889 664,889 663,890 661,890 660,891 657,891 656,892 654,892 653,893 652,893 651,894 649,894 648,895 647,895 646,896 643,896 642,897 640,897 639,898 637,898 636,899 635,899 634,900 631,900 630,901 623,901 622,902 614,902 613,903 610,903 609,902 591,902 590,903 589,903 588,904 583,904 582,903 570,903 569,902 561,902 560,901 555,901 554,900 551,900 550,899 548,899 547,898 546,898 543,895 542,895 541,894 539,894 538,893 529,893 528,892 527,892 526,891 525,891 524,890 523,890 522,889 521,889 519,887 517,887 515,885 514,885 512,883 511,883 508,880 507,880 496,869 496,868 495,867 495,866 493,864 493,863 492,862 492,860 491,859 491,857 490,856 490,855 488,853 488,852 487,851 487,849 486,848 486,845 485,844 485,843 482,840 482,839 481,838 481,836 480,835 480,833 479,832 479,827 478,826 478,816 479,815 479,812 478,811 478,809 477,808 477,794 478,793 478,790 479,789 479,784 480,783 480,780 481,779 481,777 482,776 482,774 483,773 483,771 484,770 484,768 485,767 485,766 486,765 486,764 487,763 487,760 488,759 488,756 489,755 489,754 490,753 490,751 491,750 491,749 492,748 492,747 493,746 493,745 494,744 494,742 495,741 495,739 496,738 496,737 497,736 497,735 498,734 498,733 499,732 499,731 500,730 500,729 504,725 504,724 505,723 505,722 507,720 507,719 508,718 509,718 516,711 516,710 525,701 525,700 540,685 541,685 546,680 547,680 550,677 551,677 553,675 554,675 557,672 558,672 562,668 563,668 566,665 567,665 570,662 571,662 577,656 578,656 580,654 581,654 582,653 583,653 585,651 586,651 587,650 588,650 589,649 590,649 592,647 593,647 594,646 595,646 597,644 598,644 599,643 599,642 602,639 602,638 604,636 604,635 605,634 605,633 606,632 606,631 608,629 608,628 609,627 609,626 611,624 611,623 612,622 612,621 613,620 613,619 614,618 614,617 615,616 615,614 616,613 616,610 617,609 617,601 618,600 618,598 619,597 619,591 620,590 620,582 619,581 619,578 618,577 618,574 617,573 617,572 616,571 616,568 615,567 615,562 614,561 614,559 613,558 613,554 612,553 612,546 611,545 611,540 610,539 610,534 609,533 609,517 610,516 610,514 611,513 611,512 612,511 612,510 613,509 613,507 614,506 614,505 615,504 615,502 616,501 616,500 617,499 617,498 618,497 618,496 619,495 619,494 620,493 620,492 626,486 627,486 629,484 630,484 631,483 632,483 633,482 634,482 636,480 637,480 639,478 640,478 641,477 642,477 643,476 644,476 646,474 647,474 649,472 650,472 658,464 659,464 662,461 663,461 665,459 666,459 667,458 668,458 669,457 670,457 671,456 674,456 675,455 680,455 681,454 682,454 683,453 685,453 686,452 696,452 697,451 698,451 699,450 703,450 704,451 705,451 706,452 708,452 709,451 711,451 712,450 714,450 715,449 717,449 718,448 719,448 720,447 721,447 722,446 723,446 724,445 725,445 726,444 727,444 728,443 729,443 730,442 731,442 734,439 735,439 736,438 740,438 741,437 743,437 744,436 755,436 756,435 757,435 758,434 Z" fill="none" stroke="black"/>
  <path d="M 764,443 763,444 760,444 759,445 755,445 754,446 751,446 750,447 744,447 743,448 741,448 740,449 738,449 737,450 737,452 738,452 739,453 744,453 746,455 746,457 745,458 745,461 744,462 740,462 739,461 737,461 736,460 731,460 730,459 727,459 726,460 718,460 717,461 716,461 715,462 711,462 710,461 691,461 690,462 687,462 686,463 684,463 683,464 680,464 679,465 674,465 673,466 672,466 671,467 670,467 667,470 666,470 659,477 658,477 657,478 656,478 653,481 652,481 649,484 648,484 647,485 646,485 644,487 642,487 641,488 640,488 639,489 638,489 637,490 636,490 634,492 633,492 632,493 632,494 628,498 628,499 627,500 627,501 626,502 626,503 624,505 624,508 623,509 623,512 621,514 621,515 620,516 620,519 619,520 619,523 618,524 618,530 619,531 619,532 620,533 620,537 621,538 621,542 622,543 622,546 623,547 623,554 624,555 624,558 625,559 625,564 626,565 626,567 627,568 627,572 628,573 628,577 629,578 629,581 630,582 630,597 629,598 629,599 627,601 627,605 626,606 626,610 625,611 625,614 624,615 624,618 623,619 623,621 622,622 622,624 620,626 620,627 619,628 619,629 618,630 618,631 616,633 616,634 614,636 614,638 613,639 613,640 611,642 611,643 609,645 609,647 606,650 605,650 603,652 602,652 601,653 600,653 598,655 597,655 594,658 593,658 591,660 590,660 587,663 586,663 585,664 583,664 582,665 581,665 580,666 579,666 578,667 577,667 577,668 568,677 567,677 565,679 564,679 561,682 560,682 557,685 556,685 555,686 554,686 552,688 551,688 540,699 539,699 535,703 534,703 533,704 533,705 530,708 530,709 526,713 526,714 521,719 521,720 517,724 516,724 514,726 514,727 511,730 511,731 510,732 510,733 508,735 508,736 505,739 505,740 504,741 504,744 503,745 503,747 502,748 502,750 501,751 501,752 500,753 500,754 499,755 499,757 498,758 498,759 497,760 497,762 496,763 496,766 495,767 495,769 494,770 494,772 493,773 493,774 492,775 492,777 491,778 491,780 490,781 490,783 489,784 489,786 488,787 488,796 487,797 487,806 488,807 488,808 489,809 489,812 488,813 488,816 487,817 487,823 488,824 488,826 489,827 489,828 490,829 490,831 491,832 491,833 492,834 492,837 493,838 493,839 494,840 494,843 495,844 495,846 497,848 497,849 498,850 498,851 499,852 499,853 500,854 500,855 501,856 501,857 502,858 502,859 505,862 505,863 506,864 506,865 509,868 510,868 512,870 513,870 516,873 517,873 521,877 522,877 523,878 524,878 525,879 526,879 527,880 529,880 530,881 532,881 533,882 538,882 539,883 542,883 543,884 544,884 545,885 546,885 547,886 548,886 549,887 550,887 551,888 553,888 554,889 557,889 558,890 561,890 562,891 574,891 575,892 605,892 606,891 628,891 629,890 631,890 632,889 634,889 635,888 637,888 638,887 640,887 641,886 644,886 645,885 649,885 650,884 651,884 652,883 653,883 654,882 656,882 657,881 659,881 660,880 661,880 662,879 663,879 665,877 666,877 667,876 669,876 670,875 671,875 673,873 675,873 676,872 677,872 678,871 679,871 681,869 682,869 685,866 686,866 688,864 690,864 691,863 692,863 693,862 694,862 695,861 696,861 698,859 699,859 704,854 705,854 707,852 708,852 709,851 710,851 717,844 718,844 720,842 721,842 722,841 723,841 724,840 725,840 726,839 727,839 727,838 729,836 729,835 732,832 733,832 738,827 738,826 739,825 739,823 745,817 745,816 746,815 746,814 747,813 748,813 751,810 751,809 752,808 752,807 754,805 754,804 755,803 755,802 756,801 756,800 758,798 758,797 761,794 761,793 762,792 762,791 763,790 763,789 764,788 764,787 765,786 765,785 766,784 766,783 767,782 767,781 768,780 768,779 769,778 769,777 771,775 771,774 772,773 772,772 773,771 773,769 774,768 774,766 775,765 775,763 776,762 776,758 777,757 777,734 776,733 776,728 777,727 777,723 776,722 776,706 775,705 775,698 774,697 774,695 773,694 773,691 772,690 772,685 771,684 771,681 770,680 770,677 769,676 769,671 768,670 768,657 769,656 769,652 770,651 770,646 771,645 771,644 772,643 772,641 773,640 773,639 775,637 775,636 776,635 776,634 777,633 777,632 782,627 782,626 784,624 785,624 790,619 790,618 794,614 795,614 796,613 797,613 805,605 805,604 813,596 813,595 816,592 817,592 821,588 822,588 824,586 824,585 826,583 826,582 827,581 827,580 832,575 832,574 836,570 836,569 837,568 837,567 838,566 838,565 842,561 842,560 843,559 843,552 844,551 844,544 845,543 845,540 846,539 846,536 847,535 847,529 848,528 848,524 849,523 849,517 848,516 848,513 847,512 847,508 846,507 846,502 845,501 845,499 844,498 844,495 843,494 843,492 842,491 842,488 841,487 841,486 840,485 840,484 839,483 839,482 837,480 837,479 836,478 836,477 835,476 835,475 834,474 834,472 833,471 833,470 828,465 828,464 826,462 826,461 823,458 823,457 819,453 817,453 816,452 814,452 813,451 812,451 811,450 808,450 807,449 805,449 804,448 799,448 798,447 793,447 792,446 782,446 781,445 780,445 779,444 776,444 775,443 Z" fill="none" stroke="black"/>
  <path d="M 224,152 225,151 241,151 242,152 250,152 251,153 255,153 256,154 257,154 258,155 260,155 262,157 264,157 265,158 266,158 267,159 268,159 269,160 274,160 275,161 284,161 285,162 296,162 297,163 298,163 299,164 304,164 305,165 317,165 318,166 323,166 324,167 330,167 331,168 334,168 335,169 336,169 337,170 339,170 340,171 345,171 346,172 350,172 351,173 356,173 357,174 371,174 372,173 388,173 389,174 395,174 396,175 414,175 415,176 422,176 423,177 426,177 427,178 432,178 433,179 437,179 438,180 449,180 450,179 461,179 462,180 463,180 464,181 464,182 465,183 465,186 464,187 464,191 463,192 463,194 462,195 462,196 461,197 461,198 460,199 460,201 458,203 458,206 457,207 457,211 456,212 456,215 455,216 455,217 454,218 454,220 453,221 453,230 452,231 452,232 451,233 451,235 450,236 450,240 449,241 449,243 448,244 448,247 447,248 447,249 446,250 446,251 445,252 445,254 444,255 444,260 443,261 443,264 442,265 442,267 441,268 441,271 440,272 440,280 439,281 439,285 438,286 438,288 437,289 437,290 436,291 436,293 435,294 435,295 434,296 434,297 433,298 433,305 432,306 432,310 431,311 431,313 429,315 429,319 428,320 428,328 427,329 427,332 426,333 426,334 425,335 425,337 424,338 424,340 423,341 423,342 422,343 422,344 421,345 421,348 420,349 420,350 419,351 419,352 418,353 418,356 417,357 417,359 416,360 416,363 415,364 415,365 414,366 414,368 413,369 413,370 412,371 412,373 411,374 411,377 410,378 410,380 409,381 409,382 408,383 408,384 407,385 407,387 406,388 406,398 405,399 405,403 404,404 404,407 403,408 403,420 402,421 402,422 400,424 396,424 395,423 394,423 393,422 391,422 390,421 379,421 378,420 376,420 375,419 374,419 373,418 371,418 370,417 369,417 368,416 366,416 365,415 348,415 347,414 345,414 344,413 320,413 319,412 307,412 306,411 303,411 302,410 299,410 298,409 295,409 294,408 288,408 287,407 283,407 282,406 279,406 278,407 276,407 275,406 249,406 248,407 243,407 242,408 234,408 233,407 231,407 230,406 227,406 226,405 224,405 221,402 220,402 218,400 216,400 215,399 214,399 213,398 211,398 210,397 205,397 204,396 200,396 199,395 197,395 196,396 191,396 190,395 184,395 183,394 181,394 180,393 175,393 174,392 171,392 170,391 167,391 166,390 159,390 157,388 157,386 156,385 156,380 157,379 157,363 156,362 156,357 157,356 157,345 158,344 158,341 159,340 159,336 160,335 160,332 161,331 161,327 162,326 162,324 163,323 163,316 164,315 164,313 165,312 165,309 166,308 166,307 167,306 167,304 168,303 168,297 169,296 169,294 170,293 170,290 171,289 171,281 172,280 172,272 173,271 173,264 174,263 174,252 173,251 173,231 174,230 174,222 175,221 175,217 176,216 176,214 177,213 177,209 178,208 178,201 179,200 179,196 180,195 180,188 181,187 181,184 182,183 182,179 181,178 181,172 180,171 180,166 181,165 181,163 182,162 182,157 185,154 191,154 192,153 195,153 196,154 199,154 200,153 205,153 206,152 Z" fill="none" stroke="black"/>
  <path d="M 239,160 238,161 211,161 210,162 204,162 203,163 191,163 190,164 190,169 191,170 191,179 192,180 192,181 193,182 193,193 192,194 192,196 191,197 191,200 190,201 190,203 189,204 189,205 188,206 188,208 187,209 187,210 186,211 186,212 185,213 185,215 184,216 184,226 183,227 183,234 182,235 182,251 183,252 183,266 182,267 182,269 181,270 181,272 180,273 180,289 179,290 179,294 178,295 178,297 177,298 177,300 176,301 176,305 175,306 175,307 174,308 174,311 173,312 173,315 172,316 172,322 171,323 171,326 170,327 170,330 169,331 169,335 168,336 168,338 167,339 167,344 166,345 166,355 165,356 165,363 166,364 166,374 167,375 167,380 168,380 169,381 178,381 179,382 180,382 182,384 184,384 185,385 192,385 193,384 195,384 196,385 205,385 206,386 210,386 211,387 213,387 214,388 215,388 216,389 217,389 218,390 219,390 221,392 222,392 223,393 224,393 225,394 226,394 227,395 229,395 230,396 231,396 232,397 250,397 251,396 281,396 282,397 290,397 291,398 296,398 297,399 299,399 300,400 303,400 304,401 307,401 308,402 315,402 316,403 328,403 329,404 342,404 343,405 354,405 355,406 367,406 368,407 371,407 372,408 376,408 377,409 378,409 379,410 385,410 386,411 388,411 389,412 395,412 396,411 396,407 395,406 395,400 396,399 396,389 397,388 397,384 398,383 398,381 399,380 399,378 400,377 400,376 401,375 401,374 402,373 402,372 403,371 403,370 404,369 404,368 405,367 405,366 406,365 406,362 407,361 407,358 408,357 408,353 409,352 409,350 410,349 410,348 411,347 411,346 412,345 412,343 413,342 413,340 414,339 414,337 415,336 415,334 416,333 416,331 417,330 417,329 418,328 418,326 419,325 419,321 420,320 420,316 421,315 421,312 422,311 422,308 423,307 423,304 424,303 424,301 425,300 425,296 426,295 426,292 427,291 427,289 428,288 428,286 429,285 429,277 430,276 430,272 431,271 431,269 432,268 432,266 433,265 433,261 434,260 434,259 435,258 435,253 436,252 436,249 437,248 437,247 438,246 438,244 439,243 439,241 440,240 440,235 441,234 441,232 442,231 442,229 443,228 443,225 444,224 444,221 445,220 445,217 446,216 446,213 447,212 447,207 448,206 448,204 449,203 449,201 450,200 450,199 451,198 451,197 452,196 452,195 453,194 453,189 449,189 448,190 444,190 443,189 433,189 432,188 430,188 429,187 424,187 423,186 418,186 417,185 410,185 409,184 404,184 403,185 398,185 397,184 393,184 392,183 366,183 365,184 360,184 359,183 351,183 350,182 349,182 348,181 345,181 344,180 339,180 338,179 337,179 336,178 335,178 334,177 330,177 329,176 324,176 323,175 316,175 315,174 304,174 303,173 299,173 298,172 295,172 294,171 292,171 291,170 289,170 288,171 285,171 284,170 278,170 277,171 274,171 273,170 271,170 270,169 268,169 267,168 266,168 265,167 263,167 262,166 261,166 260,165 259,165 258,164 256,164 255,163 254,163 253,162 251,162 250,161 244,161 243,160 Z" fill="none" stroke="black"/>
  <path d="M 817,145 818,144 829,144 830,145 834,145 835,146 840,146 841,147 843,147 844,148 846,148 847,149 848,149 849,150 850,150 851,151 853,151 854,152 857,152 858,153 860,153 862,155 863,155 864,156 868,156 869,157 870,157 871,158 872,158 874,160 875,160 876,161 877,161 881,165 882,165 884,167 885,167 890,172 890,173 891,174 891,175 892,176 892,177 895,180 895,181 896,182 896,183 897,184 897,185 898,186 898,187 899,188 899,189 900,190 900,191 901,192 901,193 902,194 902,195 903,196 903,197 904,198 904,199 905,200 905,202 907,204 907,205 908,206 908,209 909,210 909,214 910,215 910,221 909,222 909,233 910,234 910,238 911,239 911,264 910,265 910,272 909,273 909,275 908,276 908,278 907,279 907,280 906,281 906,284 905,285 905,287 904,288 904,290 903,291 903,292 897,298 897,299 891,305 891,306 890,307 889,307 886,310 885,310 883,312 882,312 881,313 880,313 878,315 877,315 873,319 872,319 869,322 868,322 866,324 865,324 861,328 859,328 858,329 856,329 855,330 852,330 851,331 847,331 846,332 844,332 843,333 841,333 840,334 839,334 838,335 836,335 835,336 832,336 831,337 829,337 828,338 822,338 821,339 819,339 818,338 816,338 815,337 798,337 797,338 793,338 792,337 789,337 788,336 786,336 785,335 779,335 778,334 775,334 774,333 773,333 772,332 771,332 770,331 769,331 768,330 767,330 763,326 762,326 757,321 756,321 752,317 752,316 743,307 743,306 742,305 742,304 741,303 741,302 740,301 740,300 739,299 739,298 738,297 738,296 737,295 737,294 736,293 736,291 735,290 735,287 734,286 734,283 733,282 733,280 732,279 732,276 731,275 731,270 730,269 730,257 729,256 729,239 730,238 730,234 731,233 731,230 732,229 732,226 733,225 733,223 734,222 734,220 735,219 735,217 736,216 736,210 737,209 737,205 738,204 738,202 739,201 739,199 740,198 740,197 741,196 741,195 743,193 743,192 744,191 744,190 747,187 747,186 748,185 748,184 751,181 751,180 752,179 752,178 753,177 753,176 757,172 757,171 759,169 759,168 763,164 764,164 765,163 766,163 768,161 769,161 770,160 771,160 773,158 774,158 775,157 776,157 777,156 778,156 779,155 780,155 781,154 782,154 784,152 786,152 787,151 789,151 790,150 793,150 794,149 796,149 797,148 800,148 801,147 805,147 806,146 813,146 814,145 Z" fill="none" stroke="black"/>
  <path d="M 823,155 822,156 822,157 821,158 819,158 818,157 808,157 807,158 803,158 802,159 800,159 799,160 795,160 794,161 792,161 791,162 790,162 789,163 786,163 785,164 783,164 782,165 781,165 780,166 779,166 778,167 777,167 776,168 775,168 773,170 772,170 764,178 763,178 763,179 759,183 759,184 758,185 758,186 757,187 757,188 756,189 756,190 754,192 754,193 753,194 753,195 752,196 752,197 750,199 750,200 749,201 749,202 748,203 748,206 747,207 747,209 746,210 746,213 745,214 745,218 744,219 744,223 743,224 743,225 742,226 742,227 741,228 741,231 740,232 740,235 739,236 739,249 738,250 738,258 739,259 739,268 740,269 740,273 741,274 741,276 742,277 742,279 743,280 743,282 744,283 744,286 745,287 745,289 746,290 746,291 747,292 747,293 748,294 748,296 749,297 749,298 750,299 750,300 752,302 753,302 755,304 755,305 757,307 757,308 760,311 761,311 768,318 769,318 772,321 773,321 774,322 776,322 777,323 779,323 780,324 783,324 784,325 788,325 789,326 790,326 791,327 793,327 794,328 797,328 798,327 802,327 803,326 811,326 812,327 816,327 817,328 819,328 820,329 825,329 826,328 828,328 829,327 830,327 831,326 834,326 835,325 837,325 838,324 839,324 840,323 841,323 842,322 844,322 845,321 849,321 850,320 853,320 854,319 856,319 858,317 859,317 862,314 863,314 865,312 866,312 870,308 871,308 873,306 874,306 875,305 876,305 878,303 879,303 883,299 884,299 884,298 891,291 891,290 893,288 893,287 894,286 894,285 895,284 895,282 896,281 896,280 897,279 897,277 898,276 898,274 899,273 899,271 900,270 900,268 901,267 901,252 902,251 902,248 901,247 901,242 900,241 900,238 899,237 899,228 900,227 900,215 899,214 899,212 898,211 898,209 897,208 897,206 896,205 896,204 895,203 895,201 894,200 894,199 893,198 893,197 891,195 891,194 890,193 890,192 888,190 888,189 886,187 886,186 884,184 884,183 882,181 882,180 881,179 881,178 876,173 875,173 870,168 869,168 866,165 865,165 864,164 862,164 861,165 859,165 858,164 856,164 855,163 852,163 851,162 849,162 848,161 847,161 846,160 845,160 844,159 843,159 842,158 841,158 840,157 839,157 837,155 833,155 832,156 829,156 828,155 Z" fill="none" stroke="black"/>
</svg>