<?xml version="1.0" encoding="UTF-8" ?>
<svg width="667" height="1132" xmlns="http://www.w3.org/2000/svg">
  <path d="M 0,0 0,1131 666,1131 666,0 Z" fill="none" stroke="black"/>
  <path d="M 322,135 323,134 340,134 341,135 345,135 346,136 350,136 351,137 352,137 353,138 354,138 355,139 356,139 358,141 359,141 360,142 361,142 362,143 366,143 367,144 372,144 373,145 375,145 376,146 380,146 381,147 385,147 386,148 387,148 392,153 392,154 393,155 393,156 395,158 395,159 397,161 397,162 400,165 400,166 402,168 402,174 403,175 403,179 404,180 404,183 405,184 405,185 406,186 406,188 407,189 407,191 408,192 408,196 409,197 409,200 410,201 410,203 411,204 411,205 412,206 412,207 413,208 413,235 412,236 412,240 411,241 411,246 410,247 410,255 411,256 411,264 410,265 410,273 409,274 409,285 410,286 410,291 409,292 409,297 408,298 408,306 407,307 407,314 406,315 406,319 405,320 405,323 404,324 404,326 403,327 403,331 402,332 402,336 401,337 401,341 400,342 400,344 399,345 399,348 397,350 397,351 396,352 396,354 395,355 395,358 394,359 394,360 393,361 393,362 390,365 390,366 389,367 389,368 388,369 388,370 387,371 387,372 386,373 386,375 385,376 385,377 384,378 384,379 383,380 383,381 382,382 382,384 381,385 381,387 380,388 380,390 379,391 379,392 378,393 378,395 377,396 377,397 376,398 376,400 375,401 375,402 374,403 374,404 373,405 373,406 372,407 372,408 370,410 370,411 368,413 368,414 367,415 367,416 366,417 366,418 365,419 365,420 364,421 364,422 363,423 363,424 361,426 361,427 360,428 360,430 361,430 362,431 364,431 365,432 367,432 369,434 370,434 371,435 372,435 380,443 381,443 384,446 385,446 389,450 390,450 394,454 395,454 398,457 399,457 405,463 406,463 409,466 410,466 419,475 419,476 420,477 421,477 423,479 424,479 428,483 428,484 429,485 430,485 432,487 432,488 442,498 442,499 455,512 455,513 457,515 457,516 461,520 461,521 463,523 463,524 464,525 464,526 465,527 465,528 467,530 467,531 474,538 474,539 475,540 475,542 476,543 476,544 477,545 477,547 478,548 478,551 479,552 479,554 480,555 480,556 481,557 481,559 482,560 482,561 483,562 483,564 484,565 484,566 485,567 485,569 486,570 486,572 487,573 487,575 488,576 488,579 489,580 489,582 490,583 490,584 493,587 493,588 494,589 494,590 495,591 495,593 496,594 496,598 497,599 497,602 498,603 498,606 499,607 499,611 500,612 500,615 501,616 501,619 502,620 502,623 503,624 503,627 504,628 504,630 505,631 505,633 506,634 506,650 507,651 507,652 508,653 508,654 509,655 509,657 510,658 510,666 509,667 509,680 508,681 508,699 507,700 507,703 506,704 506,716 505,717 505,720 504,721 504,723 503,724 503,728 502,729 502,732 501,733 501,735 500,736 500,737 499,738 499,740 498,741 498,743 496,745 496,747 495,748 495,750 494,751 494,753 493,754 493,758 492,759 492,760 488,764 488,765 487,766 487,767 485,769 485,771 484,772 484,773 483,774 483,775 481,777 481,778 479,780 479,781 478,782 478,783 466,795 466,796 452,810 452,811 449,814 448,814 444,818 444,819 443,820 442,820 440,822 439,822 438,823 437,823 436,824 435,824 434,825 433,825 432,826 430,826 422,834 422,835 419,838 418,838 415,841 414,841 413,842 412,842 411,843 409,843 408,844 403,844 402,845 398,845 397,846 395,846 394,847 393,847 392,848 391,848 390,849 389,849 387,851 386,851 384,853 383,853 382,854 380,854 378,856 377,856 376,857 374,857 373,858 371,858 370,859 366,859 365,860 357,860 356,861 353,861 352,862 348,862 347,863 342,863 341,864 339,864 338,865 336,865 335,866 333,866 332,867 331,867 330,868 329,868 328,869 317,869 316,868 304,868 303,867 298,867 297,866 295,866 294,865 289,865 288,864 285,864 284,863 282,863 281,862 278,862 277,861 274,861 273,860 270,860 269,859 267,859 266,858 265,858 263,856 262,856 261,855 259,855 258,854 256,854 255,853 254,853 253,852 252,852 251,851 250,851 248,849 247,849 236,838 235,838 231,834 231,833 227,829 227,828 226,827 226,826 225,825 225,823 224,822 224,821 223,820 223,819 222,818 222,817 221,816 221,815 220,814 220,813 218,811 218,810 216,808 216,807 214,805 214,803 213,802 213,801 212,800 212,799 211,798 211,797 210,796 210,795 209,794 209,792 208,791 208,789 207,788 207,784 206,783 206,777 205,776 205,773 204,772 204,769 203,768 203,763 202,762 202,742 201,741 201,734 202,733 202,727 203,726 203,718 204,717 204,710 205,709 205,700 206,699 206,697 207,696 207,691 208,690 208,685 209,684 209,682 210,681 210,679 211,678 211,676 212,675 212,673 213,672 213,671 214,670 214,667 215,666 215,665 216,664 216,661 217,660 217,656 218,655 218,654 219,653 219,652 220,651 220,650 221,649 221,648 222,647 222,645 223,644 223,642 224,641 224,640 226,638 226,637 228,635 228,634 229,633 229,632 230,631 230,630 231,629 231,628 232,627 232,626 233,625 233,624 234,623 234,621 235,620 235,619 237,617 237,616 238,615 238,614 239,613 239,612 240,611 240,610 241,609 241,608 242,607 242,606 243,605 243,604 244,603 244,602 245,601 245,600 246,599 246,598 248,596 248,595 249,594 249,593 251,591 251,590 252,589 252,588 254,586 254,585 256,583 256,582 257,581 257,580 258,579 258,578 259,577 259,576 260,575 260,574 263,571 263,570 264,569 264,568 265,567 265,566 266,565 266,564 268,562 268,561 270,559 270,558 274,554 274,553 279,548 279,547 280,546 280,545 281,544 281,543 282,542 282,540 284,538 284,537 286,535 286,534 288,532 288,531 290,529 290,528 292,526 292,525 296,521 296,519 297,518 297,516 298,515 298,514 299,513 299,512 300,511 300,510 301,509 301,508 302,507 302,506 303,505 303,504 304,503 304,502 305,501 305,500 307,498 307,497 308,496 308,495 310,493 310,492 313,489 313,488 314,487 314,486 315,485 315,484 316,483 316,482 317,481 317,480 318,479 318,478 320,476 320,475 321,474 321,473 323,471 323,470 325,468 325,467 326,466 326,465 327,464 327,463 328,462 328,461 329,460 329,459 331,457 331,456 332,455 332,454 334,452 334,451 336,449 336,448 337,447 337,446 338,445 338,443 339,442 339,438 338,438 337,437 335,437 334,436 333,436 332,435 330,435 329,434 328,434 327,433 325,433 324,432 322,432 320,430 319,430 317,428 315,428 314,427 311,427 310,426 308,426 307,425 306,425 305,424 304,424 303,423 301,423 300,422 299,422 298,421 296,421 295,420 293,420 292,419 290,419 289,418 287,418 286,417 285,417 284,416 282,416 281,415 280,415 279,414 278,414 277,413 275,413 274,412 273,412 272,411 271,411 270,410 269,410 267,408 266,408 265,407 264,407 263,406 262,406 261,405 260,405 258,403 257,403 256,402 255,402 254,401 253,401 252,400 250,400 249,399 248,399 247,398 246,398 245,397 244,397 243,396 242,396 240,394 239,394 234,389 233,389 231,387 230,387 225,382 225,381 221,377 221,376 218,373 218,372 217,371 217,370 216,369 216,368 214,366 214,365 211,362 211,361 209,359 209,358 208,357 208,356 206,354 206,353 205,352 205,350 204,349 204,347 203,346 203,342 202,341 202,340 201,339 201,337 200,336 200,333 199,332 199,321 198,320 198,314 197,313 197,290 198,289 198,280 199,279 199,275 200,274 200,272 201,271 201,269 202,268 202,265 203,264 203,261 204,260 204,258 205,257 205,255 206,254 206,249 207,248 207,246 208,245 208,241 209,240 209,239 211,237 211,236 213,234 213,232 214,231 214,229 215,228 215,227 216,226 216,225 217,224 217,222 218,221 218,219 219,218 219,216 220,215 220,214 221,213 221,212 225,208 225,207 227,205 227,204 228,203 228,202 229,201 229,200 230,199 230,198 231,197 231,196 232,195 232,194 236,190 236,189 243,182 243,181 245,179 245,178 246,177 247,177 252,172 253,172 259,166 260,166 263,163 264,163 265,162 266,162 268,160 269,160 270,159 271,159 272,158 273,158 274,157 275,157 276,156 278,156 280,154 281,154 282,153 284,153 285,152 286,152 287,151 288,151 299,140 300,140 301,139 304,139 305,138 309,138 310,137 312,137 313,136 315,136 316,135 Z" fill="none" stroke="black"/>
  <path d="M 355,442 354,443 353,443 353,444 352,445 352,446 351,447 351,448 350,449 350,450 349,451 349,452 348,453 348,454 346,456 346,457 345,458 345,459 343,461 343,462 341,464 341,465 340,466 340,467 339,468 339,469 338,470 338,471 337,472 337,473 336,474 336,475 335,476 335,477 334,478 334,479 332,481 332,482 330,484 330,485 329,486 329,487 327,489 327,490 325,492 325,494 323,496 323,497 321,499 321,500 320,501 320,502 319,503 319,504 316,507 316,508 315,509 315,510 314,511 314,512 313,513 313,514 312,515 312,516 311,517 311,518 310,519 310,520 309,521 309,522 308,523 308,525 307,526 307,527 306,528 306,529 305,530 305,531 303,533 303,534 300,537 299,537 299,538 296,541 296,542 295,543 295,544 294,545 294,546 293,547 293,549 292,550 292,551 291,552 291,553 290,554 290,555 288,557 288,558 287,559 287,560 284,563 284,564 280,568 280,569 279,570 279,571 277,573 277,574 274,577 274,578 272,580 272,581 271,582 271,583 268,586 268,587 267,588 267,590 265,592 265,593 264,594 264,595 262,597 262,598 260,600 260,602 258,604 258,605 256,607 256,608 255,609 255,610 254,611 254,613 253,614 253,616 251,618 251,619 250,620 250,621 249,622 249,623 248,624 248,625 246,627 246,628 245,629 245,630 244,631 244,632 243,633 243,634 241,636 241,637 240,638 240,639 239,640 239,642 238,643 238,644 237,645 237,646 236,647 236,649 235,650 235,651 234,652 234,653 233,654 233,655 232,656 232,658 231,659 231,661 230,662 230,663 229,664 229,668 228,669 228,670 227,671 227,672 226,673 226,676 225,677 225,679 224,680 224,681 223,682 223,683 222,684 222,686 221,687 221,693 220,694 220,701 219,702 219,708 218,709 218,712 217,713 217,725 216,726 216,728 215,729 215,756 216,757 216,761 217,762 217,768 218,769 218,772 219,773 219,778 220,779 220,782 221,783 221,784 222,785 222,788 223,789 223,790 224,791 224,792 225,793 225,795 226,796 226,797 227,798 227,799 228,800 228,801 230,803 230,804 232,806 232,807 233,808 233,810 234,811 234,812 235,813 235,815 236,816 236,817 237,818 237,819 239,821 239,822 240,823 240,824 241,825 241,826 246,831 247,831 250,834 251,834 253,836 254,836 256,838 257,838 258,839 259,839 260,840 261,840 262,841 263,841 264,842 265,842 266,843 267,843 269,845 270,845 271,846 273,846 274,847 276,847 277,848 282,848 283,849 287,849 288,850 294,850 295,851 298,851 299,852 301,852 302,853 303,853 304,854 322,854 323,853 328,853 329,852 333,852 334,851 336,851 337,850 341,850 342,849 344,849 345,848 346,848 347,847 351,847 352,846 361,846 362,845 370,845 371,844 372,844 375,841 376,841 378,839 379,839 380,838 381,838 382,837 383,837 385,835 386,835 387,834 388,834 389,833 390,833 391,832 392,832 393,831 395,831 396,830 400,830 401,829 403,829 404,828 406,828 407,827 409,827 410,826 411,826 419,818 420,818 422,816 423,816 426,813 427,813 428,812 429,812 432,809 433,809 434,808 435,808 452,791 452,790 456,786 456,785 460,781 460,780 465,775 466,775 468,773 468,772 470,770 470,769 471,768 471,767 472,766 472,765 473,764 473,763 474,762 474,761 476,759 476,758 478,756 478,755 479,754 479,752 480,751 480,750 481,749 481,748 482,747 482,745 484,743 484,742 485,741 485,739 486,738 486,736 487,735 487,733 488,732 488,729 489,728 489,725 490,724 490,723 491,722 491,719 492,718 492,716 493,715 493,707 492,706 492,704 493,703 493,696 494,695 494,681 495,680 495,676 496,675 496,659 495,658 495,655 494,654 494,652 493,651 493,649 492,648 492,638 491,637 491,630 490,629 490,626 489,625 489,622 488,621 488,618 487,617 487,613 486,612 486,610 485,609 485,608 484,607 484,601 483,600 483,598 482,597 482,596 481,595 481,593 480,592 480,590 479,589 479,588 477,586 477,585 476,584 476,582 475,581 475,580 474,579 474,576 473,575 473,569 472,568 472,567 471,566 471,565 469,563 469,561 468,560 468,559 467,558 467,557 466,556 466,555 465,554 465,553 464,552 464,551 463,550 463,549 462,548 462,547 460,545 460,544 459,543 459,542 457,540 457,539 454,536 454,535 452,533 452,532 451,531 451,530 446,525 446,524 442,520 442,519 441,518 441,516 435,510 435,509 430,504 429,504 428,503 427,503 422,498 422,497 420,495 420,494 417,491 416,491 414,489 413,489 408,484 408,483 405,480 404,480 394,470 393,470 390,467 389,467 387,465 386,465 384,463 383,463 378,458 378,457 376,455 375,455 374,454 373,454 372,453 371,453 363,445 362,445 361,444 360,444 359,443 358,443 357,442 Z" fill="none" stroke="black"/>
  <path d="M 322,148 322,150 323,151 324,151 325,152 326,152 327,153 329,153 330,154 331,154 332,155 333,155 335,157 335,162 334,163 334,165 335,166 335,168 334,169 331,169 330,168 329,168 328,167 327,167 326,166 325,166 324,165 309,165 308,164 305,164 304,163 297,163 296,164 295,164 294,165 293,165 292,166 291,166 290,167 289,167 288,168 287,168 286,169 285,169 283,171 282,171 282,172 281,173 281,178 280,179 279,179 278,180 273,180 270,177 270,176 267,176 265,178 265,179 262,182 261,182 259,184 258,184 251,191 251,192 249,194 249,195 247,197 247,198 245,200 245,201 243,203 243,204 242,205 242,206 241,207 241,208 240,209 240,210 238,212 238,213 235,216 235,217 234,218 234,219 233,220 233,221 231,223 231,224 230,225 230,226 229,227 229,228 228,229 228,230 227,231 227,233 226,234 226,236 225,237 225,238 224,239 224,240 222,242 222,243 221,244 221,245 220,246 220,247 219,248 219,252 218,253 218,258 217,259 217,262 216,263 216,267 215,268 215,270 214,271 214,273 213,274 213,276 212,277 212,279 211,280 211,291 210,292 210,310 211,311 211,316 212,317 212,328 213,329 213,332 214,333 214,335 215,336 215,337 216,338 216,340 217,341 217,343 218,344 218,345 220,347 220,348 221,349 221,350 222,351 222,352 223,353 223,354 225,356 225,357 226,358 226,359 227,360 227,361 229,363 229,364 230,365 230,366 232,368 232,369 240,377 241,377 244,380 244,381 246,383 247,383 248,384 249,384 251,386 252,386 253,387 258,387 259,388 260,388 261,389 262,389 263,390 264,390 266,392 267,392 268,393 269,393 271,395 272,395 273,396 274,396 276,398 277,398 278,399 280,399 281,400 283,400 284,401 285,401 286,402 287,402 288,403 289,403 290,404 292,404 293,405 295,405 296,406 299,406 300,407 302,407 303,408 305,408 306,409 307,409 308,410 309,410 310,411 312,411 313,412 314,412 315,413 317,413 318,414 319,414 321,416 323,416 324,417 326,417 327,418 329,418 330,419 331,419 332,420 334,420 335,421 336,421 337,422 338,422 340,424 342,424 343,425 346,425 350,421 350,420 351,419 351,418 352,417 352,416 353,415 353,414 354,413 354,412 355,411 355,409 356,408 356,407 357,406 357,405 358,404 358,403 364,397 364,396 365,395 365,394 366,393 366,392 367,391 367,390 368,389 368,387 369,386 369,382 370,381 370,379 371,378 371,377 372,376 372,375 373,374 373,373 374,372 374,371 375,370 375,369 376,368 376,367 377,366 377,365 378,364 378,363 379,362 379,361 380,360 380,358 381,357 381,356 382,355 382,354 383,353 383,352 384,351 384,350 385,349 385,348 386,347 386,346 387,345 387,344 388,343 388,342 389,341 389,339 390,338 390,333 391,332 391,322 392,321 392,317 393,316 393,313 394,312 394,310 395,309 395,298 396,297 396,271 397,270 397,264 398,263 398,250 399,249 399,244 398,243 398,238 399,237 399,234 400,233 400,211 399,210 399,208 398,207 398,205 397,204 397,202 396,201 396,197 395,196 395,193 394,192 394,190 393,189 393,188 392,187 392,181 391,180 391,176 390,175 390,173 382,165 382,164 381,163 381,162 380,162 379,161 377,161 376,160 374,160 373,159 372,159 371,158 369,158 368,157 363,157 362,156 358,156 357,155 355,155 354,154 353,154 351,152 349,152 348,151 346,151 345,150 341,150 340,149 333,149 332,148 Z" fill="none" stroke="black"/>
</svg>