  0
SECTION
  2
HEADER
  9
$ACADVER
  1
AC1024
  9
$ACADMAINTVER
 70
6
  9
$DWGCODEPAGE
  3
ANSI_1252
  9
$LASTSAVEDBY
  1
ezdxf
  9
$INSBASE
 10
0.0
 20
0.0
 30
0.0
  9
$EXTMIN
 10
1e+20
 20
1e+20
 30
1e+20
  9
$EXTMAX
 10
-1e+20
 20
-1e+20
 30
-1e+20
  9
$LIMMIN
 10
0.0
 20
0.0
  9
$LIMMAX
 10
420.0
 20
297.0
  9
$ORTHOMODE
 70
0
  9
$REGENMODE
 70
1
  9
$FILLMODE
 70
1
  9
$QTEXTMODE
 70
0
  9
$MIRRTEXT
 70
1
  9
$LTSCALE
 40
1.0
  9
$ATTMODE
 70
1
  9
$TEXTSIZE
 40
2.5
  9
$TRACEWID
 40
1.0
  9
$TEXTSTYLE
  7
Standard
  9
$CLAYER
  8
0
  9
$CELTYPE
  6
ByLayer
  9
$CECOLOR
 62
256
  9
$CELTSCALE
 40
1.0
  9
$DISPSILH
 70
0
  9
$DIMSCALE
 40
1.0
  9
$DIMASZ
 40
2.5
  9
$DIMEXO
 40
0.625
  9
$DIMDLI
 40
3.75
  9
$DIMRND
 40
0.0
  9
$DIMDLE
 40
0.0
  9
$DIMEXE
 40
1.25
  9
$DIMTP
 40
0.0
  9
$DIMTM
 40
0.0
  9
$DIMTXT
 40
2.5
  9
$DIMCEN
 40
2.5
  9
$DIMTSZ
 40
0.0
  9
$DIMTOL
 70
0
  9
$DIMLIM
 70
0
  9
$DIMTIH
 70
0
  9
$DIMTOH
 70
0
  9
$DIMSE1
 70
0
  9
$DIMSE2
 70
0
  9
$DIMTAD
 70
1
  9
$DIMZIN
 70
8
  9
$DIMBLK
  1

  9
$DIMASO
 70
1
  9
$DIMSHO
 70
1
  9
$DIMPOST
  1

  9
$DIMAPOST
  1

  9
$DIMALT
 70
0
  9
$DIMALTD
 70
3
  9
$DIMALTF
 40
0.03937007874
  9
$DIMLFAC
 40
1.0
  9
$DIMTOFL
 70
1
  9
$DIMTVP
 40
0.0
  9
$DIMTIX
 70
0
  9
$DIMSOXD
 70
0
  9
$DIMSAH
 70
0
  9
$DIMBLK1
  1

  9
$DIMBLK2
  1

  9
$DIMSTYLE
  2
ISO-25
  9
$DIMCLRD
 70
0
  9
$DIMCLRE
 70
0
  9
$DIMCLRT
 70
0
  9
$DIMTFAC
 40
1.0
  9
$DIMGAP
 40
0.625
  9
$DIMJUST
 70
0
  9
$DIMSD1
 70
0
  9
$DIMSD2
 70
0
  9
$DIMTOLJ
 70
0
  9
$DIMTZIN
 70
8
  9
$DIMALTZ
 70
0
  9
$DIMALTTZ
 70
0
  9
$DIMUPT
 70
0
  9
$DIMDEC
 70
2
  9
$DIMTDEC
 70
2
  9
$DIMALTU
 70
2
  9
$DIMALTTD
 70
3
  9
$DIMTXSTY
  7
Standard
  9
$DIMAUNIT
 70
0
  9
$DIMADEC
 70
0
  9
$DIMALTRND
 40
0.0
  9
$DIMAZIN
 70
0
  9
$DIMDSEP
 70
44
  9
$DIMATFIT
 70
3
  9
$DIMFRAC
 70
0
  9
$DIMLDRBLK
  1

  9
$DIMLUNIT
 70
2
  9
$DIMLWD
 70
-2
  9
$DIMLWE
 70
-2
  9
$DIMTMOVE
 70
0
  9
$DIMFXL
 40
1.0
  9
$DIMFXLON
 70
0
  9
$DIMJOGANG
 40
0.785398163397
  9
$DIMTFILL
 70
0
  9
$DIMTFILLCLR
 70
0
  9
$DIMARCSYM
 70
0
  9
$DIMLTYPE
  6

  9
$DIMLTEX1
  6

  9
$DIMLTEX2
  6

  9
$DIMTXTDIRECTION
 70
0
  9
$LUNITS
 70
2
  9
$LUPREC
 70
4
  9
$SKETCHINC
 40
1.0
  9
$FILLETRAD
 40
10.0
  9
$AUNITS
 70
0
  9
$AUPREC
 70
2
  9
$MENU
  1
.
  9
$ELEVATION
 40
0.0
  9
$PELEVATION
 40
0.0
  9
$THICKNESS
 40
0.0
  9
$LIMCHECK
 70
0
  9
$CHAMFERA
 40
0.0
  9
$CHAMFERB
 40
0.0
  9
$CHAMFERC
 40
0.0
  9
$CHAMFERD
 40
0.0
  9
$SKPOLY
 70
0
  9
$TDCREATE
 40
2460929.827789352
  9
$TDUCREATE
 40
2458532.153996898
  9
$TDUPDATE
 40
2460929.827789352
  9
$TDUUPDATE
 40
2458532.1544311
  9
$TDINDWG
 40
0.0
  9
$TDUSRTIMER
 40
0.0
  9
$USRTIMER
 70
1
  9
$ANGBASE
 50
0.0
  9
$ANGDIR
 70
0
  9
$PDMODE
 70
0
  9
$PDSIZE
 40
0.0
  9
$PLINEWID
 40
0.0
  9
$SPLFRAME
 70
0
  9
$SPLINETYPE
 70
6
  9
$SPLINESEGS
 70
8
  9
$HANDSEED
  5
69
  9
$SURFTAB1
 70
6
  9
$SURFTAB2
 70
6
  9
$SURFTYPE
 70
6
  9
$SURFU
 70
6
  9
$SURFV
 70
6
  9
$UCSBASE
  2

  9
$UCSNAME
  2

  9
$UCSORG
 10
0.0
 20
0.0
 30
0.0
  9
$UCSXDIR
 10
1.0
 20
0.0
 30
0.0
  9
$UCSYDIR
 10
0.0
 20
1.0
 30
0.0
  9
$UCSORTHOREF
  2

  9
$UCSORTHOVIEW
 70
0
  9
$UCSORGTOP
 10
0.0
 20
0.0
 30
0.0
  9
$UCSORGBOTTOM
 10
0.0
 20
0.0
 30
0.0
  9
$UCSORGLEFT
 10
0.0
 20
0.0
 30
0.0
  9
$UCSORGRIGHT
 10
0.0
 20
0.0
 30
0.0
  9
$UCSORGFRONT
 10
0.0
 20
0.0
 30
0.0
  9
$UCSORGBACK
 10
0.0
 20
0.0
 30
0.0
  9
$PUCSBASE
  2

  9
$PUCSNAME
  2

  9
$PUCSORG
 10
0.0
 20
0.0
 30
0.0
  9
$PUCSXDIR
 10
1.0
 20
0.0
 30
0.0
  9
$PUCSYDIR
 10
0.0
 20
1.0
 30
0.0
  9
$PUCSORTHOREF
  2

  9
$PUCSORTHOVIEW
 70
0
  9
$PUCSORGTOP
 10
0.0
 20
0.0
 30
0.0
  9
$PUCSORGBOTTOM
 10
0.0
 20
0.0
 30
0.0
  9
$PUCSORGLEFT
 10
0.0
 20
0.0
 30
0.0
  9
$PUCSORGRIGHT
 10
0.0
 20
0.0
 30
0.0
  9
$PUCSORGFRONT
 10
0.0
 20
0.0
 30
0.0
  9
$PUCSORGBACK
 10
0.0
 20
0.0
 30
0.0
  9
$USERI1
 70
0
  9
$USERI2
 70
0
  9
$USERI3
 70
0
  9
$USERI4
 70
0
  9
$USERI5
 70
0
  9
$USERR1
 40
0.0
  9
$USERR2
 40
0.0
  9
$USERR3
 40
0.0
  9
$USERR4
 40
0.0
  9
$USERR5
 40
0.0
  9
$WORLDVIEW
 70
1
  9
$SHADEDGE
 70
3
  9
$SHADEDIF
 70
70
  9
$TILEMODE
 70
1
  9
$MAXACTVP
 70
64
  9
$PINSBASE
 10
0.0
 20
0.0
 30
0.0
  9
$PLIMCHECK
 70
0
  9
$PEXTMIN
 10
1e+20
 20
1e+20
 30
1e+20
  9
$PEXTMAX
 10
-1e+20
 20
-1e+20
 30
-1e+20
  9
$PLIMMIN
 10
0.0
 20
0.0
  9
$PLIMMAX
 10
420.0
 20
297.0
  9
$UNITMODE
 70
0
  9
$VISRETAIN
 70
1
  9
$PLINEGEN
 70
0
  9
$PSLTSCALE
 70
1
  9
$TREEDEPTH
 70
3020
  9
$CMLSTYLE
  2
Standard
  9
$CMLJUST
 70
0
  9
$CMLSCALE
 40
20.0
  9
$PROXYGRAPHICS
 70
1
  9
$MEASUREMENT
 70
1
  9
$CELWEIGHT
370
-1
  9
$ENDCAPS
280
0
  9
$JOINSTYLE
280
0
  9
$LWDISPLAY
290
0
  9
$INSUNITS
 70
6
  9
$HYPERLINKBASE
  1

  9
$STYLESHEET
  1

  9
$XEDIT
290
1
  9
$CEPSNTYPE
380
0
  9
$PSTYLEMODE
290
1
  9
$FINGERPRINTGUID
  2
{8CC501AD-484D-499E-9584-7C70923908A7}
  9
$VERSIONGUID
  2
{8A3D119B-E270-4FC1-A517-A3302B95EC69}
  9
$EXTNAMES
290
1
  9
$PSVPSCALE
 40
0.0
  9
$OLESTARTUP
290
0
  9
$SORTENTS
280
127
  9
$INDEXCTL
280
0
  9
$HIDETEXT
280
1
  9
$XCLIPFRAME
280
1
  9
$HALOGAP
280
0
  9
$OBSCOLOR
 70
257
  9
$OBSLTYPE
280
0
  9
$INTERSECTIONDISPLAY
280
0
  9
$INTERSECTIONCOLOR
 70
257
  9
$DIMASSOC
280
2
  9
$PROJECTNAME
  1

  9
$CAMERADISPLAY
290
0
  9
$LENSLENGTH
 40
50.0
  9
$CAMERAHEIGHT
 40
0.0
  9
$STEPSPERSEC
 40
24.0
  9
$STEPSIZE
 40
100.0
  9
$3DDWFPREC
 40
2.0
  9
$PSOLWIDTH
 40
0.005
  9
$PSOLHEIGHT
 40
0.08
  9
$LOFTANG1
 40
1.570796326795
  9
$LOFTANG2
 40
1.570796326795
  9
$LOFTMAG1
 40
0.0
  9
$LOFTMAG2
 40
0.0
  9
$LOFTPARAM
 70
7
  9
$LOFTNORMALS
280
1
  9
$LATITUDE
 40
37.795
  9
$LONGITUDE
 40
-122.394
  9
$NORTHDIRECTION
 40
0.0
  9
$TIMEZONE
 70
-8000
  9
$LIGHTGLYPHDISPLAY
280
1
  9
$TILEMODELIGHTSYNCH
280
1
  9
$CMATERIAL
347
20
  9
$SOLIDHIST
280
0
  9
$SHOWHIST
280
1
  9
$DWFFRAME
280
2
  9
$DGNFRAME
280
2
  9
$REALWORLDSCALE
290
1
  9
$INTERFERECOLOR
 62
256
  9
$CSHADOW
280
0
  9
$SHADOWPLANELOCATION
 40
0.0
  0
ENDSEC
  0
SECTION
  2
CLASSES
  0
CLASS
  1
ACDBDICTIONARYWDFLT
  2
AcDbDictionaryWithDefault
  3
ObjectDBX Classes
 90
0
 91
0
280
0
281
0
  0
CLASS
  1
SUN
  2
AcDbSun
  3
SCENEOE
 90
1153
 91
0
280
0
281
0
  0
CLASS
  1
VISUALSTYLE
  2
AcDbVisualStyle
  3
ObjectDBX Classes
 90
4095
 91
0
280
0
281
0
  0
CLASS
  1
MATERIAL
  2
AcDbMaterial
  3
ObjectDBX Classes
 90
1153
 91
0
280
0
281
0
  0
CLASS
  1
SCALE
  2
AcDbScale
  3
ObjectDBX Classes
 90
1153
 91
0
280
0
281
0
  0
CLASS
  1
TABLESTYLE
  2
AcDbTableStyle
  3
ObjectDBX Classes
 90
4095
 91
0
280
0
281
0
  0
CLASS
  1
MLEADERSTYLE
  2
AcDbMLeaderStyle
  3
ACDB_MLEADERSTYLE_CLASS
 90
4095
 91
0
280
0
281
0
  0
CLASS
  1
DICTIONARYVAR
  2
AcDbDictionaryVar
  3
ObjectDBX Classes
 90
0
 91
0
280
0
281
0
  0
CLASS
  1
CELLSTYLEMAP
  2
AcDbCellStyleMap
  3
ObjectDBX Classes
 90
1152
 91
0
280
0
281
0
  0
CLASS
  1
MENTALRAYRENDERSETTINGS
  2
AcDbMentalRayRenderSettings
  3
SCENEOE
 90
1024
 91
0
280
0
281
0
  0
CLASS
  1
ACDBDETAILVIEWSTYLE
  2
AcDbDetailViewStyle
  3
ObjectDBX Classes
 90
1025
 91
0
280
0
281
0
  0
CLASS
  1
ACDBSECTIONVIEWSTYLE
  2
AcDbSectionViewStyle
  3
ObjectDBX Classes
 90
1025
 91
0
280
0
281
0
  0
CLASS
  1
RASTERVARIABLES
  2
AcDbRasterVariables
  3
ISM
 90
0
 91
0
280
0
281
0
  0
CLASS
  1
ACDBPLACEHOLDER
  2
AcDbPlaceHolder
  3
ObjectDBX Classes
 90
0
 91
0
280
0
281
0
  0
CLASS
  1
LAYOUT
  2
AcDbLayout
  3
ObjectDBX Classes
 90
0
 91
0
280
0
281
0
  0
ENDSEC
  0
SECTION
  2
TABLES
  0
TABLE
  2
VPORT
  5
8
330
0
100
AcDbSymbolTable
 70
1
  0
VPORT
  5
23
330
8
100
AcDbSymbolTableRecord
100
AcDbViewportTableRecord
  2
*Active
 70
0
 10
0.0
 20
0.0
 11
1.0
 21
1.0
 12
0.0
 22
0.0
 13
0.0
 23
0.0
 14
0.5
 24
0.5
 15
0.5
 25
0.5
 16
0.0
 26
0.0
 36
1.0
 17
0.0
 27
0.0
 37
0.0
 40
1000.0
 41
1.34
 42
50.0
 43
0.0
 44
0.0
 50
0.0
 51
0.0
 71
0
 72
1000
 73
1
 74
3
 75
0
 76
0
 77
0
 78
0
281
0
 65
0
146
0.0
  0
ENDTAB
  0
TABLE
  2
LTYPE
  5
2
330
0
100
AcDbSymbolTable
 70
3
  0
LTYPE
  5
24
330
2
100
AcDbSymbolTableRecord
100
AcDbLinetypeTableRecord
  2
ByBlock
 70
0
  3

 72
65
 73
0
 40
0.0
  0
LTYPE
  5
25
330
2
100
AcDbSymbolTableRecord
100
AcDbLinetypeTableRecord
  2
ByLayer
 70
0
  3

 72
65
 73
0
 40
0.0
  0
LTYPE
  5
26
330
2
100
AcDbSymbolTableRecord
100
AcDbLinetypeTableRecord
  2
Continuous
 70
0
  3

 72
65
 73
0
 40
0.0
  0
ENDTAB
  0
TABLE
  2
LAYER
  5
1
330
0
100
AcDbSymbolTable
 70
2
  0
LAYER
  5
27
330
1
100
AcDbSymbolTableRecord
100
AcDbLayerTableRecord
  2
0
 70
0
 62
7
  6
Continuous
370
-3
390
13
347
21
  0
LAYER
  5
28
330
1
100
AcDbSymbolTableRecord
100
AcDbLayerTableRecord
  2
Defpoints
 70
0
 62
7
  6
Continuous
290
0
370
-3
390
13
347
21
  0
ENDTAB
  0
TABLE
  2
STYLE
  5
5
330
0
100
AcDbSymbolTable
 70
1
  0
STYLE
  5
29
330
5
100
AcDbSymbolTableRecord
100
AcDbTextStyleTableRecord
  2
Standard
 70
0
 40
0.0
 41
1.0
 50
0.0
 71
0
 42
2.5
  3
txt
  4

  0
ENDTAB
  0
TABLE
  2
VIEW
  5
7
330
0
100
AcDbSymbolTable
 70
0
  0
ENDTAB
  0
TABLE
  2
UCS
  5
6
330
0
100
AcDbSymbolTable
 70
0
  0
ENDTAB
  0
TABLE
  2
APPID
  5
3
330
0
100
AcDbSymbolTable
 70
3
  0
APPID
  5
2A
330
3
100
AcDbSymbolTableRecord
100
AcDbRegAppTableRecord
  2
ACAD
 70
0
  0
APPID
  5
66
330
3
100
AcDbSymbolTableRecord
100
AcDbRegAppTableRecord
  2
HATCHBACKGROUNDCOLOR
 70
0
  0
APPID
  5
67
330
3
100
AcDbSymbolTableRecord
100
AcDbRegAppTableRecord
  2
EZDXF
 70
0
  0
ENDTAB
  0
TABLE
  2
DIMSTYLE
  5
4
330
0
100
AcDbSymbolTable
 70
1
100
AcDbDimStyleTable
  0
DIMSTYLE
105
2B
330
4
100
AcDbSymbolTableRecord
100
AcDbDimStyleTableRecord
  2
Standard
 70
0
 40
1.0
 41
2.5
 42
0.625
 43
3.75
 44
1.25
 45
0.0
 46
0.0
 47
0.0
 48
0.0
 49
2.5
140
2.5
141
2.5
142
0.0
143
0.03937007874
144
1.0
145
0.0
146
1.0
147
0.625
148
0.0
 69
0
 70
0
 71
0
 72
0
 73
0
 74
0
 75
0
 76
0
 77
1
 78
8
 79
3
170
0
171
3
172
1
173
0
174
0
175
0
176
0
177
0
178
0
179
2
271
2
272
2
273
2
274
3
275
0
276
0
277
2
278
44
279
0
280
0
281
0
282
0
283
0
284
8
285
0
286
0
288
0
289
3
290
0
371
-2
372
-2
  0
ENDTAB
  0
TABLE
  2
BLOCK_RECORD
  5
9
330
0
100
AcDbSymbolTable
 70
2
  0
BLOCK_RECORD
  5
17
330
9
100
AcDbSymbolTableRecord
100
AcDbBlockTableRecord
  2
*Model_Space
340
1A
 70
0
280
1
281
0
  0
BLOCK_RECORD
  5
1B
330
9
100
AcDbSymbolTableRecord
100
AcDbBlockTableRecord
  2
*Paper_Space
340
1E
 70
0
280
1
281
0
  0
ENDTAB
  0
ENDSEC
  0
SECTION
  2
BLOCKS
  0
BLOCK
  5
18
330
17
100
AcDbEntity
  8
0
100
AcDbBlockBegin
  2
*Model_Space
 70
0
 10
0.0
 20
0.0
 30
0.0
  3
*Model_Space
  1

  0
ENDBLK
  5
19
330
17
100
AcDbEntity
  8
0
100
AcDbBlockEnd
  0
BLOCK
  5
1C
330
1B
100
AcDbEntity
  8
0
100
AcDbBlockBegin
  2
*Paper_Space
 70
0
 10
0.0
 20
0.0
 30
0.0
  3
*Paper_Space
  1

  0
ENDBLK
  5
1D
330
1B
100
AcDbEntity
  8
0
100
AcDbBlockEnd
  0
ENDSEC
  0
SECTION
  2
ENTITIES
  0
LWPOLYLINE
  5
2F
330
17
100
AcDbEntity
  8
0
100
AcDbPolyline
 90
8
 70
0
 10
0.0
 20
0.0
 10
0.0
 20
511.0
 10
0.0
 20
511.0
 10
582.0
 20
511.0
 10
582.0
 20
511.0
 10
582.0
 20
0.0
 10
582.0
 20
0.0
 10
0.0
 20
0.0
  0
LWPOLYLINE
  5
30
330
17
100
AcDbEntity
  8
0
100
AcDbPolyline
 90
24
 70
0
 10
409.0
 20
103.0
 10
410.0
 20
102.0
 10
410.0
 20
102.0
 10
414.0
 20
102.0
 10
414.0
 20
102.0
 10
415.0
 20
103.0
 10
415.0
 20
103.0
 10
415.0
 20
110.0
 10
415.0
 20
110.0
 10
413.0
 20
112.0
 10
413.0
 20
112.0
 10
410.0
 20
112.0
 10
410.0
 20
112.0
 10
407.0
 20
109.0
 10
407.0
 20
109.0
 10
407.0
 20
108.0
 10
407.0
 20
108.0
 10
406.0
 20
107.0
 10
406.0
 20
107.0
 10
406.0
 20
104.0
 10
406.0
 20
104.0
 10
407.0
 20
103.0
 10
407.0
 20
103.0
 10
409.0
 20
103.0
  0
LWPOLYLINE
  5
31
330
17
100
AcDbEntity
  8
0
100
AcDbPolyline
 90
60
 70
0
 10
315.0
 20
89.0
 10
319.0
 20
89.0
 10
319.0
 20
89.0
 10
320.0
 20
90.0
 10
320.0
 20
90.0
 10
323.0
 20
90.0
 10
323.0
 20
90.0
 10
324.0
 20
91.0
 10
324.0
 20
91.0
 10
324.0
 20
93.0
 10
324.0
 20
93.0
 10
321.0
 20
96.0
 10
321.0
 20
96.0
 10
321.0
 20
97.0
 10
321.0
 20
97.0
 10
310.0
 20
108.0
 10
310.0
 20
108.0
 10
309.0
 20
108.0
 10
309.0
 20
108.0
 10
307.0
 20
110.0
 10
307.0
 20
110.0
 10
306.0
 20
110.0
 10
306.0
 20
110.0
 10
304.0
 20
112.0
 10
304.0
 20
112.0
 10
303.0
 20
112.0
 10
303.0
 20
112.0
 10
302.0
 20
113.0
 10
302.0
 20
113.0
 10
299.0
 20
113.0
 10
299.0
 20
113.0
 10
298.0
 20
112.0
 10
298.0
 20
112.0
 10
298.0
 20
110.0
 10
298.0
 20
110.0
 10
299.0
 20
109.0
 10
299.0
 20
109.0
 10
300.0
 20
109.0
 10
300.0
 20
109.0
 10
307.0
 20
102.0
 10
307.0
 20
102.0
 10
307.0
 20
101.0
 10
307.0
 20
101.0
 10
309.0
 20
99.0
 10
309.0
 20
99.0
 10
309.0
 20
98.0
 10
309.0
 20
98.0
 10
310.0
 20
97.0
 10
310.0
 20
97.0
 10
310.0
 20
96.0
 10
310.0
 20
96.0
 10
311.0
 20
95.0
 10
311.0
 20
95.0
 10
311.0
 20
94.0
 10
311.0
 20
94.0
 10
312.0
 20
93.0
 10
312.0
 20
93.0
 10
312.0
 20
92.0
 10
312.0
 20
92.0
 10
315.0
 20
89.0
  0
LWPOLYLINE
  5
32
330
17
100
AcDbEntity
  8
0
100
AcDbPolyline
 90
28
 70
0
 10
323.0
 20
78.0
 10
326.0
 20
78.0
 10
326.0
 20
78.0
 10
327.0
 20
79.0
 10
327.0
 20
79.0
 10
328.0
 20
79.0
 10
328.0
 20
79.0
 10
332.0
 20
83.0
 10
332.0
 20
83.0
 10
332.0
 20
85.0
 10
332.0
 20
85.0
 10
331.0
 20
86.0
 10
331.0
 20
86.0
 10
330.0
 20
86.0
 10
330.0
 20
86.0
 10
329.0
 20
87.0
 10
329.0
 20
87.0
 10
324.0
 20
87.0
 10
324.0
 20
87.0
 10
323.0
 20
86.0
 10
323.0
 20
86.0
 10
320.0
 20
86.0
 10
320.0
 20
86.0
 10
319.0
 20
85.0
 10
319.0
 20
85.0
 10
319.0
 20
82.0
 10
319.0
 20
82.0
 10
323.0
 20
78.0
  0
LWPOLYLINE
  5
33
330
17
100
AcDbEntity
  8
0
100
AcDbPolyline
 90
24
 70
0
 10
333.0
 20
70.0
 10
335.0
 20
70.0
 10
335.0
 20
70.0
 10
342.0
 20
77.0
 10
342.0
 20
77.0
 10
342.0
 20
79.0
 10
342.0
 20
79.0
 10
340.0
 20
81.0
 10
340.0
 20
81.0
 10
336.0
 20
81.0
 10
336.0
 20
81.0
 10
334.0
 20
79.0
 10
334.0
 20
79.0
 10
333.0
 20
79.0
 10
333.0
 20
79.0
 10
329.0
 20
75.0
 10
329.0
 20
75.0
 10
329.0
 20
73.0
 10
329.0
 20
73.0
 10
330.0
 20
72.0
 10
330.0
 20
72.0
 10
331.0
 20
72.0
 10
331.0
 20
72.0
 10
333.0
 20
70.0
  0
LWPOLYLINE
  5
34
330
17
100
AcDbEntity
  8
0
100
AcDbPolyline
 90
40
 70
0
 10
354.0
 20
63.0
 10
361.0
 20
63.0
 10
361.0
 20
63.0
 10
362.0
 20
64.0
 10
362.0
 20
64.0
 10
362.0
 20
66.0
 10
362.0
 20
66.0
 10
360.0
 20
68.0
 10
360.0
 20
68.0
 10
360.0
 20
69.0
 10
360.0
 20
69.0
 10
357.0
 20
72.0
 10
357.0
 20
72.0
 10
357.0
 20
73.0
 10
357.0
 20
73.0
 10
356.0
 20
74.0
 10
356.0
 20
74.0
 10
356.0
 20
75.0
 10
356.0
 20
75.0
 10
353.0
 20
78.0
 10
353.0
 20
78.0
 10
351.0
 20
78.0
 10
351.0
 20
78.0
 10
349.0
 20
76.0
 10
349.0
 20
76.0
 10
349.0
 20
74.0
 10
349.0
 20
74.0
 10
350.0
 20
73.0
 10
350.0
 20
73.0
 10
350.0
 20
72.0
 10
350.0
 20
72.0
 10
351.0
 20
71.0
 10
351.0
 20
71.0
 10
351.0
 20
70.0
 10
351.0
 20
70.0
 10
352.0
 20
69.0
 10
352.0
 20
69.0
 10
352.0
 20
65.0
 10
352.0
 20
65.0
 10
354.0
 20
63.0
  0
LWPOLYLINE
  5
35
330
17
100
AcDbEntity
  8
0
100
AcDbPolyline
 90
1590
 70
0
 10
392.0
 20
18.0
 10
396.0
 20
18.0
 10
396.0
 20
18.0
 10
398.0
 20
20.0
 10
398.0
 20
20.0
 10
398.0
 20
21.0
 10
398.0
 20
21.0
 10
404.0
 20
27.0
 10
404.0
 20
27.0
 10
404.0
 20
28.0
 10
404.0
 20
28.0
 10
406.0
 20
30.0
 10
406.0
 20
30.0
 10
406.0
 20
31.0
 10
406.0
 20
31.0
 10
408.0
 20
33.0
 10
408.0
 20
33.0
 10
408.0
 20
34.0
 10
408.0
 20
34.0
 10
410.0
 20
36.0
 10
410.0
 20
36.0
 10
410.0
 20
37.0
 10
410.0
 20
37.0
 10
411.0
 20
38.0
 10
411.0
 20
38.0
 10
411.0
 20
39.0
 10
411.0
 20
39.0
 10
412.0
 20
40.0
 10
412.0
 20
40.0
 10
412.0
 20
41.0
 10
412.0
 20
41.0
 10
414.0
 20
43.0
 10
414.0
 20
43.0
 10
414.0
 20
44.0
 10
414.0
 20
44.0
 10
415.0
 20
45.0
 10
415.0
 20
45.0
 10
415.0
 20
47.0
 10
415.0
 20
47.0
 10
416.0
 20
48.0
 10
416.0
 20
48.0
 10
416.0
 20
49.0
 10
416.0
 20
49.0
 10
417.0
 20
50.0
 10
417.0
 20
50.0
 10
417.0
 20
52.0
 10
417.0
 20
52.0
 10
418.0
 20
53.0
 10
418.0
 20
53.0
 10
418.0
 20
54.0
 10
418.0
 20
54.0
 10
419.0
 20
55.0
 10
419.0
 20
55.0
 10
419.0
 20
57.0
 10
419.0
 20
57.0
 10
420.0
 20
58.0
 10
420.0
 20
58.0
 10
420.0
 20
60.0
 10
420.0
 20
60.0
 10
421.0
 20
61.0
 10
421.0
 20
61.0
 10
421.0
 20
65.0
 10
421.0
 20
65.0
 10
422.0
 20
66.0
 10
422.0
 20
66.0
 10
422.0
 20
69.0
 10
422.0
 20
69.0
 10
423.0
 20
70.0
 10
423.0
 20
70.0
 10
423.0
 20
77.0
 10
423.0
 20
77.0
 10
424.0
 20
78.0
 10
424.0
 20
78.0
 10
424.0
 20
80.0
 10
424.0
 20
80.0
 10
425.0
 20
81.0
 10
425.0
 20
81.0
 10
425.0
 20
82.0
 10
425.0
 20
82.0
 10
427.0
 20
84.0
 10
427.0
 20
84.0
 10
427.0
 20
85.0
 10
427.0
 20
85.0
 10
428.0
 20
86.0
 10
428.0
 20
86.0
 10
428.0
 20
87.0
 10
428.0
 20
87.0
 10
429.0
 20
88.0
 10
429.0
 20
88.0
 10
429.0
 20
89.0
 10
429.0
 20
89.0
 10
430.0
 20
90.0
 10
430.0
 20
90.0
 10
430.0
 20
92.0
 10
430.0
 20
92.0
 10
431.0
 20
93.0
 10
431.0
 20
93.0
 10
431.0
 20
94.0
 10
431.0
 20
94.0
 10
432.0
 20
95.0
 10
432.0
 20
95.0
 10
432.0
 20
96.0
 10
432.0
 20
96.0
 10
433.0
 20
97.0
 10
433.0
 20
97.0
 10
433.0
 20
99.0
 10
433.0
 20
99.0
 10
434.0
 20
100.0
 10
434.0
 20
100.0
 10
434.0
 20
102.0
 10
434.0
 20
102.0
 10
435.0
 20
103.0
 10
435.0
 20
103.0
 10
435.0
 20
104.0
 10
435.0
 20
104.0
 10
436.0
 20
105.0
 10
436.0
 20
105.0
 10
436.0
 20
107.0
 10
436.0
 20
107.0
 10
437.0
 20
108.0
 10
437.0
 20
108.0
 10
437.0
 20
111.0
 10
437.0
 20
111.0
 10
438.0
 20
112.0
 10
438.0
 20
112.0
 10
438.0
 20
114.0
 10
438.0
 20
114.0
 10
439.0
 20
115.0
 10
439.0
 20
115.0
 10
439.0
 20
117.0
 10
439.0
 20
117.0
 10
440.0
 20
118.0
 10
440.0
 20
118.0
 10
440.0
 20
121.0
 10
440.0
 20
121.0
 10
441.0
 20
122.0
 10
441.0
 20
122.0
 10
441.0
 20
125.0
 10
441.0
 20
125.0
 10
442.0
 20
126.0
 10
442.0
 20
126.0
 10
442.0
 20
130.0
 10
442.0
 20
130.0
 10
443.0
 20
131.0
 10
443.0
 20
131.0
 10
443.0
 20
135.0
 10
443.0
 20
135.0
 10
444.0
 20
136.0
 10
444.0
 20
136.0
 10
444.0
 20
140.0
 10
444.0
 20
140.0
 10
445.0
 20
141.0
 10
445.0
 20
141.0
 10
445.0
 20
146.0
 10
445.0
 20
146.0
 10
446.0
 20
147.0
 10
446.0
 20
147.0
 10
446.0
 20
153.0
 10
446.0
 20
153.0
 10
447.0
 20
154.0
 10
447.0
 20
154.0
 10
447.0
 20
159.0
 10
447.0
 20
159.0
 10
448.0
 20
160.0
 10
448.0
 20
160.0
 10
448.0
 20
167.0
 10
448.0
 20
167.0
 10
449.0
 20
168.0
 10
449.0
 20
168.0
 10
449.0
 20
178.0
 10
449.0
 20
178.0
 10
450.0
 20
179.0
 10
450.0
 20
179.0
 10
450.0
 20
203.0
 10
450.0
 20
203.0
 10
449.0
 20
204.0
 10
449.0
 20
204.0
 10
449.0
 20
213.0
 10
449.0
 20
213.0
 10
448.0
 20
214.0
 10
448.0
 20
214.0
 10
448.0
 20
219.0
 10
448.0
 20
219.0
 10
447.0
 20
220.0
 10
447.0
 20
220.0
 10
447.0
 20
223.0
 10
447.0
 20
223.0
 10
446.0
 20
224.0
 10
446.0
 20
224.0
 10
446.0
 20
227.0
 10
446.0
 20
227.0
 10
445.0
 20
228.0
 10
445.0
 20
228.0
 10
445.0
 20
231.0
 10
445.0
 20
231.0
 10
444.0
 20
232.0
 10
444.0
 20
232.0
 10
444.0
 20
234.0
 10
444.0
 20
234.0
 10
443.0
 20
235.0
 10
443.0
 20
235.0
 10
443.0
 20
237.0
 10
443.0
 20
237.0
 10
442.0
 20
238.0
 10
442.0
 20
238.0
 10
442.0
 20
240.0
 10
442.0
 20
240.0
 10
441.0
 20
241.0
 10
441.0
 20
241.0
 10
441.0
 20
242.0
 10
441.0
 20
242.0
 10
440.0
 20
243.0
 10
440.0
 20
243.0
 10
440.0
 20
244.0
 10
440.0
 20
244.0
 10
439.0
 20
245.0
 10
439.0
 20
245.0
 10
439.0
 20
246.0
 10
439.0
 20
246.0
 10
438.0
 20
247.0
 10
438.0
 20
247.0
 10
438.0
 20
249.0
 10
438.0
 20
249.0
 10
437.0
 20
250.0
 10
437.0
 20
250.0
 10
437.0
 20
251.0
 10
437.0
 20
251.0
 10
436.0
 20
252.0
 10
436.0
 20
252.0
 10
436.0
 20
253.0
 10
436.0
 20
253.0
 10
435.0
 20
254.0
 10
435.0
 20
254.0
 10
435.0
 20
255.0
 10
435.0
 20
255.0
 10
433.0
 20
257.0
 10
433.0
 20
257.0
 10
433.0
 20
258.0
 10
433.0
 20
258.0
 10
432.0
 20
259.0
 10
432.0
 20
259.0
 10
432.0
 20
260.0
 10
432.0
 20
260.0
 10
431.0
 20
261.0
 10
431.0
 20
261.0
 10
431.0
 20
262.0
 10
431.0
 20
262.0
 10
429.0
 20
264.0
 10
429.0
 20
264.0
 10
429.0
 20
265.0
 10
429.0
 20
265.0
 10
427.0
 20
267.0
 10
427.0
 20
267.0
 10
427.0
 20
268.0
 10
427.0
 20
268.0
 10
425.0
 20
270.0
 10
425.0
 20
270.0
 10
425.0
 20
271.0
 10
425.0
 20
271.0
 10
421.0
 20
275.0
 10
421.0
 20
275.0
 10
421.0
 20
276.0
 10
421.0
 20
276.0
 10
418.0
 20
279.0
 10
418.0
 20
279.0
 10
418.0
 20
280.0
 10
418.0
 20
280.0
 10
417.0
 20
281.0
 10
417.0
 20
281.0
 10
417.0
 20
282.0
 10
417.0
 20
282.0
 10
416.0
 20
283.0
 10
416.0
 20
283.0
 10
416.0
 20
285.0
 10
416.0
 20
285.0
 10
415.0
 20
286.0
 10
415.0
 20
286.0
 10
415.0
 20
288.0
 10
415.0
 20
288.0
 10
414.0
 20
289.0
 10
414.0
 20
289.0
 10
414.0
 20
292.0
 10
414.0
 20
292.0
 10
413.0
 20
293.0
 10
413.0
 20
293.0
 10
413.0
 20
296.0
 10
413.0
 20
296.0
 10
412.0
 20
297.0
 10
412.0
 20
297.0
 10
412.0
 20
299.0
 10
412.0
 20
299.0
 10
411.0
 20
300.0
 10
411.0
 20
300.0
 10
411.0
 20
303.0
 10
411.0
 20
303.0
 10
410.0
 20
304.0
 10
410.0
 20
304.0
 10
410.0
 20
309.0
 10
410.0
 20
309.0
 10
409.0
 20
310.0
 10
409.0
 20
310.0
 10
409.0
 20
315.0
 10
409.0
 20
315.0
 10
408.0
 20
316.0
 10
408.0
 20
316.0
 10
408.0
 20
323.0
 10
408.0
 20
323.0
 10
407.0
 20
324.0
 10
407.0
 20
324.0
 10
407.0
 20
352.0
 10
407.0
 20
352.0
 10
408.0
 20
353.0
 10
408.0
 20
353.0
 10
408.0
 20
359.0
 10
408.0
 20
359.0
 10
409.0
 20
360.0
 10
409.0
 20
360.0
 10
409.0
 20
365.0
 10
409.0
 20
365.0
 10
410.0
 20
366.0
 10
410.0
 20
366.0
 10
410.0
 20
368.0
 10
410.0
 20
368.0
 10
411.0
 20
369.0
 10
411.0
 20
369.0
 10
411.0
 20
370.0
 10
411.0
 20
370.0
 10
412.0
 20
371.0
 10
412.0
 20
371.0
 10
413.0
 20
371.0
 10
413.0
 20
371.0
 10
416.0
 20
374.0
 10
416.0
 20
374.0
 10
417.0
 20
374.0
 10
417.0
 20
374.0
 10
420.0
 20
377.0
 10
420.0
 20
377.0
 10
421.0
 20
377.0
 10
421.0
 20
377.0
 10
433.0
 20
389.0
 10
433.0
 20
389.0
 10
433.0
 20
390.0
 10
433.0
 20
390.0
 10
437.0
 20
394.0
 10
437.0
 20
394.0
 10
437.0
 20
395.0
 10
437.0
 20
395.0
 10
440.0
 20
398.0
 10
440.0
 20
398.0
 10
440.0
 20
399.0
 10
440.0
 20
399.0
 10
442.0
 20
401.0
 10
442.0
 20
401.0
 10
442.0
 20
402.0
 10
442.0
 20
402.0
 10
443.0
 20
403.0
 10
443.0
 20
403.0
 10
443.0
 20
404.0
 10
443.0
 20
404.0
 10
445.0
 20
406.0
 10
445.0
 20
406.0
 10
445.0
 20
407.0
 10
445.0
 20
407.0
 10
446.0
 20
408.0
 10
446.0
 20
408.0
 10
446.0
 20
409.0
 10
446.0
 20
409.0
 10
447.0
 20
410.0
 10
447.0
 20
410.0
 10
447.0
 20
412.0
 10
447.0
 20
412.0
 10
448.0
 20
413.0
 10
448.0
 20
413.0
 10
448.0
 20
414.0
 10
448.0
 20
414.0
 10
449.0
 20
415.0
 10
449.0
 20
415.0
 10
449.0
 20
417.0
 10
449.0
 20
417.0
 10
450.0
 20
418.0
 10
450.0
 20
418.0
 10
450.0
 20
422.0
 10
450.0
 20
422.0
 10
449.0
 20
423.0
 10
449.0
 20
423.0
 10
427.0
 20
423.0
 10
427.0
 20
423.0
 10
426.0
 20
424.0
 10
426.0
 20
424.0
 10
420.0
 20
424.0
 10
420.0
 20
424.0
 10
419.0
 20
425.0
 10
419.0
 20
425.0
 10
416.0
 20
425.0
 10
416.0
 20
425.0
 10
415.0
 20
426.0
 10
415.0
 20
426.0
 10
413.0
 20
426.0
 10
413.0
 20
426.0
 10
412.0
 20
427.0
 10
412.0
 20
427.0
 10
409.0
 20
427.0
 10
409.0
 20
427.0
 10
408.0
 20
428.0
 10
408.0
 20
428.0
 10
406.0
 20
428.0
 10
406.0
 20
428.0
 10
405.0
 20
429.0
 10
405.0
 20
429.0
 10
403.0
 20
429.0
 10
403.0
 20
429.0
 10
402.0
 20
430.0
 10
402.0
 20
430.0
 10
401.0
 20
430.0
 10
401.0
 20
430.0
 10
400.0
 20
431.0
 10
400.0
 20
431.0
 10
398.0
 20
431.0
 10
398.0
 20
431.0
 10
397.0
 20
432.0
 10
397.0
 20
432.0
 10
395.0
 20
432.0
 10
395.0
 20
432.0
 10
394.0
 20
433.0
 10
394.0
 20
433.0
 10
393.0
 20
433.0
 10
393.0
 20
433.0
 10
392.0
 20
434.0
 10
392.0
 20
434.0
 10
390.0
 20
434.0
 10
390.0
 20
434.0
 10
389.0
 20
435.0
 10
389.0
 20
435.0
 10
388.0
 20
435.0
 10
388.0
 20
435.0
 10
387.0
 20
436.0
 10
387.0
 20
436.0
 10
385.0
 20
436.0
 10
385.0
 20
436.0
 10
384.0
 20
437.0
 10
384.0
 20
437.0
 10
383.0
 20
437.0
 10
383.0
 20
437.0
 10
382.0
 20
438.0
 10
382.0
 20
438.0
 10
381.0
 20
438.0
 10
381.0
 20
438.0
 10
380.0
 20
439.0
 10
380.0
 20
439.0
 10
378.0
 20
439.0
 10
378.0
 20
439.0
 10
377.0
 20
440.0
 10
377.0
 20
440.0
 10
375.0
 20
440.0
 10
375.0
 20
440.0
 10
374.0
 20
441.0
 10
374.0
 20
441.0
 10
373.0
 20
441.0
 10
373.0
 20
441.0
 10
372.0
 20
442.0
 10
372.0
 20
442.0
 10
370.0
 20
442.0
 10
370.0
 20
442.0
 10
369.0
 20
443.0
 10
369.0
 20
443.0
 10
367.0
 20
443.0
 10
367.0
 20
443.0
 10
366.0
 20
444.0
 10
366.0
 20
444.0
 10
364.0
 20
444.0
 10
364.0
 20
444.0
 10
363.0
 20
445.0
 10
363.0
 20
445.0
 10
361.0
 20
445.0
 10
361.0
 20
445.0
 10
360.0
 20
446.0
 10
360.0
 20
446.0
 10
358.0
 20
446.0
 10
358.0
 20
446.0
 10
357.0
 20
447.0
 10
357.0
 20
447.0
 10
355.0
 20
447.0
 10
355.0
 20
447.0
 10
354.0
 20
448.0
 10
354.0
 20
448.0
 10
351.0
 20
448.0
 10
351.0
 20
448.0
 10
350.0
 20
449.0
 10
350.0
 20
449.0
 10
347.0
 20
449.0
 10
347.0
 20
449.0
 10
346.0
 20
450.0
 10
346.0
 20
450.0
 10
344.0
 20
450.0
 10
344.0
 20
450.0
 10
343.0
 20
451.0
 10
343.0
 20
451.0
 10
339.0
 20
451.0
 10
339.0
 20
451.0
 10
338.0
 20
452.0
 10
338.0
 20
452.0
 10
334.0
 20
452.0
 10
334.0
 20
452.0
 10
333.0
 20
453.0
 10
333.0
 20
453.0
 10
328.0
 20
453.0
 10
328.0
 20
453.0
 10
327.0
 20
454.0
 10
327.0
 20
454.0
 10
322.0
 20
454.0
 10
322.0
 20
454.0
 10
321.0
 20
455.0
 10
321.0
 20
455.0
 10
313.0
 20
455.0
 10
313.0
 20
455.0
 10
312.0
 20
456.0
 10
312.0
 20
456.0
 10
295.0
 20
456.0
 10
295.0
 20
456.0
 10
294.0
 20
457.0
 10
294.0
 20
457.0
 10
280.0
 20
457.0
 10
280.0
 20
457.0
 10
279.0
 20
456.0
 10
279.0
 20
456.0
 10
262.0
 20
456.0
 10
262.0
 20
456.0
 10
261.0
 20
455.0
 10
261.0
 20
455.0
 10
253.0
 20
455.0
 10
253.0
 20
455.0
 10
252.0
 20
454.0
 10
252.0
 20
454.0
 10
247.0
 20
454.0
 10
247.0
 20
454.0
 10
246.0
 20
453.0
 10
246.0
 20
453.0
 10
241.0
 20
453.0
 10
241.0
 20
453.0
 10
240.0
 20
452.0
 10
240.0
 20
452.0
 10
235.0
 20
452.0
 10
235.0
 20
452.0
 10
234.0
 20
451.0
 10
234.0
 20
451.0
 10
230.0
 20
451.0
 10
230.0
 20
451.0
 10
229.0
 20
450.0
 10
229.0
 20
450.0
 10
226.0
 20
450.0
 10
226.0
 20
450.0
 10
225.0
 20
449.0
 10
225.0
 20
449.0
 10
222.0
 20
449.0
 10
222.0
 20
449.0
 10
221.0
 20
448.0
 10
221.0
 20
448.0
 10
218.0
 20
448.0
 10
218.0
 20
448.0
 10
217.0
 20
447.0
 10
217.0
 20
447.0
 10
215.0
 20
447.0
 10
215.0
 20
447.0
 10
214.0
 20
446.0
 10
214.0
 20
446.0
 10
212.0
 20
446.0
 10
212.0
 20
446.0
 10
211.0
 20
445.0
 10
211.0
 20
445.0
 10
209.0
 20
445.0
 10
209.0
 20
445.0
 10
208.0
 20
444.0
 10
208.0
 20
444.0
 10
206.0
 20
444.0
 10
206.0
 20
444.0
 10
205.0
 20
443.0
 10
205.0
 20
443.0
 10
203.0
 20
443.0
 10
203.0
 20
443.0
 10
202.0
 20
442.0
 10
202.0
 20
442.0
 10
201.0
 20
442.0
 10
201.0
 20
442.0
 10
200.0
 20
441.0
 10
200.0
 20
441.0
 10
198.0
 20
441.0
 10
198.0
 20
441.0
 10
197.0
 20
440.0
 10
197.0
 20
440.0
 10
196.0
 20
440.0
 10
196.0
 20
440.0
 10
195.0
 20
439.0
 10
195.0
 20
439.0
 10
193.0
 20
439.0
 10
193.0
 20
439.0
 10
192.0
 20
438.0
 10
192.0
 20
438.0
 10
191.0
 20
438.0
 10
191.0
 20
438.0
 10
190.0
 20
437.0
 10
190.0
 20
437.0
 10
189.0
 20
437.0
 10
189.0
 20
437.0
 10
188.0
 20
436.0
 10
188.0
 20
436.0
 10
187.0
 20
436.0
 10
187.0
 20
436.0
 10
186.0
 20
435.0
 10
186.0
 20
435.0
 10
185.0
 20
435.0
 10
185.0
 20
435.0
 10
184.0
 20
434.0
 10
184.0
 20
434.0
 10
183.0
 20
434.0
 10
183.0
 20
434.0
 10
182.0
 20
433.0
 10
182.0
 20
433.0
 10
181.0
 20
433.0
 10
181.0
 20
433.0
 10
179.0
 20
431.0
 10
179.0
 20
431.0
 10
178.0
 20
431.0
 10
178.0
 20
431.0
 10
177.0
 20
430.0
 10
177.0
 20
430.0
 10
176.0
 20
430.0
 10
176.0
 20
430.0
 10
174.0
 20
428.0
 10
174.0
 20
428.0
 10
173.0
 20
428.0
 10
173.0
 20
428.0
 10
171.0
 20
426.0
 10
171.0
 20
426.0
 10
170.0
 20
426.0
 10
170.0
 20
426.0
 10
168.0
 20
424.0
 10
168.0
 20
424.0
 10
167.0
 20
424.0
 10
167.0
 20
424.0
 10
161.0
 20
418.0
 10
161.0
 20
418.0
 10
160.0
 20
418.0
 10
160.0
 20
418.0
 10
155.0
 20
413.0
 10
155.0
 20
413.0
 10
155.0
 20
412.0
 10
155.0
 20
412.0
 10
150.0
 20
407.0
 10
150.0
 20
407.0
 10
150.0
 20
406.0
 10
150.0
 20
406.0
 10
147.0
 20
403.0
 10
147.0
 20
403.0
 10
147.0
 20
402.0
 10
147.0
 20
402.0
 10
145.0
 20
400.0
 10
145.0
 20
400.0
 10
145.0
 20
399.0
 10
145.0
 20
399.0
 10
144.0
 20
398.0
 10
144.0
 20
398.0
 10
144.0
 20
397.0
 10
144.0
 20
397.0
 10
143.0
 20
396.0
 10
143.0
 20
396.0
 10
143.0
 20
395.0
 10
143.0
 20
395.0
 10
142.0
 20
394.0
 10
142.0
 20
394.0
 10
142.0
 20
393.0
 10
142.0
 20
393.0
 10
141.0
 20
392.0
 10
141.0
 20
392.0
 10
141.0
 20
391.0
 10
141.0
 20
391.0
 10
140.0
 20
390.0
 10
140.0
 20
390.0
 10
140.0
 20
389.0
 10
140.0
 20
389.0
 10
139.0
 20
388.0
 10
139.0
 20
388.0
 10
139.0
 20
386.0
 10
139.0
 20
386.0
 10
138.0
 20
385.0
 10
138.0
 20
385.0
 10
138.0
 20
384.0
 10
138.0
 20
384.0
 10
137.0
 20
383.0
 10
137.0
 20
383.0
 10
137.0
 20
381.0
 10
137.0
 20
381.0
 10
136.0
 20
380.0
 10
136.0
 20
380.0
 10
136.0
 20
376.0
 10
136.0
 20
376.0
 10
135.0
 20
375.0
 10
135.0
 20
375.0
 10
135.0
 20
370.0
 10
135.0
 20
370.0
 10
134.0
 20
369.0
 10
134.0
 20
369.0
 10
134.0
 20
353.0
 10
134.0
 20
353.0
 10
135.0
 20
352.0
 10
135.0
 20
352.0
 10
135.0
 20
347.0
 10
135.0
 20
347.0
 10
136.0
 20
346.0
 10
136.0
 20
346.0
 10
136.0
 20
343.0
 10
136.0
 20
343.0
 10
137.0
 20
342.0
 10
137.0
 20
342.0
 10
137.0
 20
340.0
 10
137.0
 20
340.0
 10
138.0
 20
339.0
 10
138.0
 20
339.0
 10
138.0
 20
337.0
 10
138.0
 20
337.0
 10
139.0
 20
336.0
 10
139.0
 20
336.0
 10
139.0
 20
335.0
 10
139.0
 20
335.0
 10
140.0
 20
334.0
 10
140.0
 20
334.0
 10
140.0
 20
333.0
 10
140.0
 20
333.0
 10
141.0
 20
332.0
 10
141.0
 20
332.0
 10
141.0
 20
331.0
 10
141.0
 20
331.0
 10
142.0
 20
330.0
 10
142.0
 20
330.0
 10
142.0
 20
329.0
 10
142.0
 20
329.0
 10
143.0
 20
328.0
 10
143.0
 20
328.0
 10
143.0
 20
327.0
 10
143.0
 20
327.0
 10
145.0
 20
325.0
 10
145.0
 20
325.0
 10
145.0
 20
324.0
 10
145.0
 20
324.0
 10
148.0
 20
321.0
 10
148.0
 20
321.0
 10
148.0
 20
320.0
 10
148.0
 20
320.0
 10
160.0
 20
308.0
 10
160.0
 20
308.0
 10
161.0
 20
308.0
 10
161.0
 20
308.0
 10
164.0
 20
305.0
 10
164.0
 20
305.0
 10
165.0
 20
305.0
 10
165.0
 20
305.0
 10
166.0
 20
304.0
 10
166.0
 20
304.0
 10
167.0
 20
304.0
 10
167.0
 20
304.0
 10
169.0
 20
302.0
 10
169.0
 20
302.0
 10
170.0
 20
302.0
 10
170.0
 20
302.0
 10
171.0
 20
301.0
 10
171.0
 20
301.0
 10
173.0
 20
301.0
 10
173.0
 20
301.0
 10
174.0
 20
300.0
 10
174.0
 20
300.0
 10
179.0
 20
300.0
 10
179.0
 20
300.0
 10
180.0
 20
301.0
 10
180.0
 20
301.0
 10
182.0
 20
301.0
 10
182.0
 20
301.0
 10
182.0
 20
297.0
 10
182.0
 20
297.0
 10
183.0
 20
296.0
 10
183.0
 20
296.0
 10
183.0
 20
291.0
 10
183.0
 20
291.0
 10
184.0
 20
290.0
 10
184.0
 20
290.0
 10
184.0
 20
286.0
 10
184.0
 20
286.0
 10
185.0
 20
285.0
 10
185.0
 20
285.0
 10
185.0
 20
283.0
 10
185.0
 20
283.0
 10
186.0
 20
282.0
 10
186.0
 20
282.0
 10
186.0
 20
279.0
 10
186.0
 20
279.0
 10
187.0
 20
278.0
 10
187.0
 20
278.0
 10
187.0
 20
276.0
 10
187.0
 20
276.0
 10
188.0
 20
275.0
 10
188.0
 20
275.0
 10
188.0
 20
273.0
 10
188.0
 20
273.0
 10
189.0
 20
272.0
 10
189.0
 20
272.0
 10
189.0
 20
271.0
 10
189.0
 20
271.0
 10
190.0
 20
270.0
 10
190.0
 20
270.0
 10
190.0
 20
268.0
 10
190.0
 20
268.0
 10
191.0
 20
267.0
 10
191.0
 20
267.0
 10
191.0
 20
266.0
 10
191.0
 20
266.0
 10
192.0
 20
265.0
 10
192.0
 20
265.0
 10
192.0
 20
263.0
 10
192.0
 20
263.0
 10
193.0
 20
262.0
 10
193.0
 20
262.0
 10
193.0
 20
261.0
 10
193.0
 20
261.0
 10
195.0
 20
259.0
 10
195.0
 20
259.0
 10
195.0
 20
258.0
 10
195.0
 20
258.0
 10
196.0
 20
257.0
 10
196.0
 20
257.0
 10
196.0
 20
256.0
 10
196.0
 20
256.0
 10
197.0
 20
255.0
 10
197.0
 20
255.0
 10
197.0
 20
254.0
 10
197.0
 20
254.0
 10
198.0
 20
253.0
 10
198.0
 20
253.0
 10
198.0
 20
252.0
 10
198.0
 20
252.0
 10
199.0
 20
251.0
 10
199.0
 20
251.0
 10
199.0
 20
250.0
 10
199.0
 20
250.0
 10
201.0
 20
248.0
 10
201.0
 20
248.0
 10
201.0
 20
247.0
 10
201.0
 20
247.0
 10
203.0
 20
245.0
 10
203.0
 20
245.0
 10
203.0
 20
244.0
 10
203.0
 20
244.0
 10
205.0
 20
242.0
 10
205.0
 20
242.0
 10
205.0
 20
241.0
 10
205.0
 20
241.0
 10
207.0
 20
239.0
 10
207.0
 20
239.0
 10
207.0
 20
238.0
 10
207.0
 20
238.0
 10
211.0
 20
234.0
 10
211.0
 20
234.0
 10
211.0
 20
233.0
 10
211.0
 20
233.0
 10
218.0
 20
226.0
 10
218.0
 20
226.0
 10
218.0
 20
225.0
 10
218.0
 20
225.0
 10
222.0
 20
221.0
 10
222.0
 20
221.0
 10
223.0
 20
221.0
 10
223.0
 20
221.0
 10
231.0
 20
213.0
 10
231.0
 20
213.0
 10
232.0
 20
213.0
 10
232.0
 20
213.0
 10
236.0
 20
209.0
 10
236.0
 20
209.0
 10
237.0
 20
209.0
 10
237.0
 20
209.0
 10
239.0
 20
207.0
 10
239.0
 20
207.0
 10
240.0
 20
207.0
 10
240.0
 20
207.0
 10
242.0
 20
205.0
 10
242.0
 20
205.0
 10
243.0
 20
205.0
 10
243.0
 20
205.0
 10
245.0
 20
203.0
 10
245.0
 20
203.0
 10
246.0
 20
203.0
 10
246.0
 20
203.0
 10
248.0
 20
201.0
 10
248.0
 20
201.0
 10
249.0
 20
201.0
 10
249.0
 20
201.0
 10
250.0
 20
200.0
 10
250.0
 20
200.0
 10
251.0
 20
200.0
 10
251.0
 20
200.0
 10
252.0
 20
199.0
 10
252.0
 20
199.0
 10
253.0
 20
199.0
 10
253.0
 20
199.0
 10
255.0
 20
197.0
 10
255.0
 20
197.0
 10
256.0
 20
197.0
 10
256.0
 20
197.0
 10
257.0
 20
196.0
 10
257.0
 20
196.0
 10
258.0
 20
196.0
 10
258.0
 20
196.0
 10
259.0
 20
195.0
 10
259.0
 20
195.0
 10
260.0
 20
195.0
 10
260.0
 20
195.0
 10
261.0
 20
194.0
 10
261.0
 20
194.0
 10
262.0
 20
194.0
 10
262.0
 20
194.0
 10
263.0
 20
193.0
 10
263.0
 20
193.0
 10
264.0
 20
193.0
 10
264.0
 20
193.0
 10
265.0
 20
192.0
 10
265.0
 20
192.0
 10
266.0
 20
192.0
 10
266.0
 20
192.0
 10
267.0
 20
191.0
 10
267.0
 20
191.0
 10
268.0
 20
191.0
 10
268.0
 20
191.0
 10
269.0
 20
190.0
 10
269.0
 20
190.0
 10
271.0
 20
190.0
 10
271.0
 20
190.0
 10
272.0
 20
189.0
 10
272.0
 20
189.0
 10
273.0
 20
189.0
 10
273.0
 20
189.0
 10
274.0
 20
188.0
 10
274.0
 20
188.0
 10
276.0
 20
188.0
 10
276.0
 20
188.0
 10
277.0
 20
187.0
 10
277.0
 20
187.0
 10
278.0
 20
187.0
 10
278.0
 20
187.0
 10
279.0
 20
186.0
 10
279.0
 20
186.0
 10
281.0
 20
186.0
 10
281.0
 20
186.0
 10
282.0
 20
185.0
 10
282.0
 20
185.0
 10
283.0
 20
185.0
 10
283.0
 20
185.0
 10
284.0
 20
184.0
 10
284.0
 20
184.0
 10
286.0
 20
184.0
 10
286.0
 20
184.0
 10
287.0
 20
183.0
 10
287.0
 20
183.0
 10
289.0
 20
183.0
 10
289.0
 20
183.0
 10
290.0
 20
182.0
 10
290.0
 20
182.0
 10
292.0
 20
182.0
 10
292.0
 20
182.0
 10
293.0
 20
181.0
 10
293.0
 20
181.0
 10
295.0
 20
181.0
 10
295.0
 20
181.0
 10
296.0
 20
180.0
 10
296.0
 20
180.0
 10
297.0
 20
180.0
 10
297.0
 20
180.0
 10
298.0
 20
179.0
 10
298.0
 20
179.0
 10
300.0
 20
179.0
 10
300.0
 20
179.0
 10
301.0
 20
178.0
 10
301.0
 20
178.0
 10
303.0
 20
178.0
 10
303.0
 20
178.0
 10
304.0
 20
177.0
 10
304.0
 20
177.0
 10
305.0
 20
177.0
 10
305.0
 20
177.0
 10
306.0
 20
176.0
 10
306.0
 20
176.0
 10
307.0
 20
176.0
 10
307.0
 20
176.0
 10
308.0
 20
175.0
 10
308.0
 20
175.0
 10
309.0
 20
175.0
 10
309.0
 20
175.0
 10
311.0
 20
173.0
 10
311.0
 20
173.0
 10
312.0
 20
173.0
 10
312.0
 20
173.0
 10
314.0
 20
171.0
 10
314.0
 20
171.0
 10
315.0
 20
171.0
 10
315.0
 20
171.0
 10
322.0
 20
164.0
 10
322.0
 20
164.0
 10
322.0
 20
163.0
 10
322.0
 20
163.0
 10
324.0
 20
161.0
 10
324.0
 20
161.0
 10
324.0
 20
158.0
 10
324.0
 20
158.0
 10
323.0
 20
158.0
 10
323.0
 20
158.0
 10
322.0
 20
157.0
 10
322.0
 20
157.0
 10
316.0
 20
157.0
 10
316.0
 20
157.0
 10
315.0
 20
156.0
 10
315.0
 20
156.0
 10
310.0
 20
156.0
 10
310.0
 20
156.0
 10
309.0
 20
155.0
 10
309.0
 20
155.0
 10
306.0
 20
155.0
 10
306.0
 20
155.0
 10
305.0
 20
154.0
 10
305.0
 20
154.0
 10
302.0
 20
154.0
 10
302.0
 20
154.0
 10
301.0
 20
153.0
 10
301.0
 20
153.0
 10
298.0
 20
153.0
 10
298.0
 20
153.0
 10
297.0
 20
152.0
 10
297.0
 20
152.0
 10
295.0
 20
152.0
 10
295.0
 20
152.0
 10
294.0
 20
151.0
 10
294.0
 20
151.0
 10
293.0
 20
151.0
 10
293.0
 20
151.0
 10
292.0
 20
150.0
 10
292.0
 20
150.0
 10
291.0
 20
150.0
 10
291.0
 20
150.0
 10
290.0
 20
149.0
 10
290.0
 20
149.0
 10
289.0
 20
149.0
 10
289.0
 20
149.0
 10
288.0
 20
148.0
 10
288.0
 20
148.0
 10
287.0
 20
148.0
 10
287.0
 20
148.0
 10
285.0
 20
146.0
 10
285.0
 20
146.0
 10
284.0
 20
146.0
 10
284.0
 20
146.0
 10
281.0
 20
143.0
 10
281.0
 20
143.0
 10
280.0
 20
143.0
 10
280.0
 20
143.0
 10
277.0
 20
140.0
 10
277.0
 20
140.0
 10
277.0
 20
139.0
 10
277.0
 20
139.0
 10
273.0
 20
135.0
 10
273.0
 20
135.0
 10
273.0
 20
134.0
 10
273.0
 20
134.0
 10
271.0
 20
132.0
 10
271.0
 20
132.0
 10
271.0
 20
131.0
 10
271.0
 20
131.0
 10
270.0
 20
130.0
 10
270.0
 20
130.0
 10
270.0
 20
127.0
 10
270.0
 20
127.0
 10
269.0
 20
126.0
 10
269.0
 20
126.0
 10
269.0
 20
122.0
 10
269.0
 20
122.0
 10
270.0
 20
121.0
 10
270.0
 20
121.0
 10
270.0
 20
120.0
 10
270.0
 20
120.0
 10
271.0
 20
119.0
 10
271.0
 20
119.0
 10
274.0
 20
119.0
 10
274.0
 20
119.0
 10
275.0
 20
118.0
 10
275.0
 20
118.0
 10
279.0
 20
118.0
 10
279.0
 20
118.0
 10
280.0
 20
119.0
 10
280.0
 20
119.0
 10
283.0
 20
119.0
 10
283.0
 20
119.0
 10
284.0
 20
120.0
 10
284.0
 20
120.0
 10
289.0
 20
120.0
 10
289.0
 20
120.0
 10
290.0
 20
119.0
 10
290.0
 20
119.0
 10
292.0
 20
119.0
 10
292.0
 20
119.0
 10
293.0
 20
118.0
 10
293.0
 20
118.0
 10
295.0
 20
118.0
 10
295.0
 20
118.0
 10
296.0
 20
117.0
 10
296.0
 20
117.0
 10
298.0
 20
117.0
 10
298.0
 20
117.0
 10
299.0
 20
116.0
 10
299.0
 20
116.0
 10
301.0
 20
116.0
 10
301.0
 20
116.0
 10
302.0
 20
115.0
 10
302.0
 20
115.0
 10
303.0
 20
115.0
 10
303.0
 20
115.0
 10
304.0
 20
114.0
 10
304.0
 20
114.0
 10
305.0
 20
114.0
 10
305.0
 20
114.0
 10
306.0
 20
113.0
 10
306.0
 20
113.0
 10
307.0
 20
113.0
 10
307.0
 20
113.0
 10
308.0
 20
112.0
 10
308.0
 20
112.0
 10
309.0
 20
112.0
 10
309.0
 20
112.0
 10
311.0
 20
110.0
 10
311.0
 20
110.0
 10
312.0
 20
110.0
 10
312.0
 20
110.0
 10
314.0
 20
108.0
 10
314.0
 20
108.0
 10
315.0
 20
108.0
 10
315.0
 20
108.0
 10
323.0
 20
100.0
 10
323.0
 20
100.0
 10
323.0
 20
99.0
 10
323.0
 20
99.0
 10
336.0
 20
86.0
 10
336.0
 20
86.0
 10
337.0
 20
86.0
 10
337.0
 20
86.0
 10
338.0
 20
85.0
 10
338.0
 20
85.0
 10
339.0
 20
85.0
 10
339.0
 20
85.0
 10
340.0
 20
84.0
 10
340.0
 20
84.0
 10
341.0
 20
84.0
 10
341.0
 20
84.0
 10
342.0
 20
83.0
 10
342.0
 20
83.0
 10
344.0
 20
83.0
 10
344.0
 20
83.0
 10
345.0
 20
82.0
 10
345.0
 20
82.0
 10
348.0
 20
82.0
 10
348.0
 20
82.0
 10
349.0
 20
81.0
 10
349.0
 20
81.0
 10
360.0
 20
81.0
 10
360.0
 20
81.0
 10
361.0
 20
82.0
 10
361.0
 20
82.0
 10
364.0
 20
82.0
 10
364.0
 20
82.0
 10
365.0
 20
83.0
 10
365.0
 20
83.0
 10
367.0
 20
83.0
 10
367.0
 20
83.0
 10
368.0
 20
84.0
 10
368.0
 20
84.0
 10
370.0
 20
84.0
 10
370.0
 20
84.0
 10
371.0
 20
85.0
 10
371.0
 20
85.0
 10
372.0
 20
85.0
 10
372.0
 20
85.0
 10
373.0
 20
86.0
 10
373.0
 20
86.0
 10
374.0
 20
86.0
 10
374.0
 20
86.0
 10
375.0
 20
87.0
 10
375.0
 20
87.0
 10
376.0
 20
87.0
 10
376.0
 20
87.0
 10
377.0
 20
88.0
 10
377.0
 20
88.0
 10
378.0
 20
88.0
 10
378.0
 20
88.0
 10
380.0
 20
90.0
 10
380.0
 20
90.0
 10
381.0
 20
90.0
 10
381.0
 20
90.0
 10
383.0
 20
92.0
 10
383.0
 20
92.0
 10
384.0
 20
92.0
 10
384.0
 20
92.0
 10
387.0
 20
95.0
 10
387.0
 20
95.0
 10
388.0
 20
95.0
 10
388.0
 20
95.0
 10
394.0
 20
101.0
 10
394.0
 20
101.0
 10
395.0
 20
101.0
 10
395.0
 20
101.0
 10
402.0
 20
108.0
 10
402.0
 20
108.0
 10
402.0
 20
109.0
 10
402.0
 20
109.0
 10
403.0
 20
110.0
 10
403.0
 20
110.0
 10
403.0
 20
111.0
 10
403.0
 20
111.0
 10
404.0
 20
112.0
 10
404.0
 20
112.0
 10
405.0
 20
112.0
 10
405.0
 20
112.0
 10
409.0
 20
116.0
 10
409.0
 20
116.0
 10
409.0
 20
117.0
 10
409.0
 20
117.0
 10
411.0
 20
119.0
 10
411.0
 20
119.0
 10
411.0
 20
121.0
 10
411.0
 20
121.0
 10
410.0
 20
122.0
 10
410.0
 20
122.0
 10
406.0
 20
122.0
 10
406.0
 20
122.0
 10
405.0
 20
123.0
 10
405.0
 20
123.0
 10
401.0
 20
123.0
 10
401.0
 20
123.0
 10
400.0
 20
124.0
 10
400.0
 20
124.0
 10
399.0
 20
124.0
 10
399.0
 20
124.0
 10
398.0
 20
125.0
 10
398.0
 20
125.0
 10
398.0
 20
127.0
 10
398.0
 20
127.0
 10
402.0
 20
127.0
 10
402.0
 20
127.0
 10
403.0
 20
126.0
 10
403.0
 20
126.0
 10
405.0
 20
126.0
 10
405.0
 20
126.0
 10
406.0
 20
125.0
 10
406.0
 20
125.0
 10
408.0
 20
125.0
 10
408.0
 20
125.0
 10
409.0
 20
124.0
 10
409.0
 20
124.0
 10
410.0
 20
124.0
 10
410.0
 20
124.0
 10
411.0
 20
123.0
 10
411.0
 20
123.0
 10
413.0
 20
123.0
 10
413.0
 20
123.0
 10
416.0
 20
126.0
 10
416.0
 20
126.0
 10
418.0
 20
126.0
 10
418.0
 20
126.0
 10
418.0
 20
123.0
 10
418.0
 20
123.0
 10
416.0
 20
121.0
 10
416.0
 20
121.0
 10
416.0
 20
120.0
 10
416.0
 20
120.0
 10
415.0
 20
119.0
 10
415.0
 20
119.0
 10
415.0
 20
117.0
 10
415.0
 20
117.0
 10
420.0
 20
112.0
 10
420.0
 20
112.0
 10
420.0
 20
106.0
 10
420.0
 20
106.0
 10
418.0
 20
104.0
 10
418.0
 20
104.0
 10
418.0
 20
103.0
 10
418.0
 20
103.0
 10
416.0
 20
101.0
 10
416.0
 20
101.0
 10
416.0
 20
98.0
 10
416.0
 20
98.0
 10
418.0
 20
96.0
 10
418.0
 20
96.0
 10
418.0
 20
95.0
 10
418.0
 20
95.0
 10
419.0
 20
94.0
 10
419.0
 20
94.0
 10
419.0
 20
92.0
 10
419.0
 20
92.0
 10
417.0
 20
92.0
 10
417.0
 20
92.0
 10
415.0
 20
94.0
 10
415.0
 20
94.0
 10
414.0
 20
94.0
 10
414.0
 20
94.0
 10
411.0
 20
97.0
 10
411.0
 20
97.0
 10
409.0
 20
97.0
 10
409.0
 20
97.0
 10
408.0
 20
98.0
 10
408.0
 20
98.0
 10
407.0
 20
98.0
 10
407.0
 20
98.0
 10
406.0
 20
99.0
 10
406.0
 20
99.0
 10
403.0
 20
99.0
 10
403.0
 20
99.0
 10
402.0
 20
100.0
 10
402.0
 20
100.0
 10
399.0
 20
100.0
 10
399.0
 20
100.0
 10
396.0
 20
97.0
 10
396.0
 20
97.0
 10
396.0
 20
95.0
 10
396.0
 20
95.0
 10
398.0
 20
93.0
 10
398.0
 20
93.0
 10
399.0
 20
93.0
 10
399.0
 20
93.0
 10
404.0
 20
88.0
 10
404.0
 20
88.0
 10
404.0
 20
87.0
 10
404.0
 20
87.0
 10
405.0
 20
86.0
 10
405.0
 20
86.0
 10
405.0
 20
85.0
 10
405.0
 20
85.0
 10
406.0
 20
84.0
 10
406.0
 20
84.0
 10
406.0
 20
81.0
 10
406.0
 20
81.0
 10
407.0
 20
80.0
 10
407.0
 20
80.0
 10
407.0
 20
64.0
 10
407.0
 20
64.0
 10
406.0
 20
63.0
 10
406.0
 20
63.0
 10
406.0
 20
59.0
 10
406.0
 20
59.0
 10
405.0
 20
58.0
 10
405.0
 20
58.0
 10
405.0
 20
55.0
 10
405.0
 20
55.0
 10
404.0
 20
54.0
 10
404.0
 20
54.0
 10
404.0
 20
51.0
 10
404.0
 20
51.0
 10
403.0
 20
50.0
 10
403.0
 20
50.0
 10
403.0
 20
49.0
 10
403.0
 20
49.0
 10
402.0
 20
48.0
 10
402.0
 20
48.0
 10
402.0
 20
46.0
 10
402.0
 20
46.0
 10
401.0
 20
45.0
 10
401.0
 20
45.0
 10
401.0
 20
44.0
 10
401.0
 20
44.0
 10
400.0
 20
43.0
 10
400.0
 20
43.0
 10
400.0
 20
42.0
 10
400.0
 20
42.0
 10
399.0
 20
41.0
 10
399.0
 20
41.0
 10
399.0
 20
40.0
 10
399.0
 20
40.0
 10
397.0
 20
38.0
 10
397.0
 20
38.0
 10
397.0
 20
37.0
 10
397.0
 20
37.0
 10
395.0
 20
37.0
 10
395.0
 20
37.0
 10
395.0
 20
39.0
 10
395.0
 20
39.0
 10
396.0
 20
40.0
 10
396.0
 20
40.0
 10
396.0
 20
42.0
 10
396.0
 20
42.0
 10
397.0
 20
43.0
 10
397.0
 20
43.0
 10
397.0
 20
45.0
 10
397.0
 20
45.0
 10
398.0
 20
46.0
 10
398.0
 20
46.0
 10
398.0
 20
48.0
 10
398.0
 20
48.0
 10
399.0
 20
49.0
 10
399.0
 20
49.0
 10
399.0
 20
52.0
 10
399.0
 20
52.0
 10
400.0
 20
53.0
 10
400.0
 20
53.0
 10
400.0
 20
56.0
 10
400.0
 20
56.0
 10
401.0
 20
57.0
 10
401.0
 20
57.0
 10
401.0
 20
62.0
 10
401.0
 20
62.0
 10
402.0
 20
63.0
 10
402.0
 20
63.0
 10
402.0
 20
77.0
 10
402.0
 20
77.0
 10
401.0
 20
78.0
 10
401.0
 20
78.0
 10
401.0
 20
82.0
 10
401.0
 20
82.0
 10
400.0
 20
83.0
 10
400.0
 20
83.0
 10
400.0
 20
84.0
 10
400.0
 20
84.0
 10
399.0
 20
85.0
 10
399.0
 20
85.0
 10
397.0
 20
85.0
 10
397.0
 20
85.0
 10
396.0
 20
84.0
 10
396.0
 20
84.0
 10
394.0
 20
84.0
 10
394.0
 20
84.0
 10
394.0
 20
89.0
 10
394.0
 20
89.0
 10
393.0
 20
90.0
 10
393.0
 20
90.0
 10
393.0
 20
91.0
 10
393.0
 20
91.0
 10
392.0
 20
92.0
 10
392.0
 20
92.0
 10
390.0
 20
92.0
 10
390.0
 20
92.0
 10
389.0
 20
91.0
 10
389.0
 20
91.0
 10
388.0
 20
91.0
 10
388.0
 20
91.0
 10
385.0
 20
88.0
 10
385.0
 20
88.0
 10
385.0
 20
85.0
 10
385.0
 20
85.0
 10
386.0
 20
84.0
 10
386.0
 20
84.0
 10
387.0
 20
84.0
 10
387.0
 20
84.0
 10
387.0
 20
83.0
 10
387.0
 20
83.0
 10
388.0
 20
82.0
 10
388.0
 20
82.0
 10
388.0
 20
78.0
 10
388.0
 20
78.0
 10
385.0
 20
75.0
 10
385.0
 20
75.0
 10
382.0
 20
75.0
 10
382.0
 20
75.0
 10
382.0
 20
82.0
 10
382.0
 20
82.0
 10
380.0
 20
84.0
 10
380.0
 20
84.0
 10
377.0
 20
84.0
 10
377.0
 20
84.0
 10
375.0
 20
82.0
 10
375.0
 20
82.0
 10
374.0
 20
82.0
 10
374.0
 20
82.0
 10
373.0
 20
81.0
 10
373.0
 20
81.0
 10
373.0
 20
79.0
 10
373.0
 20
79.0
 10
376.0
 20
76.0
 10
376.0
 20
76.0
 10
376.0
 20
72.0
 10
376.0
 20
72.0
 10
373.0
 20
69.0
 10
373.0
 20
69.0
 10
370.0
 20
69.0
 10
370.0
 20
69.0
 10
370.0
 20
77.0
 10
370.0
 20
77.0
 10
368.0
 20
79.0
 10
368.0
 20
79.0
 10
364.0
 20
79.0
 10
364.0
 20
79.0
 10
362.0
 20
77.0
 10
362.0
 20
77.0
 10
362.0
 20
74.0
 10
362.0
 20
74.0
 10
363.0
 20
73.0
 10
363.0
 20
73.0
 10
363.0
 20
72.0
 10
363.0
 20
72.0
 10
364.0
 20
71.0
 10
364.0
 20
71.0
 10
364.0
 20
70.0
 10
364.0
 20
70.0
 10
365.0
 20
69.0
 10
365.0
 20
69.0
 10
365.0
 20
68.0
 10
365.0
 20
68.0
 10
366.0
 20
67.0
 10
366.0
 20
67.0
 10
366.0
 20
66.0
 10
366.0
 20
66.0
 10
367.0
 20
65.0
 10
367.0
 20
65.0
 10
367.0
 20
64.0
 10
367.0
 20
64.0
 10
368.0
 20
63.0
 10
368.0
 20
63.0
 10
368.0
 20
61.0
 10
368.0
 20
61.0
 10
369.0
 20
60.0
 10
369.0
 20
60.0
 10
369.0
 20
59.0
 10
369.0
 20
59.0
 10
370.0
 20
58.0
 10
370.0
 20
58.0
 10
370.0
 20
57.0
 10
370.0
 20
57.0
 10
371.0
 20
56.0
 10
371.0
 20
56.0
 10
371.0
 20
54.0
 10
371.0
 20
54.0
 10
372.0
 20
53.0
 10
372.0
 20
53.0
 10
372.0
 20
52.0
 10
372.0
 20
52.0
 10
373.0
 20
51.0
 10
373.0
 20
51.0
 10
373.0
 20
50.0
 10
373.0
 20
50.0
 10
374.0
 20
49.0
 10
374.0
 20
49.0
 10
374.0
 20
48.0
 10
374.0
 20
48.0
 10
375.0
 20
47.0
 10
375.0
 20
47.0
 10
375.0
 20
46.0
 10
375.0
 20
46.0
 10
376.0
 20
45.0
 10
376.0
 20
45.0
 10
376.0
 20
44.0
 10
376.0
 20
44.0
 10
377.0
 20
43.0
 10
377.0
 20
43.0
 10
377.0
 20
42.0
 10
377.0
 20
42.0
 10
378.0
 20
41.0
 10
378.0
 20
41.0
 10
378.0
 20
40.0
 10
378.0
 20
40.0
 10
379.0
 20
39.0
 10
379.0
 20
39.0
 10
379.0
 20
38.0
 10
379.0
 20
38.0
 10
380.0
 20
37.0
 10
380.0
 20
37.0
 10
380.0
 20
36.0
 10
380.0
 20
36.0
 10
381.0
 20
35.0
 10
381.0
 20
35.0
 10
381.0
 20
34.0
 10
381.0
 20
34.0
 10
382.0
 20
33.0
 10
382.0
 20
33.0
 10
382.0
 20
32.0
 10
382.0
 20
32.0
 10
384.0
 20
30.0
 10
384.0
 20
30.0
 10
384.0
 20
29.0
 10
384.0
 20
29.0
 10
385.0
 20
28.0
 10
385.0
 20
28.0
 10
385.0
 20
27.0
 10
385.0
 20
27.0
 10
387.0
 20
25.0
 10
387.0
 20
25.0
 10
387.0
 20
24.0
 10
387.0
 20
24.0
 10
390.0
 20
21.0
 10
390.0
 20
21.0
 10
390.0
 20
20.0
 10
390.0
 20
20.0
 10
392.0
 20
18.0
  0
LWPOLYLINE
  5
36
330
17
100
AcDbEntity
  8
0
100
AcDbPolyline
 90
132
 70
0
 10
293.0
 20
416.0
 10
292.0
 20
417.0
 10
292.0
 20
417.0
 10
292.0
 20
418.0
 10
292.0
 20
418.0
 10
288.0
 20
422.0
 10
288.0
 20
422.0
 10
288.0
 20
423.0
 10
288.0
 20
423.0
 10
286.0
 20
425.0
 10
286.0
 20
425.0
 10
286.0
 20
427.0
 10
286.0
 20
427.0
 10
287.0
 20
428.0
 10
287.0
 20
428.0
 10
287.0
 20
429.0
 10
287.0
 20
429.0
 10
288.0
 20
430.0
 10
288.0
 20
430.0
 10
288.0
 20
431.0
 10
288.0
 20
431.0
 10
290.0
 20
433.0
 10
290.0
 20
433.0
 10
290.0
 20
434.0
 10
290.0
 20
434.0
 10
292.0
 20
436.0
 10
292.0
 20
436.0
 10
292.0
 20
437.0
 10
292.0
 20
437.0
 10
294.0
 20
439.0
 10
294.0
 20
439.0
 10
294.0
 20
440.0
 10
294.0
 20
440.0
 10
295.0
 20
441.0
 10
295.0
 20
441.0
 10
298.0
 20
441.0
 10
298.0
 20
441.0
 10
298.0
 20
439.0
 10
298.0
 20
439.0
 10
296.0
 20
437.0
 10
296.0
 20
437.0
 10
296.0
 20
436.0
 10
296.0
 20
436.0
 10
295.0
 20
435.0
 10
295.0
 20
435.0
 10
295.0
 20
434.0
 10
295.0
 20
434.0
 10
293.0
 20
432.0
 10
293.0
 20
432.0
 10
293.0
 20
431.0
 10
293.0
 20
431.0
 10
292.0
 20
430.0
 10
292.0
 20
430.0
 10
292.0
 20
429.0
 10
292.0
 20
429.0
 10
291.0
 20
428.0
 10
291.0
 20
428.0
 10
291.0
 20
425.0
 10
291.0
 20
425.0
 10
293.0
 20
423.0
 10
293.0
 20
423.0
 10
295.0
 20
423.0
 10
295.0
 20
423.0
 10
297.0
 20
425.0
 10
297.0
 20
425.0
 10
297.0
 20
426.0
 10
297.0
 20
426.0
 10
298.0
 20
427.0
 10
298.0
 20
427.0
 10
298.0
 20
428.0
 10
298.0
 20
428.0
 10
300.0
 20
430.0
 10
300.0
 20
430.0
 10
300.0
 20
431.0
 10
300.0
 20
431.0
 10
301.0
 20
432.0
 10
301.0
 20
432.0
 10
301.0
 20
433.0
 10
301.0
 20
433.0
 10
303.0
 20
435.0
 10
303.0
 20
435.0
 10
303.0
 20
436.0
 10
303.0
 20
436.0
 10
304.0
 20
437.0
 10
304.0
 20
437.0
 10
304.0
 20
438.0
 10
304.0
 20
438.0
 10
306.0
 20
440.0
 10
306.0
 20
440.0
 10
308.0
 20
440.0
 10
308.0
 20
440.0
 10
308.0
 20
438.0
 10
308.0
 20
438.0
 10
307.0
 20
437.0
 10
307.0
 20
437.0
 10
307.0
 20
436.0
 10
307.0
 20
436.0
 10
306.0
 20
435.0
 10
306.0
 20
435.0
 10
306.0
 20
434.0
 10
306.0
 20
434.0
 10
305.0
 20
433.0
 10
305.0
 20
433.0
 10
305.0
 20
432.0
 10
305.0
 20
432.0
 10
304.0
 20
431.0
 10
304.0
 20
431.0
 10
304.0
 20
430.0
 10
304.0
 20
430.0
 10
302.0
 20
428.0
 10
302.0
 20
428.0
 10
302.0
 20
427.0
 10
302.0
 20
427.0
 10
301.0
 20
426.0
 10
301.0
 20
426.0
 10
301.0
 20
425.0
 10
301.0
 20
425.0
 10
300.0
 20
424.0
 10
300.0
 20
424.0
 10
300.0
 20
423.0
 10
300.0
 20
423.0
 10
298.0
 20
421.0
 10
298.0
 20
421.0
 10
298.0
 20
420.0
 10
298.0
 20
420.0
 10
297.0
 20
419.0
 10
297.0
 20
419.0
 10
297.0
 20
418.0
 10
297.0
 20
418.0
 10
295.0
 20
416.0
 10
295.0
 20
416.0
 10
293.0
 20
416.0
  0
LWPOLYLINE
  5
37
330
17
100
AcDbEntity
  8
0
100
AcDbPolyline
 90
46
 70
0
 10
272.0
 20
402.0
 10
272.0
 20
404.0
 10
272.0
 20
404.0
 10
274.0
 20
406.0
 10
274.0
 20
406.0
 10
282.0
 20
406.0
 10
282.0
 20
406.0
 10
284.0
 20
408.0
 10
284.0
 20
408.0
 10
284.0
 20
410.0
 10
284.0
 20
410.0
 10
281.0
 20
413.0
 10
281.0
 20
413.0
 10
281.0
 20
414.0
 10
281.0
 20
414.0
 10
280.0
 20
415.0
 10
280.0
 20
415.0
 10
280.0
 20
417.0
 10
280.0
 20
417.0
 10
283.0
 20
417.0
 10
283.0
 20
417.0
 10
284.0
 20
416.0
 10
284.0
 20
416.0
 10
284.0
 20
415.0
 10
284.0
 20
415.0
 10
289.0
 20
410.0
 10
289.0
 20
410.0
 10
289.0
 20
409.0
 10
289.0
 20
409.0
 10
290.0
 20
408.0
 10
290.0
 20
408.0
 10
290.0
 20
406.0
 10
290.0
 20
406.0
 10
289.0
 20
405.0
 10
289.0
 20
405.0
 10
289.0
 20
404.0
 10
289.0
 20
404.0
 10
288.0
 20
404.0
 10
288.0
 20
404.0
 10
287.0
 20
403.0
 10
287.0
 20
403.0
 10
281.0
 20
403.0
 10
281.0
 20
403.0
 10
280.0
 20
402.0
 10
280.0
 20
402.0
 10
272.0
 20
402.0
  0
LWPOLYLINE
  5
38
330
17
100
AcDbEntity
  8
0
100
AcDbPolyline
 90
56
 70
0
 10
199.0
 20
393.0
 10
199.0
 20
397.0
 10
199.0
 20
397.0
 10
200.0
 20
398.0
 10
200.0
 20
398.0
 10
200.0
 20
400.0
 10
200.0
 20
400.0
 10
201.0
 20
401.0
 10
201.0
 20
401.0
 10
201.0
 20
402.0
 10
201.0
 20
402.0
 10
202.0
 20
403.0
 10
202.0
 20
403.0
 10
202.0
 20
405.0
 10
202.0
 20
405.0
 10
203.0
 20
406.0
 10
203.0
 20
406.0
 10
203.0
 20
407.0
 10
203.0
 20
407.0
 10
204.0
 20
408.0
 10
204.0
 20
408.0
 10
206.0
 20
408.0
 10
206.0
 20
408.0
 10
206.0
 20
404.0
 10
206.0
 20
404.0
 10
205.0
 20
403.0
 10
205.0
 20
403.0
 10
205.0
 20
400.0
 10
205.0
 20
400.0
 10
206.0
 20
399.0
 10
206.0
 20
399.0
 10
210.0
 20
399.0
 10
210.0
 20
399.0
 10
211.0
 20
400.0
 10
211.0
 20
400.0
 10
214.0
 20
400.0
 10
214.0
 20
400.0
 10
215.0
 20
399.0
 10
215.0
 20
399.0
 10
215.0
 20
397.0
 10
215.0
 20
397.0
 10
214.0
 20
396.0
 10
214.0
 20
396.0
 10
211.0
 20
396.0
 10
211.0
 20
396.0
 10
210.0
 20
395.0
 10
210.0
 20
395.0
 10
207.0
 20
395.0
 10
207.0
 20
395.0
 10
206.0
 20
394.0
 10
206.0
 20
394.0
 10
202.0
 20
394.0
 10
202.0
 20
394.0
 10
201.0
 20
393.0
 10
201.0
 20
393.0
 10
199.0
 20
393.0
  0
LWPOLYLINE
  5
39
330
17
100
AcDbEntity
  8
0
100
AcDbPolyline
 90
32
 70
0
 10
272.0
 20
390.0
 10
271.0
 20
391.0
 10
271.0
 20
391.0
 10
270.0
 20
391.0
 10
270.0
 20
391.0
 10
269.0
 20
392.0
 10
269.0
 20
392.0
 10
269.0
 20
394.0
 10
269.0
 20
394.0
 10
272.0
 20
394.0
 10
272.0
 20
394.0
 10
273.0
 20
395.0
 10
273.0
 20
395.0
 10
282.0
 20
395.0
 10
282.0
 20
395.0
 10
283.0
 20
396.0
 10
283.0
 20
396.0
 10
289.0
 20
396.0
 10
289.0
 20
396.0
 10
289.0
 20
393.0
 10
289.0
 20
393.0
 10
288.0
 20
392.0
 10
288.0
 20
392.0
 10
284.0
 20
392.0
 10
284.0
 20
392.0
 10
283.0
 20
391.0
 10
283.0
 20
391.0
 10
275.0
 20
391.0
 10
275.0
 20
391.0
 10
274.0
 20
390.0
 10
274.0
 20
390.0
 10
272.0
 20
390.0
  0
LWPOLYLINE
  5
3A
330
17
100
AcDbEntity
  8
0
100
AcDbPolyline
 90
32
 70
0
 10
154.0
 20
383.0
 10
154.0
 20
386.0
 10
154.0
 20
386.0
 10
155.0
 20
386.0
 10
155.0
 20
386.0
 10
156.0
 20
387.0
 10
156.0
 20
387.0
 10
158.0
 20
387.0
 10
158.0
 20
387.0
 10
159.0
 20
388.0
 10
159.0
 20
388.0
 10
159.0
 20
390.0
 10
159.0
 20
390.0
 10
158.0
 20
391.0
 10
158.0
 20
391.0
 10
158.0
 20
394.0
 10
158.0
 20
394.0
 10
160.0
 20
394.0
 10
160.0
 20
394.0
 10
166.0
 20
388.0
 10
166.0
 20
388.0
 10
166.0
 20
385.0
 10
166.0
 20
385.0
 10
163.0
 20
385.0
 10
163.0
 20
385.0
 10
162.0
 20
384.0
 10
162.0
 20
384.0
 10
159.0
 20
384.0
 10
159.0
 20
384.0
 10
158.0
 20
383.0
 10
158.0
 20
383.0
 10
154.0
 20
383.0
  0
LWPOLYLINE
  5
3B
330
17
100
AcDbEntity
  8
0
100
AcDbPolyline
 90
40
 70
0
 10
200.0
 20
382.0
 10
199.0
 20
383.0
 10
199.0
 20
383.0
 10
199.0
 20
386.0
 10
199.0
 20
386.0
 10
202.0
 20
386.0
 10
202.0
 20
386.0
 10
203.0
 20
387.0
 10
203.0
 20
387.0
 10
207.0
 20
387.0
 10
207.0
 20
387.0
 10
208.0
 20
388.0
 10
208.0
 20
388.0
 10
212.0
 20
388.0
 10
212.0
 20
388.0
 10
213.0
 20
389.0
 10
213.0
 20
389.0
 10
217.0
 20
389.0
 10
217.0
 20
389.0
 10
218.0
 20
390.0
 10
218.0
 20
390.0
 10
220.0
 20
390.0
 10
220.0
 20
390.0
 10
220.0
 20
387.0
 10
220.0
 20
387.0
 10
218.0
 20
385.0
 10
218.0
 20
385.0
 10
214.0
 20
385.0
 10
214.0
 20
385.0
 10
213.0
 20
384.0
 10
213.0
 20
384.0
 10
210.0
 20
384.0
 10
210.0
 20
384.0
 10
209.0
 20
383.0
 10
209.0
 20
383.0
 10
206.0
 20
383.0
 10
206.0
 20
383.0
 10
205.0
 20
382.0
 10
205.0
 20
382.0
 10
200.0
 20
382.0
  0
LWPOLYLINE
  5
3C
330
17
100
AcDbEntity
  8
0
100
AcDbPolyline
 90
58
 70
0
 10
165.0
 20
363.0
 10
165.0
 20
366.0
 10
165.0
 20
366.0
 10
166.0
 20
367.0
 10
166.0
 20
367.0
 10
166.0
 20
372.0
 10
166.0
 20
372.0
 10
165.0
 20
373.0
 10
165.0
 20
373.0
 10
162.0
 20
373.0
 10
162.0
 20
373.0
 10
161.0
 20
372.0
 10
161.0
 20
372.0
 10
158.0
 20
372.0
 10
158.0
 20
372.0
 10
157.0
 20
371.0
 10
157.0
 20
371.0
 10
155.0
 20
371.0
 10
155.0
 20
371.0
 10
154.0
 20
372.0
 10
154.0
 20
372.0
 10
153.0
 20
372.0
 10
153.0
 20
372.0
 10
153.0
 20
375.0
 10
153.0
 20
375.0
 10
156.0
 20
375.0
 10
156.0
 20
375.0
 10
157.0
 20
376.0
 10
157.0
 20
376.0
 10
160.0
 20
376.0
 10
160.0
 20
376.0
 10
161.0
 20
377.0
 10
161.0
 20
377.0
 10
164.0
 20
377.0
 10
164.0
 20
377.0
 10
165.0
 20
378.0
 10
165.0
 20
378.0
 10
172.0
 20
378.0
 10
172.0
 20
378.0
 10
172.0
 20
376.0
 10
172.0
 20
376.0
 10
171.0
 20
375.0
 10
171.0
 20
375.0
 10
171.0
 20
372.0
 10
171.0
 20
372.0
 10
170.0
 20
371.0
 10
170.0
 20
371.0
 10
170.0
 20
369.0
 10
170.0
 20
369.0
 10
169.0
 20
368.0
 10
169.0
 20
368.0
 10
169.0
 20
366.0
 10
169.0
 20
366.0
 10
168.0
 20
365.0
 10
168.0
 20
365.0
 10
168.0
 20
363.0
 10
168.0
 20
363.0
 10
165.0
 20
363.0
  0
LWPOLYLINE
  5
3D
330
17
100
AcDbEntity
  8
0
100
AcDbPolyline
 90
456
 70
0
 10
281.0
 20
362.0
 10
270.0
 20
373.0
 10
270.0
 20
373.0
 10
270.0
 20
374.0
 10
270.0
 20
374.0
 10
263.0
 20
381.0
 10
263.0
 20
381.0
 10
263.0
 20
382.0
 10
263.0
 20
382.0
 10
256.0
 20
389.0
 10
256.0
 20
389.0
 10
254.0
 20
389.0
 10
254.0
 20
389.0
 10
253.0
 20
388.0
 10
253.0
 20
388.0
 10
253.0
 20
387.0
 10
253.0
 20
387.0
 10
251.0
 20
385.0
 10
251.0
 20
385.0
 10
251.0
 20
384.0
 10
251.0
 20
384.0
 10
250.0
 20
383.0
 10
250.0
 20
383.0
 10
250.0
 20
382.0
 10
250.0
 20
382.0
 10
248.0
 20
380.0
 10
248.0
 20
380.0
 10
248.0
 20
379.0
 10
248.0
 20
379.0
 10
246.0
 20
379.0
 10
246.0
 20
379.0
 10
240.0
 20
385.0
 10
240.0
 20
385.0
 10
240.0
 20
386.0
 10
240.0
 20
386.0
 10
237.0
 20
389.0
 10
237.0
 20
389.0
 10
235.0
 20
389.0
 10
235.0
 20
389.0
 10
232.0
 20
386.0
 10
232.0
 20
386.0
 10
232.0
 20
385.0
 10
232.0
 20
385.0
 10
231.0
 20
384.0
 10
231.0
 20
384.0
 10
231.0
 20
383.0
 10
231.0
 20
383.0
 10
230.0
 20
382.0
 10
230.0
 20
382.0
 10
230.0
 20
381.0
 10
230.0
 20
381.0
 10
229.0
 20
380.0
 10
229.0
 20
380.0
 10
229.0
 20
379.0
 10
229.0
 20
379.0
 10
228.0
 20
378.0
 10
228.0
 20
378.0
 10
228.0
 20
377.0
 10
228.0
 20
377.0
 10
227.0
 20
376.0
 10
227.0
 20
376.0
 10
227.0
 20
375.0
 10
227.0
 20
375.0
 10
226.0
 20
374.0
 10
226.0
 20
374.0
 10
226.0
 20
373.0
 10
226.0
 20
373.0
 10
224.0
 20
371.0
 10
224.0
 20
371.0
 10
224.0
 20
370.0
 10
224.0
 20
370.0
 10
223.0
 20
369.0
 10
223.0
 20
369.0
 10
223.0
 20
368.0
 10
223.0
 20
368.0
 10
222.0
 20
367.0
 10
222.0
 20
367.0
 10
221.0
 20
367.0
 10
221.0
 20
367.0
 10
220.0
 20
366.0
 10
220.0
 20
366.0
 10
218.0
 20
366.0
 10
218.0
 20
366.0
 10
218.0
 20
368.0
 10
218.0
 20
368.0
 10
219.0
 20
369.0
 10
219.0
 20
369.0
 10
219.0
 20
370.0
 10
219.0
 20
370.0
 10
220.0
 20
371.0
 10
220.0
 20
371.0
 10
220.0
 20
372.0
 10
220.0
 20
372.0
 10
221.0
 20
373.0
 10
221.0
 20
373.0
 10
221.0
 20
374.0
 10
221.0
 20
374.0
 10
222.0
 20
375.0
 10
222.0
 20
375.0
 10
222.0
 20
376.0
 10
222.0
 20
376.0
 10
223.0
 20
377.0
 10
223.0
 20
377.0
 10
223.0
 20
378.0
 10
223.0
 20
378.0
 10
225.0
 20
380.0
 10
225.0
 20
380.0
 10
225.0
 20
381.0
 10
225.0
 20
381.0
 10
226.0
 20
382.0
 10
226.0
 20
382.0
 10
226.0
 20
383.0
 10
226.0
 20
383.0
 10
227.0
 20
384.0
 10
227.0
 20
384.0
 10
227.0
 20
385.0
 10
227.0
 20
385.0
 10
229.0
 20
387.0
 10
229.0
 20
387.0
 10
229.0
 20
388.0
 10
229.0
 20
388.0
 10
230.0
 20
389.0
 10
230.0
 20
389.0
 10
230.0
 20
390.0
 10
230.0
 20
390.0
 10
231.0
 20
391.0
 10
231.0
 20
391.0
 10
231.0
 20
394.0
 10
231.0
 20
394.0
 10
230.0
 20
395.0
 10
230.0
 20
395.0
 10
230.0
 20
396.0
 10
230.0
 20
396.0
 10
212.0
 20
414.0
 10
212.0
 20
414.0
 10
212.0
 20
415.0
 10
212.0
 20
415.0
 10
202.0
 20
425.0
 10
202.0
 20
425.0
 10
202.0
 20
427.0
 10
202.0
 20
427.0
 10
206.0
 20
427.0
 10
206.0
 20
427.0
 10
211.0
 20
422.0
 10
211.0
 20
422.0
 10
211.0
 20
421.0
 10
211.0
 20
421.0
 10
235.0
 20
397.0
 10
235.0
 20
397.0
 10
235.0
 20
396.0
 10
235.0
 20
396.0
 10
245.0
 20
386.0
 10
245.0
 20
386.0
 10
247.0
 20
386.0
 10
247.0
 20
386.0
 10
248.0
 20
387.0
 10
248.0
 20
387.0
 10
248.0
 20
388.0
 10
248.0
 20
388.0
 10
250.0
 20
390.0
 10
250.0
 20
390.0
 10
250.0
 20
391.0
 10
250.0
 20
391.0
 10
251.0
 20
392.0
 10
251.0
 20
392.0
 10
251.0
 20
393.0
 10
251.0
 20
393.0
 10
253.0
 20
395.0
 10
253.0
 20
395.0
 10
253.0
 20
396.0
 10
253.0
 20
396.0
 10
254.0
 20
397.0
 10
254.0
 20
397.0
 10
254.0
 20
398.0
 10
254.0
 20
398.0
 10
256.0
 20
400.0
 10
256.0
 20
400.0
 10
256.0
 20
401.0
 10
256.0
 20
401.0
 10
257.0
 20
402.0
 10
257.0
 20
402.0
 10
257.0
 20
403.0
 10
257.0
 20
403.0
 10
259.0
 20
405.0
 10
259.0
 20
405.0
 10
259.0
 20
406.0
 10
259.0
 20
406.0
 10
260.0
 20
407.0
 10
260.0
 20
407.0
 10
260.0
 20
408.0
 10
260.0
 20
408.0
 10
261.0
 20
409.0
 10
261.0
 20
409.0
 10
261.0
 20
413.0
 10
261.0
 20
413.0
 10
258.0
 20
416.0
 10
258.0
 20
416.0
 10
258.0
 20
417.0
 10
258.0
 20
417.0
 10
253.0
 20
422.0
 10
253.0
 20
422.0
 10
253.0
 20
423.0
 10
253.0
 20
423.0
 10
251.0
 20
425.0
 10
251.0
 20
425.0
 10
248.0
 20
425.0
 10
248.0
 20
425.0
 10
246.0
 20
423.0
 10
246.0
 20
423.0
 10
246.0
 20
422.0
 10
246.0
 20
422.0
 10
245.0
 20
421.0
 10
245.0
 20
421.0
 10
245.0
 20
420.0
 10
245.0
 20
420.0
 10
243.0
 20
418.0
 10
243.0
 20
418.0
 10
243.0
 20
417.0
 10
243.0
 20
417.0
 10
242.0
 20
416.0
 10
242.0
 20
416.0
 10
242.0
 20
415.0
 10
242.0
 20
415.0
 10
241.0
 20
414.0
 10
241.0
 20
414.0
 10
241.0
 20
413.0
 10
241.0
 20
413.0
 10
240.0
 20
412.0
 10
240.0
 20
412.0
 10
240.0
 20
411.0
 10
240.0
 20
411.0
 10
239.0
 20
410.0
 10
239.0
 20
410.0
 10
239.0
 20
408.0
 10
239.0
 20
408.0
 10
243.0
 20
404.0
 10
243.0
 20
404.0
 10
243.0
 20
403.0
 10
243.0
 20
403.0
 10
245.0
 20
401.0
 10
245.0
 20
401.0
 10
245.0
 20
398.0
 10
245.0
 20
398.0
 10
243.0
 20
398.0
 10
243.0
 20
398.0
 10
242.0
 20
399.0
 10
242.0
 20
399.0
 10
242.0
 20
400.0
 10
242.0
 20
400.0
 10
232.0
 20
410.0
 10
232.0
 20
410.0
 10
232.0
 20
411.0
 10
232.0
 20
411.0
 10
224.0
 20
419.0
 10
224.0
 20
419.0
 10
224.0
 20
420.0
 10
224.0
 20
420.0
 10
218.0
 20
426.0
 10
218.0
 20
426.0
 10
218.0
 20
427.0
 10
218.0
 20
427.0
 10
215.0
 20
430.0
 10
215.0
 20
430.0
 10
215.0
 20
432.0
 10
215.0
 20
432.0
 10
218.0
 20
432.0
 10
218.0
 20
432.0
 10
225.0
 20
425.0
 10
225.0
 20
425.0
 10
225.0
 20
424.0
 10
225.0
 20
424.0
 10
234.0
 20
415.0
 10
234.0
 20
415.0
 10
237.0
 20
415.0
 10
237.0
 20
415.0
 10
240.0
 20
418.0
 10
240.0
 20
418.0
 10
240.0
 20
419.0
 10
240.0
 20
419.0
 10
241.0
 20
420.0
 10
241.0
 20
420.0
 10
241.0
 20
421.0
 10
241.0
 20
421.0
 10
243.0
 20
423.0
 10
243.0
 20
423.0
 10
243.0
 20
424.0
 10
243.0
 20
424.0
 10
244.0
 20
425.0
 10
244.0
 20
425.0
 10
244.0
 20
426.0
 10
244.0
 20
426.0
 10
245.0
 20
427.0
 10
245.0
 20
427.0
 10
245.0
 20
428.0
 10
245.0
 20
428.0
 10
247.0
 20
430.0
 10
247.0
 20
430.0
 10
247.0
 20
431.0
 10
247.0
 20
431.0
 10
248.0
 20
432.0
 10
248.0
 20
432.0
 10
248.0
 20
433.0
 10
248.0
 20
433.0
 10
249.0
 20
434.0
 10
249.0
 20
434.0
 10
249.0
 20
435.0
 10
249.0
 20
435.0
 10
251.0
 20
437.0
 10
251.0
 20
437.0
 10
251.0
 20
438.0
 10
251.0
 20
438.0
 10
252.0
 20
439.0
 10
252.0
 20
439.0
 10
254.0
 20
439.0
 10
254.0
 20
439.0
 10
254.0
 20
437.0
 10
254.0
 20
437.0
 10
253.0
 20
436.0
 10
253.0
 20
436.0
 10
253.0
 20
435.0
 10
253.0
 20
435.0
 10
252.0
 20
434.0
 10
252.0
 20
434.0
 10
252.0
 20
430.0
 10
252.0
 20
430.0
 10
253.0
 20
429.0
 10
253.0
 20
429.0
 10
253.0
 20
428.0
 10
253.0
 20
428.0
 10
257.0
 20
424.0
 10
257.0
 20
424.0
 10
257.0
 20
423.0
 10
257.0
 20
423.0
 10
264.0
 20
416.0
 10
264.0
 20
416.0
 10
266.0
 20
416.0
 10
266.0
 20
416.0
 10
268.0
 20
418.0
 10
268.0
 20
418.0
 10
268.0
 20
419.0
 10
268.0
 20
419.0
 10
270.0
 20
421.0
 10
270.0
 20
421.0
 10
270.0
 20
422.0
 10
270.0
 20
422.0
 10
271.0
 20
423.0
 10
271.0
 20
423.0
 10
271.0
 20
424.0
 10
271.0
 20
424.0
 10
273.0
 20
426.0
 10
273.0
 20
426.0
 10
273.0
 20
427.0
 10
273.0
 20
427.0
 10
275.0
 20
429.0
 10
275.0
 20
429.0
 10
275.0
 20
430.0
 10
275.0
 20
430.0
 10
277.0
 20
432.0
 10
277.0
 20
432.0
 10
277.0
 20
433.0
 10
277.0
 20
433.0
 10
279.0
 20
435.0
 10
279.0
 20
435.0
 10
279.0
 20
436.0
 10
279.0
 20
436.0
 10
281.0
 20
438.0
 10
281.0
 20
438.0
 10
281.0
 20
439.0
 10
281.0
 20
439.0
 10
283.0
 20
441.0
 10
283.0
 20
441.0
 10
285.0
 20
441.0
 10
285.0
 20
441.0
 10
285.0
 20
439.0
 10
285.0
 20
439.0
 10
284.0
 20
438.0
 10
284.0
 20
438.0
 10
284.0
 20
437.0
 10
284.0
 20
437.0
 10
283.0
 20
436.0
 10
283.0
 20
436.0
 10
283.0
 20
435.0
 10
283.0
 20
435.0
 10
281.0
 20
433.0
 10
281.0
 20
433.0
 10
281.0
 20
432.0
 10
281.0
 20
432.0
 10
280.0
 20
431.0
 10
280.0
 20
431.0
 10
280.0
 20
430.0
 10
280.0
 20
430.0
 10
278.0
 20
428.0
 10
278.0
 20
428.0
 10
278.0
 20
427.0
 10
278.0
 20
427.0
 10
277.0
 20
426.0
 10
277.0
 20
426.0
 10
277.0
 20
425.0
 10
277.0
 20
425.0
 10
275.0
 20
423.0
 10
275.0
 20
423.0
 10
275.0
 20
422.0
 10
275.0
 20
422.0
 10
273.0
 20
420.0
 10
273.0
 20
420.0
 10
273.0
 20
419.0
 10
273.0
 20
419.0
 10
271.0
 20
417.0
 10
271.0
 20
417.0
 10
271.0
 20
416.0
 10
271.0
 20
416.0
 10
270.0
 20
415.0
 10
270.0
 20
415.0
 10
270.0
 20
414.0
 10
270.0
 20
414.0
 10
268.0
 20
412.0
 10
268.0
 20
412.0
 10
268.0
 20
411.0
 10
268.0
 20
411.0
 10
266.0
 20
409.0
 10
266.0
 20
409.0
 10
266.0
 20
408.0
 10
266.0
 20
408.0
 10
265.0
 20
407.0
 10
265.0
 20
407.0
 10
265.0
 20
406.0
 10
265.0
 20
406.0
 10
263.0
 20
404.0
 10
263.0
 20
404.0
 10
263.0
 20
403.0
 10
263.0
 20
403.0
 10
261.0
 20
401.0
 10
261.0
 20
401.0
 10
261.0
 20
400.0
 10
261.0
 20
400.0
 10
260.0
 20
399.0
 10
260.0
 20
399.0
 10
260.0
 20
398.0
 10
260.0
 20
398.0
 10
259.0
 20
397.0
 10
259.0
 20
397.0
 10
259.0
 20
392.0
 10
259.0
 20
392.0
 10
268.0
 20
383.0
 10
268.0
 20
383.0
 10
268.0
 20
382.0
 10
268.0
 20
382.0
 10
279.0
 20
371.0
 10
279.0
 20
371.0
 10
279.0
 20
370.0
 10
279.0
 20
370.0
 10
285.0
 20
364.0
 10
285.0
 20
364.0
 10
285.0
 20
362.0
 10
285.0
 20
362.0
 10
281.0
 20
362.0
  0
LWPOLYLINE
  5
3E
330
17
100
AcDbEntity
  8
0
100
AcDbPolyline
 90
490
 70
0
 10
336.0
 20
360.0
 10
335.0
 20
361.0
 10
335.0
 20
361.0
 10
333.0
 20
361.0
 10
333.0
 20
361.0
 10
332.0
 20
362.0
 10
332.0
 20
362.0
 10
330.0
 20
362.0
 10
330.0
 20
362.0
 10
328.0
 20
364.0
 10
328.0
 20
364.0
 10
327.0
 20
364.0
 10
327.0
 20
364.0
 10
313.0
 20
378.0
 10
313.0
 20
378.0
 10
313.0
 20
379.0
 10
313.0
 20
379.0
 10
308.0
 20
384.0
 10
308.0
 20
384.0
 10
308.0
 20
385.0
 10
308.0
 20
385.0
 10
304.0
 20
389.0
 10
304.0
 20
389.0
 10
304.0
 20
390.0
 10
304.0
 20
390.0
 10
300.0
 20
394.0
 10
300.0
 20
394.0
 10
300.0
 20
395.0
 10
300.0
 20
395.0
 10
298.0
 20
397.0
 10
298.0
 20
397.0
 10
298.0
 20
398.0
 10
298.0
 20
398.0
 10
297.0
 20
399.0
 10
297.0
 20
399.0
 10
297.0
 20
402.0
 10
297.0
 20
402.0
 10
298.0
 20
403.0
 10
298.0
 20
403.0
 10
298.0
 20
404.0
 10
298.0
 20
404.0
 10
299.0
 20
405.0
 10
299.0
 20
405.0
 10
299.0
 20
406.0
 10
299.0
 20
406.0
 10
300.0
 20
407.0
 10
300.0
 20
407.0
 10
300.0
 20
408.0
 10
300.0
 20
408.0
 10
301.0
 20
409.0
 10
301.0
 20
409.0
 10
301.0
 20
410.0
 10
301.0
 20
410.0
 10
302.0
 20
411.0
 10
302.0
 20
411.0
 10
302.0
 20
412.0
 10
302.0
 20
412.0
 10
304.0
 20
414.0
 10
304.0
 20
414.0
 10
304.0
 20
415.0
 10
304.0
 20
415.0
 10
305.0
 20
416.0
 10
305.0
 20
416.0
 10
305.0
 20
417.0
 10
305.0
 20
417.0
 10
306.0
 20
418.0
 10
306.0
 20
418.0
 10
306.0
 20
419.0
 10
306.0
 20
419.0
 10
307.0
 20
420.0
 10
307.0
 20
420.0
 10
307.0
 20
421.0
 10
307.0
 20
421.0
 10
309.0
 20
423.0
 10
309.0
 20
423.0
 10
309.0
 20
424.0
 10
309.0
 20
424.0
 10
310.0
 20
425.0
 10
310.0
 20
425.0
 10
310.0
 20
426.0
 10
310.0
 20
426.0
 10
311.0
 20
427.0
 10
311.0
 20
427.0
 10
311.0
 20
428.0
 10
311.0
 20
428.0
 10
313.0
 20
430.0
 10
313.0
 20
430.0
 10
313.0
 20
431.0
 10
313.0
 20
431.0
 10
314.0
 20
432.0
 10
314.0
 20
432.0
 10
314.0
 20
433.0
 10
314.0
 20
433.0
 10
316.0
 20
435.0
 10
316.0
 20
435.0
 10
316.0
 20
436.0
 10
316.0
 20
436.0
 10
317.0
 20
437.0
 10
317.0
 20
437.0
 10
317.0
 20
438.0
 10
317.0
 20
438.0
 10
318.0
 20
439.0
 10
318.0
 20
439.0
 10
320.0
 20
439.0
 10
320.0
 20
439.0
 10
320.0
 20
437.0
 10
320.0
 20
437.0
 10
319.0
 20
436.0
 10
319.0
 20
436.0
 10
319.0
 20
435.0
 10
319.0
 20
435.0
 10
318.0
 20
434.0
 10
318.0
 20
434.0
 10
318.0
 20
433.0
 10
318.0
 20
433.0
 10
317.0
 20
432.0
 10
317.0
 20
432.0
 10
317.0
 20
431.0
 10
317.0
 20
431.0
 10
316.0
 20
430.0
 10
316.0
 20
430.0
 10
316.0
 20
429.0
 10
316.0
 20
429.0
 10
315.0
 20
428.0
 10
315.0
 20
428.0
 10
315.0
 20
427.0
 10
315.0
 20
427.0
 10
314.0
 20
426.0
 10
314.0
 20
426.0
 10
314.0
 20
425.0
 10
314.0
 20
425.0
 10
313.0
 20
424.0
 10
313.0
 20
424.0
 10
313.0
 20
423.0
 10
313.0
 20
423.0
 10
312.0
 20
422.0
 10
312.0
 20
422.0
 10
312.0
 20
421.0
 10
312.0
 20
421.0
 10
311.0
 20
420.0
 10
311.0
 20
420.0
 10
311.0
 20
419.0
 10
311.0
 20
419.0
 10
309.0
 20
417.0
 10
309.0
 20
417.0
 10
309.0
 20
416.0
 10
309.0
 20
416.0
 10
308.0
 20
415.0
 10
308.0
 20
415.0
 10
308.0
 20
414.0
 10
308.0
 20
414.0
 10
307.0
 20
413.0
 10
307.0
 20
413.0
 10
307.0
 20
412.0
 10
307.0
 20
412.0
 10
306.0
 20
411.0
 10
306.0
 20
411.0
 10
306.0
 20
410.0
 10
306.0
 20
410.0
 10
305.0
 20
409.0
 10
305.0
 20
409.0
 10
305.0
 20
408.0
 10
305.0
 20
408.0
 10
304.0
 20
407.0
 10
304.0
 20
407.0
 10
304.0
 20
406.0
 10
304.0
 20
406.0
 10
303.0
 20
405.0
 10
303.0
 20
405.0
 10
303.0
 20
404.0
 10
303.0
 20
404.0
 10
302.0
 20
403.0
 10
302.0
 20
403.0
 10
302.0
 20
399.0
 10
302.0
 20
399.0
 10
303.0
 20
398.0
 10
303.0
 20
398.0
 10
303.0
 20
397.0
 10
303.0
 20
397.0
 10
305.0
 20
395.0
 10
305.0
 20
395.0
 10
305.0
 20
394.0
 10
305.0
 20
394.0
 10
309.0
 20
390.0
 10
309.0
 20
390.0
 10
309.0
 20
389.0
 10
309.0
 20
389.0
 10
318.0
 20
380.0
 10
318.0
 20
380.0
 10
319.0
 20
380.0
 10
319.0
 20
380.0
 10
320.0
 20
379.0
 10
320.0
 20
379.0
 10
321.0
 20
379.0
 10
321.0
 20
379.0
 10
322.0
 20
378.0
 10
322.0
 20
378.0
 10
324.0
 20
378.0
 10
324.0
 20
378.0
 10
325.0
 20
377.0
 10
325.0
 20
377.0
 10
330.0
 20
377.0
 10
330.0
 20
377.0
 10
331.0
 20
378.0
 10
331.0
 20
378.0
 10
331.0
 20
380.0
 10
331.0
 20
380.0
 10
330.0
 20
381.0
 10
330.0
 20
381.0
 10
329.0
 20
381.0
 10
329.0
 20
381.0
 10
327.0
 20
383.0
 10
327.0
 20
383.0
 10
326.0
 20
383.0
 10
326.0
 20
383.0
 10
324.0
 20
385.0
 10
324.0
 20
385.0
 10
323.0
 20
385.0
 10
323.0
 20
385.0
 10
315.0
 20
393.0
 10
315.0
 20
393.0
 10
315.0
 20
394.0
 10
315.0
 20
394.0
 10
311.0
 20
398.0
 10
311.0
 20
398.0
 10
311.0
 20
403.0
 10
311.0
 20
403.0
 10
313.0
 20
405.0
 10
313.0
 20
405.0
 10
313.0
 20
406.0
 10
313.0
 20
406.0
 10
322.0
 20
415.0
 10
322.0
 20
415.0
 10
323.0
 20
415.0
 10
323.0
 20
415.0
 10
325.0
 20
417.0
 10
325.0
 20
417.0
 10
326.0
 20
417.0
 10
326.0
 20
417.0
 10
327.0
 20
418.0
 10
327.0
 20
418.0
 10
328.0
 20
418.0
 10
328.0
 20
418.0
 10
329.0
 20
419.0
 10
329.0
 20
419.0
 10
330.0
 20
419.0
 10
330.0
 20
419.0
 10
331.0
 20
420.0
 10
331.0
 20
420.0
 10
332.0
 20
420.0
 10
332.0
 20
420.0
 10
333.0
 20
421.0
 10
333.0
 20
421.0
 10
335.0
 20
421.0
 10
335.0
 20
421.0
 10
336.0
 20
422.0
 10
336.0
 20
422.0
 10
340.0
 20
422.0
 10
340.0
 20
422.0
 10
341.0
 20
423.0
 10
341.0
 20
423.0
 10
343.0
 20
423.0
 10
343.0
 20
423.0
 10
344.0
 20
424.0
 10
344.0
 20
424.0
 10
344.0
 20
427.0
 10
344.0
 20
427.0
 10
336.0
 20
435.0
 10
336.0
 20
435.0
 10
336.0
 20
437.0
 10
336.0
 20
437.0
 10
340.0
 20
437.0
 10
340.0
 20
437.0
 10
341.0
 20
436.0
 10
341.0
 20
436.0
 10
344.0
 20
436.0
 10
344.0
 20
436.0
 10
345.0
 20
435.0
 10
345.0
 20
435.0
 10
348.0
 20
435.0
 10
348.0
 20
435.0
 10
349.0
 20
434.0
 10
349.0
 20
434.0
 10
352.0
 20
434.0
 10
352.0
 20
434.0
 10
353.0
 20
433.0
 10
353.0
 20
433.0
 10
355.0
 20
433.0
 10
355.0
 20
433.0
 10
356.0
 20
432.0
 10
356.0
 20
432.0
 10
358.0
 20
432.0
 10
358.0
 20
432.0
 10
359.0
 20
431.0
 10
359.0
 20
431.0
 10
361.0
 20
431.0
 10
361.0
 20
431.0
 10
362.0
 20
430.0
 10
362.0
 20
430.0
 10
364.0
 20
430.0
 10
364.0
 20
430.0
 10
365.0
 20
429.0
 10
365.0
 20
429.0
 10
366.0
 20
429.0
 10
366.0
 20
429.0
 10
367.0
 20
428.0
 10
367.0
 20
428.0
 10
369.0
 20
428.0
 10
369.0
 20
428.0
 10
370.0
 20
427.0
 10
370.0
 20
427.0
 10
371.0
 20
427.0
 10
371.0
 20
427.0
 10
372.0
 20
426.0
 10
372.0
 20
426.0
 10
374.0
 20
426.0
 10
374.0
 20
426.0
 10
375.0
 20
425.0
 10
375.0
 20
425.0
 10
376.0
 20
425.0
 10
376.0
 20
425.0
 10
377.0
 20
424.0
 10
377.0
 20
424.0
 10
378.0
 20
424.0
 10
378.0
 20
424.0
 10
379.0
 20
423.0
 10
379.0
 20
423.0
 10
381.0
 20
423.0
 10
381.0
 20
423.0
 10
382.0
 20
422.0
 10
382.0
 20
422.0
 10
383.0
 20
422.0
 10
383.0
 20
422.0
 10
384.0
 20
421.0
 10
384.0
 20
421.0
 10
386.0
 20
421.0
 10
386.0
 20
421.0
 10
387.0
 20
420.0
 10
387.0
 20
420.0
 10
388.0
 20
420.0
 10
388.0
 20
420.0
 10
389.0
 20
419.0
 10
389.0
 20
419.0
 10
390.0
 20
419.0
 10
390.0
 20
419.0
 10
391.0
 20
418.0
 10
391.0
 20
418.0
 10
393.0
 20
418.0
 10
393.0
 20
418.0
 10
394.0
 20
417.0
 10
394.0
 20
417.0
 10
396.0
 20
417.0
 10
396.0
 20
417.0
 10
397.0
 20
416.0
 10
397.0
 20
416.0
 10
398.0
 20
416.0
 10
398.0
 20
416.0
 10
399.0
 20
415.0
 10
399.0
 20
415.0
 10
401.0
 20
415.0
 10
401.0
 20
415.0
 10
402.0
 20
414.0
 10
402.0
 20
414.0
 10
404.0
 20
414.0
 10
404.0
 20
414.0
 10
405.0
 20
413.0
 10
405.0
 20
413.0
 10
407.0
 20
413.0
 10
407.0
 20
413.0
 10
408.0
 20
412.0
 10
408.0
 20
412.0
 10
411.0
 20
412.0
 10
411.0
 20
412.0
 10
412.0
 20
411.0
 10
412.0
 20
411.0
 10
415.0
 20
411.0
 10
415.0
 20
411.0
 10
416.0
 20
410.0
 10
416.0
 20
410.0
 10
421.0
 20
410.0
 10
421.0
 20
410.0
 10
422.0
 20
409.0
 10
422.0
 20
409.0
 10
427.0
 20
409.0
 10
427.0
 20
409.0
 10
427.0
 20
406.0
 10
427.0
 20
406.0
 10
425.0
 20
404.0
 10
425.0
 20
404.0
 10
425.0
 20
403.0
 10
425.0
 20
403.0
 10
415.0
 20
393.0
 10
415.0
 20
393.0
 10
414.0
 20
393.0
 10
414.0
 20
393.0
 10
410.0
 20
389.0
 10
410.0
 20
389.0
 10
409.0
 20
389.0
 10
409.0
 20
389.0
 10
406.0
 20
386.0
 10
406.0
 20
386.0
 10
405.0
 20
386.0
 10
405.0
 20
386.0
 10
403.0
 20
384.0
 10
403.0
 20
384.0
 10
402.0
 20
384.0
 10
402.0
 20
384.0
 10
400.0
 20
382.0
 10
400.0
 20
382.0
 10
399.0
 20
382.0
 10
399.0
 20
382.0
 10
397.0
 20
380.0
 10
397.0
 20
380.0
 10
396.0
 20
380.0
 10
396.0
 20
380.0
 10
395.0
 20
379.0
 10
395.0
 20
379.0
 10
394.0
 20
379.0
 10
394.0
 20
379.0
 10
393.0
 20
378.0
 10
393.0
 20
378.0
 10
392.0
 20
378.0
 10
392.0
 20
378.0
 10
391.0
 20
377.0
 10
391.0
 20
377.0
 10
390.0
 20
377.0
 10
390.0
 20
377.0
 10
388.0
 20
375.0
 10
388.0
 20
375.0
 10
387.0
 20
375.0
 10
387.0
 20
375.0
 10
386.0
 20
374.0
 10
386.0
 20
374.0
 10
384.0
 20
374.0
 10
384.0
 20
374.0
 10
383.0
 20
373.0
 10
383.0
 20
373.0
 10
382.0
 20
373.0
 10
382.0
 20
373.0
 10
381.0
 20
372.0
 10
381.0
 20
372.0
 10
380.0
 20
372.0
 10
380.0
 20
372.0
 10
379.0
 20
371.0
 10
379.0
 20
371.0
 10
377.0
 20
371.0
 10
377.0
 20
371.0
 10
376.0
 20
370.0
 10
376.0
 20
370.0
 10
375.0
 20
370.0
 10
375.0
 20
370.0
 10
374.0
 20
369.0
 10
374.0
 20
369.0
 10
372.0
 20
369.0
 10
372.0
 20
369.0
 10
371.0
 20
368.0
 10
371.0
 20
368.0
 10
369.0
 20
368.0
 10
369.0
 20
368.0
 10
368.0
 20
367.0
 10
368.0
 20
367.0
 10
367.0
 20
367.0
 10
367.0
 20
367.0
 10
366.0
 20
366.0
 10
366.0
 20
366.0
 10
363.0
 20
366.0
 10
363.0
 20
366.0
 10
362.0
 20
365.0
 10
362.0
 20
365.0
 10
360.0
 20
365.0
 10
360.0
 20
365.0
 10
359.0
 20
364.0
 10
359.0
 20
364.0
 10
356.0
 20
364.0
 10
356.0
 20
364.0
 10
355.0
 20
363.0
 10
355.0
 20
363.0
 10
352.0
 20
363.0
 10
352.0
 20
363.0
 10
351.0
 20
362.0
 10
351.0
 20
362.0
 10
348.0
 20
362.0
 10
348.0
 20
362.0
 10
347.0
 20
361.0
 10
347.0
 20
361.0
 10
342.0
 20
361.0
 10
342.0
 20
361.0
 10
341.0
 20
360.0
 10
341.0
 20
360.0
 10
336.0
 20
360.0
  0
LWPOLYLINE
  5
3F
330
17
100
AcDbEntity
  8
0
100
AcDbPolyline
 90
28
 70
0
 10
369.0
 20
409.0
 10
370.0
 20
408.0
 10
370.0
 20
408.0
 10
377.0
 20
408.0
 10
377.0
 20
408.0
 10
378.0
 20
409.0
 10
378.0
 20
409.0
 10
385.0
 20
409.0
 10
385.0
 20
409.0
 10
386.0
 20
410.0
 10
386.0
 20
410.0
 10
386.0
 20
412.0
 10
386.0
 20
412.0
 10
385.0
 20
413.0
 10
385.0
 20
413.0
 10
383.0
 20
413.0
 10
383.0
 20
413.0
 10
382.0
 20
414.0
 10
382.0
 20
414.0
 10
363.0
 20
414.0
 10
363.0
 20
414.0
 10
362.0
 20
413.0
 10
362.0
 20
413.0
 10
362.0
 20
410.0
 10
362.0
 20
410.0
 10
363.0
 20
409.0
 10
363.0
 20
409.0
 10
369.0
 20
409.0
  0
LWPOLYLINE
  5
40
330
17
100
AcDbEntity
  8
0
100
AcDbPolyline
 90
44
 70
0
 10
356.0
 20
396.0
 10
357.0
 20
395.0
 10
357.0
 20
395.0
 10
359.0
 20
395.0
 10
359.0
 20
395.0
 10
360.0
 20
396.0
 10
360.0
 20
396.0
 10
361.0
 20
396.0
 10
361.0
 20
396.0
 10
363.0
 20
398.0
 10
363.0
 20
398.0
 10
364.0
 20
398.0
 10
364.0
 20
398.0
 10
365.0
 20
399.0
 10
365.0
 20
399.0
 10
365.0
 20
401.0
 10
365.0
 20
401.0
 10
363.0
 20
403.0
 10
363.0
 20
403.0
 10
362.0
 20
403.0
 10
362.0
 20
403.0
 10
361.0
 20
404.0
 10
361.0
 20
404.0
 10
356.0
 20
404.0
 10
356.0
 20
404.0
 10
355.0
 20
403.0
 10
355.0
 20
403.0
 10
354.0
 20
403.0
 10
354.0
 20
403.0
 10
353.0
 20
402.0
 10
353.0
 20
402.0
 10
352.0
 20
402.0
 10
352.0
 20
402.0
 10
351.0
 20
401.0
 10
351.0
 20
401.0
 10
351.0
 20
399.0
 10
351.0
 20
399.0
 10
352.0
 20
398.0
 10
352.0
 20
398.0
 10
353.0
 20
398.0
 10
353.0
 20
398.0
 10
355.0
 20
396.0
 10
355.0
 20
396.0
 10
356.0
 20
396.0
  0
LWPOLYLINE
  5
41
330
17
100
AcDbEntity
  8
0
100
AcDbPolyline
 90
68
 70
0
 10
320.0
 20
392.0
 10
324.0
 20
392.0
 10
324.0
 20
392.0
 10
325.0
 20
393.0
 10
325.0
 20
393.0
 10
326.0
 20
393.0
 10
326.0
 20
393.0
 10
327.0
 20
394.0
 10
327.0
 20
394.0
 10
328.0
 20
394.0
 10
328.0
 20
394.0
 10
329.0
 20
395.0
 10
329.0
 20
395.0
 10
331.0
 20
395.0
 10
331.0
 20
395.0
 10
332.0
 20
396.0
 10
332.0
 20
396.0
 10
333.0
 20
396.0
 10
333.0
 20
396.0
 10
334.0
 20
397.0
 10
334.0
 20
397.0
 10
336.0
 20
397.0
 10
336.0
 20
397.0
 10
337.0
 20
398.0
 10
337.0
 20
398.0
 10
338.0
 20
398.0
 10
338.0
 20
398.0
 10
339.0
 20
399.0
 10
339.0
 20
399.0
 10
339.0
 20
401.0
 10
339.0
 20
401.0
 10
337.0
 20
403.0
 10
337.0
 20
403.0
 10
335.0
 20
403.0
 10
335.0
 20
403.0
 10
334.0
 20
404.0
 10
334.0
 20
404.0
 10
332.0
 20
404.0
 10
332.0
 20
404.0
 10
331.0
 20
405.0
 10
331.0
 20
405.0
 10
330.0
 20
405.0
 10
330.0
 20
405.0
 10
329.0
 20
406.0
 10
329.0
 20
406.0
 10
327.0
 20
406.0
 10
327.0
 20
406.0
 10
326.0
 20
407.0
 10
326.0
 20
407.0
 10
325.0
 20
407.0
 10
325.0
 20
407.0
 10
324.0
 20
408.0
 10
324.0
 20
408.0
 10
320.0
 20
408.0
 10
320.0
 20
408.0
 10
316.0
 20
404.0
 10
316.0
 20
404.0
 10
316.0
 20
403.0
 10
316.0
 20
403.0
 10
315.0
 20
402.0
 10
315.0
 20
402.0
 10
315.0
 20
398.0
 10
315.0
 20
398.0
 10
318.0
 20
395.0
 10
318.0
 20
395.0
 10
318.0
 20
394.0
 10
318.0
 20
394.0
 10
320.0
 20
392.0
  0
LWPOLYLINE
  5
42
330
17
100
AcDbEntity
  8
0
100
AcDbPolyline
 90
28
 70
0
 10
374.0
 20
390.0
 10
375.0
 20
389.0
 10
375.0
 20
389.0
 10
380.0
 20
389.0
 10
380.0
 20
389.0
 10
381.0
 20
390.0
 10
381.0
 20
390.0
 10
389.0
 20
390.0
 10
389.0
 20
390.0
 10
390.0
 20
391.0
 10
390.0
 20
391.0
 10
390.0
 20
393.0
 10
390.0
 20
393.0
 10
388.0
 20
395.0
 10
388.0
 20
395.0
 10
373.0
 20
395.0
 10
373.0
 20
395.0
 10
372.0
 20
394.0
 10
372.0
 20
394.0
 10
370.0
 20
394.0
 10
370.0
 20
394.0
 10
369.0
 20
393.0
 10
369.0
 20
393.0
 10
369.0
 20
391.0
 10
369.0
 20
391.0
 10
370.0
 20
390.0
 10
370.0
 20
390.0
 10
374.0
 20
390.0
  0
LWPOLYLINE
  5
43
330
17
100
AcDbEntity
  8
0
100
AcDbPolyline
 90
24
 70
0
 10
364.0
 20
382.0
 10
365.0
 20
381.0
 10
365.0
 20
381.0
 10
376.0
 20
381.0
 10
376.0
 20
381.0
 10
377.0
 20
382.0
 10
377.0
 20
382.0
 10
377.0
 20
384.0
 10
377.0
 20
384.0
 10
376.0
 20
385.0
 10
376.0
 20
385.0
 10
370.0
 20
385.0
 10
370.0
 20
385.0
 10
369.0
 20
386.0
 10
369.0
 20
386.0
 10
360.0
 20
386.0
 10
360.0
 20
386.0
 10
359.0
 20
385.0
 10
359.0
 20
385.0
 10
359.0
 20
383.0
 10
359.0
 20
383.0
 10
360.0
 20
382.0
 10
360.0
 20
382.0
 10
364.0
 20
382.0
  0
LWPOLYLINE
  5
44
330
17
100
AcDbEntity
  8
0
100
AcDbPolyline
 90
76
 70
0
 10
301.0
 20
360.0
 10
300.0
 20
361.0
 10
300.0
 20
361.0
 10
299.0
 20
361.0
 10
299.0
 20
361.0
 10
288.0
 20
372.0
 10
288.0
 20
372.0
 10
288.0
 20
375.0
 10
288.0
 20
375.0
 10
289.0
 20
376.0
 10
289.0
 20
376.0
 10
289.0
 20
377.0
 10
289.0
 20
377.0
 10
290.0
 20
378.0
 10
290.0
 20
378.0
 10
290.0
 20
379.0
 10
290.0
 20
379.0
 10
291.0
 20
380.0
 10
291.0
 20
380.0
 10
291.0
 20
381.0
 10
291.0
 20
381.0
 10
292.0
 20
382.0
 10
292.0
 20
382.0
 10
292.0
 20
383.0
 10
292.0
 20
383.0
 10
294.0
 20
385.0
 10
294.0
 20
385.0
 10
294.0
 20
386.0
 10
294.0
 20
386.0
 10
297.0
 20
386.0
 10
297.0
 20
386.0
 10
297.0
 20
385.0
 10
297.0
 20
385.0
 10
300.0
 20
382.0
 10
300.0
 20
382.0
 10
300.0
 20
381.0
 10
300.0
 20
381.0
 10
304.0
 20
377.0
 10
304.0
 20
377.0
 10
304.0
 20
376.0
 10
304.0
 20
376.0
 10
310.0
 20
370.0
 10
310.0
 20
370.0
 10
310.0
 20
369.0
 10
310.0
 20
369.0
 10
317.0
 20
362.0
 10
317.0
 20
362.0
 10
317.0
 20
360.0
 10
317.0
 20
360.0
 10
314.0
 20
360.0
 10
314.0
 20
360.0
 10
304.0
 20
370.0
 10
304.0
 20
370.0
 10
304.0
 20
371.0
 10
304.0
 20
371.0
 10
299.0
 20
376.0
 10
299.0
 20
376.0
 10
299.0
 20
377.0
 10
299.0
 20
377.0
 10
297.0
 20
379.0
 10
297.0
 20
379.0
 10
294.0
 20
379.0
 10
294.0
 20
379.0
 10
293.0
 20
378.0
 10
293.0
 20
378.0
 10
293.0
 20
373.0
 10
293.0
 20
373.0
 10
302.0
 20
364.0
 10
302.0
 20
364.0
 10
302.0
 20
363.0
 10
302.0
 20
363.0
 10
303.0
 20
362.0
 10
303.0
 20
362.0
 10
303.0
 20
360.0
 10
303.0
 20
360.0
 10
301.0
 20
360.0
  0
LWPOLYLINE
  5
45
330
17
100
AcDbEntity
  8
0
100
AcDbPolyline
 90
216
 70
0
 10
185.0
 20
347.0
 10
182.0
 20
350.0
 10
182.0
 20
350.0
 10
181.0
 20
350.0
 10
181.0
 20
350.0
 10
174.0
 20
357.0
 10
174.0
 20
357.0
 10
174.0
 20
359.0
 10
174.0
 20
359.0
 10
175.0
 20
360.0
 10
175.0
 20
360.0
 10
175.0
 20
362.0
 10
175.0
 20
362.0
 10
176.0
 20
363.0
 10
176.0
 20
363.0
 10
176.0
 20
365.0
 10
176.0
 20
365.0
 10
177.0
 20
366.0
 10
177.0
 20
366.0
 10
177.0
 20
369.0
 10
177.0
 20
369.0
 10
178.0
 20
370.0
 10
178.0
 20
370.0
 10
178.0
 20
372.0
 10
178.0
 20
372.0
 10
179.0
 20
373.0
 10
179.0
 20
373.0
 10
179.0
 20
376.0
 10
179.0
 20
376.0
 10
180.0
 20
377.0
 10
180.0
 20
377.0
 10
180.0
 20
379.0
 10
180.0
 20
379.0
 10
181.0
 20
380.0
 10
181.0
 20
380.0
 10
181.0
 20
384.0
 10
181.0
 20
384.0
 10
165.0
 20
400.0
 10
165.0
 20
400.0
 10
165.0
 20
403.0
 10
165.0
 20
403.0
 10
167.0
 20
403.0
 10
167.0
 20
403.0
 10
170.0
 20
400.0
 10
170.0
 20
400.0
 10
171.0
 20
400.0
 10
171.0
 20
400.0
 10
180.0
 20
391.0
 10
180.0
 20
391.0
 10
183.0
 20
391.0
 10
183.0
 20
391.0
 10
184.0
 20
392.0
 10
184.0
 20
392.0
 10
184.0
 20
393.0
 10
184.0
 20
393.0
 10
185.0
 20
394.0
 10
185.0
 20
394.0
 10
185.0
 20
396.0
 10
185.0
 20
396.0
 10
186.0
 20
397.0
 10
186.0
 20
397.0
 10
186.0
 20
398.0
 10
186.0
 20
398.0
 10
187.0
 20
399.0
 10
187.0
 20
399.0
 10
187.0
 20
400.0
 10
187.0
 20
400.0
 10
188.0
 20
401.0
 10
188.0
 20
401.0
 10
188.0
 20
402.0
 10
188.0
 20
402.0
 10
189.0
 20
403.0
 10
189.0
 20
403.0
 10
189.0
 20
405.0
 10
189.0
 20
405.0
 10
190.0
 20
406.0
 10
190.0
 20
406.0
 10
190.0
 20
407.0
 10
190.0
 20
407.0
 10
191.0
 20
408.0
 10
191.0
 20
408.0
 10
191.0
 20
410.0
 10
191.0
 20
410.0
 10
192.0
 20
411.0
 10
192.0
 20
411.0
 10
192.0
 20
415.0
 10
192.0
 20
415.0
 10
188.0
 20
419.0
 10
188.0
 20
419.0
 10
188.0
 20
421.0
 10
188.0
 20
421.0
 10
191.0
 20
421.0
 10
191.0
 20
421.0
 10
192.0
 20
420.0
 10
192.0
 20
420.0
 10
193.0
 20
420.0
 10
193.0
 20
420.0
 10
196.0
 20
417.0
 10
196.0
 20
417.0
 10
196.0
 20
416.0
 10
196.0
 20
416.0
 10
197.0
 20
415.0
 10
197.0
 20
415.0
 10
197.0
 20
413.0
 10
197.0
 20
413.0
 10
196.0
 20
412.0
 10
196.0
 20
412.0
 10
196.0
 20
410.0
 10
196.0
 20
410.0
 10
195.0
 20
409.0
 10
195.0
 20
409.0
 10
195.0
 20
408.0
 10
195.0
 20
408.0
 10
194.0
 20
407.0
 10
194.0
 20
407.0
 10
194.0
 20
405.0
 10
194.0
 20
405.0
 10
193.0
 20
404.0
 10
193.0
 20
404.0
 10
193.0
 20
403.0
 10
193.0
 20
403.0
 10
192.0
 20
402.0
 10
192.0
 20
402.0
 10
192.0
 20
401.0
 10
192.0
 20
401.0
 10
191.0
 20
400.0
 10
191.0
 20
400.0
 10
191.0
 20
398.0
 10
191.0
 20
398.0
 10
190.0
 20
397.0
 10
190.0
 20
397.0
 10
190.0
 20
396.0
 10
190.0
 20
396.0
 10
189.0
 20
395.0
 10
189.0
 20
395.0
 10
189.0
 20
393.0
 10
189.0
 20
393.0
 10
188.0
 20
392.0
 10
188.0
 20
392.0
 10
188.0
 20
391.0
 10
188.0
 20
391.0
 10
187.0
 20
390.0
 10
187.0
 20
390.0
 10
187.0
 20
385.0
 10
187.0
 20
385.0
 10
189.0
 20
383.0
 10
189.0
 20
383.0
 10
189.0
 20
382.0
 10
189.0
 20
382.0
 10
195.0
 20
376.0
 10
195.0
 20
376.0
 10
196.0
 20
376.0
 10
196.0
 20
376.0
 10
206.0
 20
366.0
 10
206.0
 20
366.0
 10
206.0
 20
361.0
 10
206.0
 20
361.0
 10
203.0
 20
358.0
 10
203.0
 20
358.0
 10
201.0
 20
358.0
 10
201.0
 20
358.0
 10
201.0
 20
360.0
 10
201.0
 20
360.0
 10
202.0
 20
361.0
 10
202.0
 20
361.0
 10
202.0
 20
364.0
 10
202.0
 20
364.0
 10
201.0
 20
365.0
 10
201.0
 20
365.0
 10
201.0
 20
366.0
 10
201.0
 20
366.0
 10
198.0
 20
369.0
 10
198.0
 20
369.0
 10
197.0
 20
369.0
 10
197.0
 20
369.0
 10
187.0
 20
379.0
 10
187.0
 20
379.0
 10
185.0
 20
379.0
 10
185.0
 20
379.0
 10
184.0
 20
378.0
 10
184.0
 20
378.0
 10
184.0
 20
376.0
 10
184.0
 20
376.0
 10
183.0
 20
375.0
 10
183.0
 20
375.0
 10
183.0
 20
373.0
 10
183.0
 20
373.0
 10
182.0
 20
372.0
 10
182.0
 20
372.0
 10
182.0
 20
370.0
 10
182.0
 20
370.0
 10
181.0
 20
369.0
 10
181.0
 20
369.0
 10
181.0
 20
367.0
 10
181.0
 20
367.0
 10
180.0
 20
366.0
 10
180.0
 20
366.0
 10
180.0
 20
363.0
 10
180.0
 20
363.0
 10
179.0
 20
362.0
 10
179.0
 20
362.0
 10
179.0
 20
358.0
 10
179.0
 20
358.0
 10
180.0
 20
357.0
 10
180.0
 20
357.0
 10
180.0
 20
356.0
 10
180.0
 20
356.0
 10
181.0
 20
355.0
 10
181.0
 20
355.0
 10
182.0
 20
355.0
 10
182.0
 20
355.0
 10
187.0
 20
350.0
 10
187.0
 20
350.0
 10
187.0
 20
347.0
 10
187.0
 20
347.0
 10
185.0
 20
347.0
  0
LWPOLYLINE
  5
46
330
17
100
AcDbEntity
  8
0
100
AcDbPolyline
 90
70
 70
0
 10
179.0
 20
338.0
 10
177.0
 20
340.0
 10
177.0
 20
340.0
 10
176.0
 20
340.0
 10
176.0
 20
340.0
 10
173.0
 20
343.0
 10
173.0
 20
343.0
 10
172.0
 20
343.0
 10
172.0
 20
343.0
 10
169.0
 20
346.0
 10
169.0
 20
346.0
 10
168.0
 20
346.0
 10
168.0
 20
346.0
 10
165.0
 20
349.0
 10
165.0
 20
349.0
 10
164.0
 20
349.0
 10
164.0
 20
349.0
 10
161.0
 20
352.0
 10
161.0
 20
352.0
 10
160.0
 20
352.0
 10
160.0
 20
352.0
 10
157.0
 20
355.0
 10
157.0
 20
355.0
 10
156.0
 20
355.0
 10
156.0
 20
355.0
 10
153.0
 20
358.0
 10
153.0
 20
358.0
 10
152.0
 20
358.0
 10
152.0
 20
358.0
 10
148.0
 20
362.0
 10
148.0
 20
362.0
 10
148.0
 20
365.0
 10
148.0
 20
365.0
 10
150.0
 20
365.0
 10
150.0
 20
365.0
 10
152.0
 20
363.0
 10
152.0
 20
363.0
 10
153.0
 20
363.0
 10
153.0
 20
363.0
 10
156.0
 20
360.0
 10
156.0
 20
360.0
 10
157.0
 20
360.0
 10
157.0
 20
360.0
 10
160.0
 20
357.0
 10
160.0
 20
357.0
 10
161.0
 20
357.0
 10
161.0
 20
357.0
 10
163.0
 20
355.0
 10
163.0
 20
355.0
 10
164.0
 20
355.0
 10
164.0
 20
355.0
 10
168.0
 20
351.0
 10
168.0
 20
351.0
 10
169.0
 20
351.0
 10
169.0
 20
351.0
 10
172.0
 20
348.0
 10
172.0
 20
348.0
 10
173.0
 20
348.0
 10
173.0
 20
348.0
 10
176.0
 20
345.0
 10
176.0
 20
345.0
 10
177.0
 20
345.0
 10
177.0
 20
345.0
 10
181.0
 20
341.0
 10
181.0
 20
341.0
 10
182.0
 20
341.0
 10
182.0
 20
341.0
 10
182.0
 20
338.0
 10
182.0
 20
338.0
 10
179.0
 20
338.0
  0
LWPOLYLINE
  5
47
330
17
100
AcDbEntity
  8
0
100
AcDbPolyline
 90
28
 70
0
 10
348.0
 20
336.0
 10
344.0
 20
340.0
 10
344.0
 20
340.0
 10
344.0
 20
342.0
 10
344.0
 20
342.0
 10
346.0
 20
342.0
 10
346.0
 20
342.0
 10
347.0
 20
341.0
 10
347.0
 20
341.0
 10
349.0
 20
341.0
 10
349.0
 20
341.0
 10
350.0
 20
342.0
 10
350.0
 20
342.0
 10
351.0
 20
342.0
 10
351.0
 20
342.0
 10
355.0
 20
346.0
 10
355.0
 20
346.0
 10
357.0
 20
346.0
 10
357.0
 20
346.0
 10
357.0
 20
344.0
 10
357.0
 20
344.0
 10
355.0
 20
342.0
 10
355.0
 20
342.0
 10
355.0
 20
341.0
 10
355.0
 20
341.0
 10
350.0
 20
336.0
 10
350.0
 20
336.0
 10
348.0
 20
336.0
  0
LWPOLYLINE
  5
48
330
17
100
AcDbEntity
  8
0
100
AcDbPolyline
 90
88
 70
0
 10
356.0
 20
317.0
 10
350.0
 20
323.0
 10
350.0
 20
323.0
 10
350.0
 20
325.0
 10
350.0
 20
325.0
 10
349.0
 20
326.0
 10
349.0
 20
326.0
 10
347.0
 20
326.0
 10
347.0
 20
326.0
 10
346.0
 20
327.0
 10
346.0
 20
327.0
 10
343.0
 20
327.0
 10
343.0
 20
327.0
 10
334.0
 20
318.0
 10
334.0
 20
318.0
 10
332.0
 20
318.0
 10
332.0
 20
318.0
 10
332.0
 20
320.0
 10
332.0
 20
320.0
 10
334.0
 20
322.0
 10
334.0
 20
322.0
 10
334.0
 20
328.0
 10
334.0
 20
328.0
 10
336.0
 20
328.0
 10
336.0
 20
328.0
 10
337.0
 20
327.0
 10
337.0
 20
327.0
 10
339.0
 20
327.0
 10
339.0
 20
327.0
 10
341.0
 20
329.0
 10
341.0
 20
329.0
 10
341.0
 20
332.0
 10
341.0
 20
332.0
 10
340.0
 20
333.0
 10
340.0
 20
333.0
 10
340.0
 20
335.0
 10
340.0
 20
335.0
 10
342.0
 20
335.0
 10
342.0
 20
335.0
 10
350.0
 20
327.0
 10
350.0
 20
327.0
 10
353.0
 20
327.0
 10
353.0
 20
327.0
 10
354.0
 20
328.0
 10
354.0
 20
328.0
 10
355.0
 20
328.0
 10
355.0
 20
328.0
 10
356.0
 20
329.0
 10
356.0
 20
329.0
 10
356.0
 20
331.0
 10
356.0
 20
331.0
 10
358.0
 20
333.0
 10
358.0
 20
333.0
 10
360.0
 20
333.0
 10
360.0
 20
333.0
 10
360.0
 20
331.0
 10
360.0
 20
331.0
 10
358.0
 20
329.0
 10
358.0
 20
329.0
 10
357.0
 20
329.0
 10
357.0
 20
329.0
 10
356.0
 20
328.0
 10
356.0
 20
328.0
 10
356.0
 20
326.0
 10
356.0
 20
326.0
 10
355.0
 20
325.0
 10
355.0
 20
325.0
 10
355.0
 20
322.0
 10
355.0
 20
322.0
 10
356.0
 20
321.0
 10
356.0
 20
321.0
 10
358.0
 20
321.0
 10
358.0
 20
321.0
 10
361.0
 20
324.0
 10
361.0
 20
324.0
 10
361.0
 20
325.0
 10
361.0
 20
325.0
 10
363.0
 20
325.0
 10
363.0
 20
325.0
 10
363.0
 20
322.0
 10
363.0
 20
322.0
 10
361.0
 20
320.0
 10
361.0
 20
320.0
 10
361.0
 20
319.0
 10
361.0
 20
319.0
 10
359.0
 20
317.0
 10
359.0
 20
317.0
 10
356.0
 20
317.0
  0
LWPOLYLINE
  5
49
330
17
100
AcDbEntity
  8
0
100
AcDbPolyline
 90
78
 70
0
 10
171.0
 20
316.0
 10
170.0
 20
317.0
 10
170.0
 20
317.0
 10
170.0
 20
319.0
 10
170.0
 20
319.0
 10
171.0
 20
320.0
 10
171.0
 20
320.0
 10
171.0
 20
321.0
 10
171.0
 20
321.0
 10
172.0
 20
322.0
 10
172.0
 20
322.0
 10
172.0
 20
324.0
 10
172.0
 20
324.0
 10
173.0
 20
325.0
 10
173.0
 20
325.0
 10
173.0
 20
328.0
 10
173.0
 20
328.0
 10
169.0
 20
332.0
 10
169.0
 20
332.0
 10
168.0
 20
332.0
 10
168.0
 20
332.0
 10
167.0
 20
333.0
 10
167.0
 20
333.0
 10
163.0
 20
333.0
 10
163.0
 20
333.0
 10
162.0
 20
332.0
 10
162.0
 20
332.0
 10
160.0
 20
332.0
 10
160.0
 20
332.0
 10
159.0
 20
331.0
 10
159.0
 20
331.0
 10
155.0
 20
331.0
 10
155.0
 20
331.0
 10
155.0
 20
334.0
 10
155.0
 20
334.0
 10
157.0
 20
334.0
 10
157.0
 20
334.0
 10
158.0
 20
335.0
 10
158.0
 20
335.0
 10
160.0
 20
335.0
 10
160.0
 20
335.0
 10
161.0
 20
336.0
 10
161.0
 20
336.0
 10
164.0
 20
336.0
 10
164.0
 20
336.0
 10
165.0
 20
337.0
 10
165.0
 20
337.0
 10
168.0
 20
337.0
 10
168.0
 20
337.0
 10
169.0
 20
336.0
 10
169.0
 20
336.0
 10
170.0
 20
336.0
 10
170.0
 20
336.0
 10
173.0
 20
333.0
 10
173.0
 20
333.0
 10
174.0
 20
333.0
 10
174.0
 20
333.0
 10
177.0
 20
330.0
 10
177.0
 20
330.0
 10
177.0
 20
327.0
 10
177.0
 20
327.0
 10
176.0
 20
326.0
 10
176.0
 20
326.0
 10
176.0
 20
324.0
 10
176.0
 20
324.0
 10
175.0
 20
323.0
 10
175.0
 20
323.0
 10
175.0
 20
321.0
 10
175.0
 20
321.0
 10
174.0
 20
320.0
 10
174.0
 20
320.0
 10
174.0
 20
318.0
 10
174.0
 20
318.0
 10
173.0
 20
317.0
 10
173.0
 20
317.0
 10
173.0
 20
316.0
 10
173.0
 20
316.0
 10
171.0
 20
316.0
  0
LWPOLYLINE
  5
4A
330
17
100
AcDbEntity
  8
0
100
AcDbPolyline
 90
32
 70
0
 10
344.0
 20
297.0
 10
337.0
 20
304.0
 10
337.0
 20
304.0
 10
337.0
 20
305.0
 10
337.0
 20
305.0
 10
335.0
 20
307.0
 10
335.0
 20
307.0
 10
335.0
 20
310.0
 10
335.0
 20
310.0
 10
336.0
 20
311.0
 10
336.0
 20
311.0
 10
336.0
 20
312.0
 10
336.0
 20
312.0
 10
343.0
 20
319.0
 10
343.0
 20
319.0
 10
346.0
 20
319.0
 10
346.0
 20
319.0
 10
354.0
 20
311.0
 10
354.0
 20
311.0
 10
354.0
 20
310.0
 10
354.0
 20
310.0
 10
355.0
 20
309.0
 10
355.0
 20
309.0
 10
355.0
 20
307.0
 10
355.0
 20
307.0
 10
350.0
 20
302.0
 10
350.0
 20
302.0
 10
350.0
 20
301.0
 10
350.0
 20
301.0
 10
346.0
 20
297.0
 10
346.0
 20
297.0
 10
344.0
 20
297.0
  0
LWPOLYLINE
  5
4B
330
17
100
AcDbEntity
  8
0
100
AcDbPolyline
 90
20
 70
0
 10
343.0
 20
304.0
 10
346.0
 20
304.0
 10
346.0
 20
304.0
 10
350.0
 20
308.0
 10
350.0
 20
308.0
 10
350.0
 20
311.0
 10
350.0
 20
311.0
 10
346.0
 20
315.0
 10
346.0
 20
315.0
 10
343.0
 20
315.0
 10
343.0
 20
315.0
 10
339.0
 20
311.0
 10
339.0
 20
311.0
 10
339.0
 20
309.0
 10
339.0
 20
309.0
 10
340.0
 20
308.0
 10
340.0
 20
308.0
 10
340.0
 20
307.0
 10
340.0
 20
307.0
 10
343.0
 20
304.0
  0
LWPOLYLINE
  5
4C
330
17
100
AcDbEntity
  8
0
100
AcDbPolyline
 90
100
 70
0
 10
332.0
 20
277.0
 10
331.0
 20
278.0
 10
331.0
 20
278.0
 10
331.0
 20
279.0
 10
331.0
 20
279.0
 10
327.0
 20
283.0
 10
327.0
 20
283.0
 10
327.0
 20
284.0
 10
327.0
 20
284.0
 10
326.0
 20
285.0
 10
326.0
 20
285.0
 10
326.0
 20
287.0
 10
326.0
 20
287.0
 10
328.0
 20
287.0
 10
328.0
 20
287.0
 10
333.0
 20
282.0
 10
333.0
 20
282.0
 10
336.0
 20
282.0
 10
336.0
 20
282.0
 10
337.0
 20
283.0
 10
337.0
 20
283.0
 10
337.0
 20
287.0
 10
337.0
 20
287.0
 10
341.0
 20
287.0
 10
341.0
 20
287.0
 10
344.0
 20
290.0
 10
344.0
 20
290.0
 10
346.0
 20
290.0
 10
346.0
 20
290.0
 10
349.0
 20
287.0
 10
349.0
 20
287.0
 10
351.0
 20
287.0
 10
351.0
 20
287.0
 10
352.0
 20
288.0
 10
352.0
 20
288.0
 10
354.0
 20
288.0
 10
354.0
 20
288.0
 10
354.0
 20
286.0
 10
354.0
 20
286.0
 10
353.0
 20
285.0
 10
353.0
 20
285.0
 10
353.0
 20
283.0
 10
353.0
 20
283.0
 10
354.0
 20
282.0
 10
354.0
 20
282.0
 10
357.0
 20
282.0
 10
357.0
 20
282.0
 10
363.0
 20
288.0
 10
363.0
 20
288.0
 10
363.0
 20
289.0
 10
363.0
 20
289.0
 10
365.0
 20
291.0
 10
365.0
 20
291.0
 10
368.0
 20
291.0
 10
368.0
 20
291.0
 10
370.0
 20
289.0
 10
370.0
 20
289.0
 10
371.0
 20
289.0
 10
371.0
 20
289.0
 10
372.0
 20
288.0
 10
372.0
 20
288.0
 10
372.0
 20
286.0
 10
372.0
 20
286.0
 10
370.0
 20
286.0
 10
370.0
 20
286.0
 10
369.0
 20
287.0
 10
369.0
 20
287.0
 10
367.0
 20
287.0
 10
367.0
 20
287.0
 10
366.0
 20
286.0
 10
366.0
 20
286.0
 10
365.0
 20
286.0
 10
365.0
 20
286.0
 10
363.0
 20
284.0
 10
363.0
 20
284.0
 10
363.0
 20
283.0
 10
363.0
 20
283.0
 10
357.0
 20
277.0
 10
357.0
 20
277.0
 10
355.0
 20
277.0
 10
355.0
 20
277.0
 10
346.0
 20
286.0
 10
346.0
 20
286.0
 10
344.0
 20
286.0
 10
344.0
 20
286.0
 10
342.0
 20
284.0
 10
342.0
 20
284.0
 10
341.0
 20
284.0
 10
341.0
 20
284.0
 10
339.0
 20
282.0
 10
339.0
 20
282.0
 10
338.0
 20
282.0
 10
338.0
 20
282.0
 10
337.0
 20
281.0
 10
337.0
 20
281.0
 10
337.0
 20
280.0
 10
337.0
 20
280.0
 10
334.0
 20
277.0
 10
334.0
 20
277.0
 10
332.0
 20
277.0
  0
LWPOLYLINE
  5
4D
330
17
100
AcDbEntity
  8
0
100
AcDbPolyline
 90
36
 70
0
 10
336.0
 20
268.0
 10
336.0
 20
271.0
 10
336.0
 20
271.0
 10
339.0
 20
274.0
 10
339.0
 20
274.0
 10
341.0
 20
274.0
 10
341.0
 20
274.0
 10
342.0
 20
275.0
 10
342.0
 20
275.0
 10
342.0
 20
276.0
 10
342.0
 20
276.0
 10
344.0
 20
278.0
 10
344.0
 20
278.0
 10
346.0
 20
278.0
 10
346.0
 20
278.0
 10
352.0
 20
272.0
 10
352.0
 20
272.0
 10
352.0
 20
271.0
 10
352.0
 20
271.0
 10
353.0
 20
270.0
 10
353.0
 20
270.0
 10
353.0
 20
268.0
 10
353.0
 20
268.0
 10
351.0
 20
268.0
 10
351.0
 20
268.0
 10
345.0
 20
274.0
 10
345.0
 20
274.0
 10
342.0
 20
274.0
 10
342.0
 20
274.0
 10
341.0
 20
273.0
 10
341.0
 20
273.0
 10
341.0
 20
271.0
 10
341.0
 20
271.0
 10
338.0
 20
268.0
 10
338.0
 20
268.0
 10
336.0
 20
268.0
  0
LWPOLYLINE
  5
4E
330
17
100
AcDbEntity
  8
0
100
AcDbPolyline
 90
34
 70
0
 10
330.0
 20
261.0
 10
329.0
 20
262.0
 10
329.0
 20
262.0
 10
328.0
 20
262.0
 10
328.0
 20
262.0
 10
327.0
 20
263.0
 10
327.0
 20
263.0
 10
325.0
 20
263.0
 10
325.0
 20
263.0
 10
324.0
 20
262.0
 10
324.0
 20
262.0
 10
322.0
 20
262.0
 10
322.0
 20
262.0
 10
322.0
 20
264.0
 10
322.0
 20
264.0
 10
324.0
 20
266.0
 10
324.0
 20
266.0
 10
324.0
 20
268.0
 10
324.0
 20
268.0
 10
322.0
 20
270.0
 10
322.0
 20
270.0
 10
322.0
 20
272.0
 10
322.0
 20
272.0
 10
324.0
 20
272.0
 10
324.0
 20
272.0
 10
326.0
 20
270.0
 10
326.0
 20
270.0
 10
326.0
 20
269.0
 10
326.0
 20
269.0
 10
332.0
 20
263.0
 10
332.0
 20
263.0
 10
332.0
 20
261.0
 10
332.0
 20
261.0
 10
330.0
 20
261.0
  0
LWPOLYLINE
  5
4F
330
17
100
AcDbEntity
  8
0
100
AcDbPolyline
 90
52
 70
0
 10
332.0
 20
246.0
 10
325.0
 20
253.0
 10
325.0
 20
253.0
 10
325.0
 20
256.0
 10
325.0
 20
256.0
 10
327.0
 20
256.0
 10
327.0
 20
256.0
 10
333.0
 20
250.0
 10
333.0
 20
250.0
 10
335.0
 20
250.0
 10
335.0
 20
250.0
 10
336.0
 20
251.0
 10
336.0
 20
251.0
 10
336.0
 20
256.0
 10
336.0
 20
256.0
 10
338.0
 20
256.0
 10
338.0
 20
256.0
 10
339.0
 20
255.0
 10
339.0
 20
255.0
 10
341.0
 20
255.0
 10
341.0
 20
255.0
 10
343.0
 20
257.0
 10
343.0
 20
257.0
 10
345.0
 20
257.0
 10
345.0
 20
257.0
 10
347.0
 20
255.0
 10
347.0
 20
255.0
 10
351.0
 20
255.0
 10
351.0
 20
255.0
 10
351.0
 20
252.0
 10
351.0
 20
252.0
 10
353.0
 20
250.0
 10
353.0
 20
250.0
 10
355.0
 20
250.0
 10
355.0
 20
250.0
 10
360.0
 20
255.0
 10
360.0
 20
255.0
 10
362.0
 20
255.0
 10
362.0
 20
255.0
 10
362.0
 20
253.0
 10
362.0
 20
253.0
 10
355.0
 20
246.0
 10
355.0
 20
246.0
 10
352.0
 20
246.0
 10
352.0
 20
246.0
 10
345.0
 20
253.0
 10
345.0
 20
253.0
 10
342.0
 20
253.0
 10
342.0
 20
253.0
 10
335.0
 20
246.0
 10
335.0
 20
246.0
 10
332.0
 20
246.0
  0
LWPOLYLINE
  5
50
330
17
100
AcDbEntity
  8
0
100
AcDbPolyline
 90
32
 70
0
 10
332.0
 20
233.0
 10
330.0
 20
235.0
 10
330.0
 20
235.0
 10
329.0
 20
235.0
 10
329.0
 20
235.0
 10
324.0
 20
240.0
 10
324.0
 20
240.0
 10
318.0
 20
240.0
 10
318.0
 20
240.0
 10
318.0
 20
242.0
 10
318.0
 20
242.0
 10
319.0
 20
243.0
 10
319.0
 20
243.0
 10
320.0
 20
243.0
 10
320.0
 20
243.0
 10
321.0
 20
244.0
 10
321.0
 20
244.0
 10
325.0
 20
244.0
 10
325.0
 20
244.0
 10
332.0
 20
237.0
 10
332.0
 20
237.0
 10
335.0
 20
237.0
 10
335.0
 20
237.0
 10
336.0
 20
238.0
 10
336.0
 20
238.0
 10
338.0
 20
238.0
 10
338.0
 20
238.0
 10
338.0
 20
236.0
 10
338.0
 20
236.0
 10
335.0
 20
233.0
 10
335.0
 20
233.0
 10
332.0
 20
233.0
  0
LWPOLYLINE
  5
51
330
17
100
AcDbEntity
  8
0
100
AcDbPolyline
 90
42
 70
0
 10
415.0
 20
227.0
 10
415.0
 20
228.0
 10
415.0
 20
228.0
 10
413.0
 20
230.0
 10
413.0
 20
230.0
 10
413.0
 20
231.0
 10
413.0
 20
231.0
 10
412.0
 20
232.0
 10
412.0
 20
232.0
 10
412.0
 20
234.0
 10
412.0
 20
234.0
 10
411.0
 20
235.0
 10
411.0
 20
235.0
 10
411.0
 20
240.0
 10
411.0
 20
240.0
 10
412.0
 20
241.0
 10
412.0
 20
241.0
 10
412.0
 20
244.0
 10
412.0
 20
244.0
 10
413.0
 20
245.0
 10
413.0
 20
245.0
 10
415.0
 20
245.0
 10
415.0
 20
245.0
 10
415.0
 20
244.0
 10
415.0
 20
244.0
 10
416.0
 20
243.0
 10
416.0
 20
243.0
 10
416.0
 20
242.0
 10
416.0
 20
242.0
 10
417.0
 20
241.0
 10
417.0
 20
241.0
 10
417.0
 20
238.0
 10
417.0
 20
238.0
 10
418.0
 20
237.0
 10
418.0
 20
237.0
 10
418.0
 20
231.0
 10
418.0
 20
231.0
 10
417.0
 20
230.0
 10
417.0
 20
230.0
 10
417.0
 20
227.0
 10
417.0
 20
227.0
 10
415.0
 20
227.0
  0
LWPOLYLINE
  5
52
330
17
100
AcDbEntity
  8
0
100
AcDbPolyline
 90
48
 70
0
 10
394.0
 20
227.0
 10
394.0
 20
230.0
 10
394.0
 20
230.0
 10
395.0
 20
231.0
 10
395.0
 20
231.0
 10
395.0
 20
233.0
 10
395.0
 20
233.0
 10
396.0
 20
234.0
 10
396.0
 20
234.0
 10
396.0
 20
236.0
 10
396.0
 20
236.0
 10
397.0
 20
237.0
 10
397.0
 20
237.0
 10
397.0
 20
238.0
 10
397.0
 20
238.0
 10
398.0
 20
239.0
 10
398.0
 20
239.0
 10
398.0
 20
240.0
 10
398.0
 20
240.0
 10
399.0
 20
241.0
 10
399.0
 20
241.0
 10
399.0
 20
242.0
 10
399.0
 20
242.0
 10
401.0
 20
244.0
 10
401.0
 20
244.0
 10
401.0
 20
245.0
 10
401.0
 20
245.0
 10
403.0
 20
245.0
 10
403.0
 20
245.0
 10
404.0
 20
244.0
 10
404.0
 20
244.0
 10
404.0
 20
238.0
 10
404.0
 20
238.0
 10
403.0
 20
237.0
 10
403.0
 20
237.0
 10
403.0
 20
235.0
 10
403.0
 20
235.0
 10
402.0
 20
234.0
 10
402.0
 20
234.0
 10
402.0
 20
233.0
 10
402.0
 20
233.0
 10
400.0
 20
231.0
 10
400.0
 20
231.0
 10
400.0
 20
230.0
 10
400.0
 20
230.0
 10
397.0
 20
227.0
 10
397.0
 20
227.0
 10
394.0
 20
227.0
  0
LWPOLYLINE
  5
53
330
17
100
AcDbEntity
  8
0
100
AcDbPolyline
 90
34
 70
0
 10
372.0
 20
218.0
 10
371.0
 20
219.0
 10
371.0
 20
219.0
 10
371.0
 20
223.0
 10
371.0
 20
223.0
 10
372.0
 20
224.0
 10
372.0
 20
224.0
 10
372.0
 20
227.0
 10
372.0
 20
227.0
 10
373.0
 20
228.0
 10
373.0
 20
228.0
 10
373.0
 20
230.0
 10
373.0
 20
230.0
 10
374.0
 20
231.0
 10
374.0
 20
231.0
 10
376.0
 20
231.0
 10
376.0
 20
231.0
 10
376.0
 20
229.0
 10
376.0
 20
229.0
 10
377.0
 20
228.0
 10
377.0
 20
228.0
 10
377.0
 20
223.0
 10
377.0
 20
223.0
 10
378.0
 20
222.0
 10
378.0
 20
222.0
 10
378.0
 20
220.0
 10
378.0
 20
220.0
 10
377.0
 20
219.0
 10
377.0
 20
219.0
 10
375.0
 20
219.0
 10
375.0
 20
219.0
 10
374.0
 20
218.0
 10
374.0
 20
218.0
 10
372.0
 20
218.0
  0
LWPOLYLINE
  5
54
330
17
100
AcDbEntity
  8
0
100
AcDbPolyline
 90
24
 70
0
 10
350.0
 20
204.0
 10
350.0
 20
214.0
 10
350.0
 20
214.0
 10
351.0
 20
215.0
 10
351.0
 20
215.0
 10
353.0
 20
215.0
 10
353.0
 20
215.0
 10
353.0
 20
214.0
 10
353.0
 20
214.0
 10
354.0
 20
213.0
 10
354.0
 20
213.0
 10
354.0
 20
212.0
 10
354.0
 20
212.0
 10
355.0
 20
211.0
 10
355.0
 20
211.0
 10
355.0
 20
210.0
 10
355.0
 20
210.0
 10
356.0
 20
209.0
 10
356.0
 20
209.0
 10
356.0
 20
205.0
 10
356.0
 20
205.0
 10
355.0
 20
204.0
 10
355.0
 20
204.0
 10
350.0
 20
204.0
  0
LWPOLYLINE
  5
55
330
17
100
AcDbEntity
  8
0
100
AcDbPolyline
 90
40
 70
0
 10
376.0
 20
201.0
 10
373.0
 20
204.0
 10
373.0
 20
204.0
 10
373.0
 20
207.0
 10
373.0
 20
207.0
 10
375.0
 20
209.0
 10
375.0
 20
209.0
 10
376.0
 20
209.0
 10
376.0
 20
209.0
 10
378.0
 20
211.0
 10
378.0
 20
211.0
 10
379.0
 20
211.0
 10
379.0
 20
211.0
 10
381.0
 20
213.0
 10
381.0
 20
213.0
 10
383.0
 20
213.0
 10
383.0
 20
213.0
 10
383.0
 20
211.0
 10
383.0
 20
211.0
 10
382.0
 20
210.0
 10
382.0
 20
210.0
 10
382.0
 20
209.0
 10
382.0
 20
209.0
 10
381.0
 20
208.0
 10
381.0
 20
208.0
 10
381.0
 20
207.0
 10
381.0
 20
207.0
 10
380.0
 20
206.0
 10
380.0
 20
206.0
 10
380.0
 20
205.0
 10
380.0
 20
205.0
 10
379.0
 20
204.0
 10
379.0
 20
204.0
 10
379.0
 20
203.0
 10
379.0
 20
203.0
 10
378.0
 20
202.0
 10
378.0
 20
202.0
 10
378.0
 20
201.0
 10
378.0
 20
201.0
 10
376.0
 20
201.0
  0
LWPOLYLINE
  5
56
330
17
100
AcDbEntity
  8
0
100
AcDbPolyline
 90
338
 70
0
 10
323.0
 20
195.0
 10
323.0
 20
198.0
 10
323.0
 20
198.0
 10
324.0
 20
199.0
 10
324.0
 20
199.0
 10
324.0
 20
201.0
 10
324.0
 20
201.0
 10
325.0
 20
202.0
 10
325.0
 20
202.0
 10
325.0
 20
203.0
 10
325.0
 20
203.0
 10
326.0
 20
204.0
 10
326.0
 20
204.0
 10
326.0
 20
205.0
 10
326.0
 20
205.0
 10
327.0
 20
206.0
 10
327.0
 20
206.0
 10
327.0
 20
207.0
 10
327.0
 20
207.0
 10
328.0
 20
208.0
 10
328.0
 20
208.0
 10
328.0
 20
209.0
 10
328.0
 20
209.0
 10
330.0
 20
211.0
 10
330.0
 20
211.0
 10
330.0
 20
212.0
 10
330.0
 20
212.0
 10
333.0
 20
215.0
 10
333.0
 20
215.0
 10
333.0
 20
216.0
 10
333.0
 20
216.0
 10
349.0
 20
232.0
 10
349.0
 20
232.0
 10
350.0
 20
232.0
 10
350.0
 20
232.0
 10
353.0
 20
235.0
 10
353.0
 20
235.0
 10
354.0
 20
235.0
 10
354.0
 20
235.0
 10
358.0
 20
239.0
 10
358.0
 20
239.0
 10
359.0
 20
239.0
 10
359.0
 20
239.0
 10
366.0
 20
246.0
 10
366.0
 20
246.0
 10
366.0
 20
247.0
 10
366.0
 20
247.0
 10
367.0
 20
248.0
 10
367.0
 20
248.0
 10
367.0
 20
249.0
 10
367.0
 20
249.0
 10
368.0
 20
250.0
 10
368.0
 20
250.0
 10
368.0
 20
251.0
 10
368.0
 20
251.0
 10
369.0
 20
252.0
 10
369.0
 20
252.0
 10
369.0
 20
254.0
 10
369.0
 20
254.0
 10
370.0
 20
255.0
 10
370.0
 20
255.0
 10
370.0
 20
259.0
 10
370.0
 20
259.0
 10
369.0
 20
260.0
 10
369.0
 20
260.0
 10
368.0
 20
260.0
 10
368.0
 20
260.0
 10
367.0
 20
261.0
 10
367.0
 20
261.0
 10
365.0
 20
261.0
 10
365.0
 20
261.0
 10
364.0
 20
262.0
 10
364.0
 20
262.0
 10
363.0
 20
262.0
 10
363.0
 20
262.0
 10
362.0
 20
263.0
 10
362.0
 20
263.0
 10
360.0
 20
263.0
 10
360.0
 20
263.0
 10
355.0
 20
258.0
 10
355.0
 20
258.0
 10
353.0
 20
258.0
 10
353.0
 20
258.0
 10
353.0
 20
260.0
 10
353.0
 20
260.0
 10
361.0
 20
268.0
 10
361.0
 20
268.0
 10
361.0
 20
269.0
 10
361.0
 20
269.0
 10
365.0
 20
273.0
 10
365.0
 20
273.0
 10
369.0
 20
273.0
 10
369.0
 20
273.0
 10
370.0
 20
272.0
 10
370.0
 20
272.0
 10
371.0
 20
272.0
 10
371.0
 20
272.0
 10
372.0
 20
271.0
 10
372.0
 20
271.0
 10
375.0
 20
271.0
 10
375.0
 20
271.0
 10
375.0
 20
260.0
 10
375.0
 20
260.0
 10
374.0
 20
259.0
 10
374.0
 20
259.0
 10
374.0
 20
256.0
 10
374.0
 20
256.0
 10
373.0
 20
255.0
 10
373.0
 20
255.0
 10
373.0
 20
253.0
 10
373.0
 20
253.0
 10
372.0
 20
252.0
 10
372.0
 20
252.0
 10
372.0
 20
249.0
 10
372.0
 20
249.0
 10
373.0
 20
248.0
 10
373.0
 20
248.0
 10
375.0
 20
248.0
 10
375.0
 20
248.0
 10
381.0
 20
254.0
 10
381.0
 20
254.0
 10
381.0
 20
255.0
 10
381.0
 20
255.0
 10
383.0
 20
257.0
 10
383.0
 20
257.0
 10
383.0
 20
258.0
 10
383.0
 20
258.0
 10
384.0
 20
259.0
 10
384.0
 20
259.0
 10
384.0
 20
260.0
 10
384.0
 20
260.0
 10
385.0
 20
261.0
 10
385.0
 20
261.0
 10
385.0
 20
262.0
 10
385.0
 20
262.0
 10
386.0
 20
263.0
 10
386.0
 20
263.0
 10
386.0
 20
265.0
 10
386.0
 20
265.0
 10
387.0
 20
266.0
 10
387.0
 20
266.0
 10
387.0
 20
269.0
 10
387.0
 20
269.0
 10
388.0
 20
270.0
 10
388.0
 20
270.0
 10
388.0
 20
287.0
 10
388.0
 20
287.0
 10
387.0
 20
288.0
 10
387.0
 20
288.0
 10
387.0
 20
291.0
 10
387.0
 20
291.0
 10
390.0
 20
291.0
 10
390.0
 20
291.0
 10
396.0
 20
285.0
 10
396.0
 20
285.0
 10
397.0
 20
285.0
 10
397.0
 20
285.0
 10
411.0
 20
271.0
 10
411.0
 20
271.0
 10
411.0
 20
270.0
 10
411.0
 20
270.0
 10
416.0
 20
265.0
 10
416.0
 20
265.0
 10
416.0
 20
264.0
 10
416.0
 20
264.0
 10
420.0
 20
260.0
 10
420.0
 20
260.0
 10
420.0
 20
259.0
 10
420.0
 20
259.0
 10
422.0
 20
257.0
 10
422.0
 20
257.0
 10
422.0
 20
256.0
 10
422.0
 20
256.0
 10
424.0
 20
254.0
 10
424.0
 20
254.0
 10
424.0
 20
253.0
 10
424.0
 20
253.0
 10
426.0
 20
251.0
 10
426.0
 20
251.0
 10
426.0
 20
250.0
 10
426.0
 20
250.0
 10
427.0
 20
249.0
 10
427.0
 20
249.0
 10
427.0
 20
248.0
 10
427.0
 20
248.0
 10
429.0
 20
246.0
 10
429.0
 20
246.0
 10
429.0
 20
244.0
 10
429.0
 20
244.0
 10
426.0
 20
244.0
 10
426.0
 20
244.0
 10
421.0
 20
249.0
 10
421.0
 20
249.0
 10
420.0
 20
249.0
 10
420.0
 20
249.0
 10
416.0
 20
253.0
 10
416.0
 20
253.0
 10
415.0
 20
253.0
 10
415.0
 20
253.0
 10
412.0
 20
256.0
 10
412.0
 20
256.0
 10
411.0
 20
256.0
 10
411.0
 20
256.0
 10
410.0
 20
257.0
 10
410.0
 20
257.0
 10
407.0
 20
257.0
 10
407.0
 20
257.0
 10
405.0
 20
255.0
 10
405.0
 20
255.0
 10
404.0
 20
255.0
 10
404.0
 20
255.0
 10
403.0
 20
254.0
 10
403.0
 20
254.0
 10
402.0
 20
254.0
 10
402.0
 20
254.0
 10
401.0
 20
253.0
 10
401.0
 20
253.0
 10
400.0
 20
253.0
 10
400.0
 20
253.0
 10
399.0
 20
252.0
 10
399.0
 20
252.0
 10
398.0
 20
252.0
 10
398.0
 20
252.0
 10
397.0
 20
251.0
 10
397.0
 20
251.0
 10
396.0
 20
251.0
 10
396.0
 20
251.0
 10
395.0
 20
250.0
 10
395.0
 20
250.0
 10
393.0
 20
250.0
 10
393.0
 20
250.0
 10
392.0
 20
249.0
 10
392.0
 20
249.0
 10
391.0
 20
249.0
 10
391.0
 20
249.0
 10
390.0
 20
248.0
 10
390.0
 20
248.0
 10
388.0
 20
248.0
 10
388.0
 20
248.0
 10
387.0
 20
247.0
 10
387.0
 20
247.0
 10
386.0
 20
247.0
 10
386.0
 20
247.0
 10
385.0
 20
246.0
 10
385.0
 20
246.0
 10
384.0
 20
246.0
 10
384.0
 20
246.0
 10
383.0
 20
245.0
 10
383.0
 20
245.0
 10
381.0
 20
245.0
 10
381.0
 20
245.0
 10
380.0
 20
244.0
 10
380.0
 20
244.0
 10
379.0
 20
244.0
 10
379.0
 20
244.0
 10
378.0
 20
243.0
 10
378.0
 20
243.0
 10
377.0
 20
243.0
 10
377.0
 20
243.0
 10
376.0
 20
242.0
 10
376.0
 20
242.0
 10
375.0
 20
242.0
 10
375.0
 20
242.0
 10
374.0
 20
241.0
 10
374.0
 20
241.0
 10
373.0
 20
241.0
 10
373.0
 20
241.0
 10
372.0
 20
240.0
 10
372.0
 20
240.0
 10
371.0
 20
240.0
 10
371.0
 20
240.0
 10
370.0
 20
239.0
 10
370.0
 20
239.0
 10
369.0
 20
239.0
 10
369.0
 20
239.0
 10
368.0
 20
238.0
 10
368.0
 20
238.0
 10
367.0
 20
238.0
 10
367.0
 20
238.0
 10
366.0
 20
237.0
 10
366.0
 20
237.0
 10
365.0
 20
237.0
 10
365.0
 20
237.0
 10
363.0
 20
235.0
 10
363.0
 20
235.0
 10
362.0
 20
235.0
 10
362.0
 20
235.0
 10
361.0
 20
234.0
 10
361.0
 20
234.0
 10
360.0
 20
234.0
 10
360.0
 20
234.0
 10
358.0
 20
232.0
 10
358.0
 20
232.0
 10
357.0
 20
232.0
 10
357.0
 20
232.0
 10
355.0
 20
230.0
 10
355.0
 20
230.0
 10
354.0
 20
230.0
 10
354.0
 20
230.0
 10
352.0
 20
228.0
 10
352.0
 20
228.0
 10
351.0
 20
228.0
 10
351.0
 20
228.0
 10
345.0
 20
222.0
 10
345.0
 20
222.0
 10
344.0
 20
222.0
 10
344.0
 20
222.0
 10
339.0
 20
217.0
 10
339.0
 20
217.0
 10
339.0
 20
216.0
 10
339.0
 20
216.0
 10
334.0
 20
211.0
 10
334.0
 20
211.0
 10
334.0
 20
210.0
 10
334.0
 20
210.0
 10
332.0
 20
208.0
 10
332.0
 20
208.0
 10
332.0
 20
207.0
 10
332.0
 20
207.0
 10
330.0
 20
205.0
 10
330.0
 20
205.0
 10
330.0
 20
204.0
 10
330.0
 20
204.0
 10
329.0
 20
203.0
 10
329.0
 20
203.0
 10
329.0
 20
202.0
 10
329.0
 20
202.0
 10
327.0
 20
200.0
 10
327.0
 20
200.0
 10
327.0
 20
199.0
 10
327.0
 20
199.0
 10
326.0
 20
198.0
 10
326.0
 20
198.0
 10
326.0
 20
196.0
 10
326.0
 20
196.0
 10
325.0
 20
195.0
 10
325.0
 20
195.0
 10
323.0
 20
195.0
  0
LWPOLYLINE
  5
57
330
17
100
AcDbEntity
  8
0
100
AcDbPolyline
 90
56
 70
0
 10
389.0
 20
256.0
 10
390.0
 20
255.0
 10
390.0
 20
255.0
 10
392.0
 20
255.0
 10
392.0
 20
255.0
 10
393.0
 20
256.0
 10
393.0
 20
256.0
 10
394.0
 20
256.0
 10
394.0
 20
256.0
 10
395.0
 20
257.0
 10
395.0
 20
257.0
 10
396.0
 20
257.0
 10
396.0
 20
257.0
 10
399.0
 20
260.0
 10
399.0
 20
260.0
 10
400.0
 20
260.0
 10
400.0
 20
260.0
 10
402.0
 20
262.0
 10
402.0
 20
262.0
 10
402.0
 20
263.0
 10
402.0
 20
263.0
 10
403.0
 20
264.0
 10
403.0
 20
264.0
 10
403.0
 20
267.0
 10
403.0
 20
267.0
 10
399.0
 20
271.0
 10
399.0
 20
271.0
 10
399.0
 20
272.0
 10
399.0
 20
272.0
 10
398.0
 20
273.0
 10
398.0
 20
273.0
 10
395.0
 20
273.0
 10
395.0
 20
273.0
 10
394.0
 20
272.0
 10
394.0
 20
272.0
 10
394.0
 20
269.0
 10
394.0
 20
269.0
 10
393.0
 20
268.0
 10
393.0
 20
268.0
 10
393.0
 20
266.0
 10
393.0
 20
266.0
 10
392.0
 20
265.0
 10
392.0
 20
265.0
 10
392.0
 20
264.0
 10
392.0
 20
264.0
 10
391.0
 20
263.0
 10
391.0
 20
263.0
 10
391.0
 20
262.0
 10
391.0
 20
262.0
 10
390.0
 20
261.0
 10
390.0
 20
261.0
 10
390.0
 20
260.0
 10
390.0
 20
260.0
 10
389.0
 20
259.0
 10
389.0
 20
259.0
 10
389.0
 20
256.0
  0
LWPOLYLINE
  5
58
330
17
100
AcDbEntity
  8
0
100
AcDbPolyline
 90
20
 70
0
 10
357.0
 20
189.0
 10
356.0
 20
190.0
 10
356.0
 20
190.0
 10
354.0
 20
190.0
 10
354.0
 20
190.0
 10
354.0
 20
192.0
 10
354.0
 20
192.0
 10
355.0
 20
193.0
 10
355.0
 20
193.0
 10
355.0
 20
194.0
 10
355.0
 20
194.0
 10
360.0
 20
199.0
 10
360.0
 20
199.0
 10
362.0
 20
199.0
 10
362.0
 20
199.0
 10
362.0
 20
190.0
 10
362.0
 20
190.0
 10
361.0
 20
189.0
 10
361.0
 20
189.0
 10
357.0
 20
189.0
  0
LWPOLYLINE
  5
59
330
17
100
AcDbEntity
  8
0
100
AcDbPolyline
 90
1246
 70
0
 10
311.0
 20
188.0
 10
311.0
 20
189.0
 10
311.0
 20
189.0
 10
310.0
 20
190.0
 10
310.0
 20
190.0
 10
310.0
 20
191.0
 10
310.0
 20
191.0
 10
309.0
 20
192.0
 10
309.0
 20
192.0
 10
309.0
 20
194.0
 10
309.0
 20
194.0
 10
308.0
 20
195.0
 10
308.0
 20
195.0
 10
308.0
 20
197.0
 10
308.0
 20
197.0
 10
306.0
 20
199.0
 10
306.0
 20
199.0
 10
302.0
 20
199.0
 10
302.0
 20
199.0
 10
301.0
 20
198.0
 10
301.0
 20
198.0
 10
300.0
 20
198.0
 10
300.0
 20
198.0
 10
298.0
 20
196.0
 10
298.0
 20
196.0
 10
297.0
 20
196.0
 10
297.0
 20
196.0
 10
296.0
 20
195.0
 10
296.0
 20
195.0
 10
295.0
 20
195.0
 10
295.0
 20
195.0
 10
294.0
 20
194.0
 10
294.0
 20
194.0
 10
287.0
 20
194.0
 10
287.0
 20
194.0
 10
287.0
 20
196.0
 10
287.0
 20
196.0
 10
288.0
 20
197.0
 10
288.0
 20
197.0
 10
289.0
 20
197.0
 10
289.0
 20
197.0
 10
290.0
 20
198.0
 10
290.0
 20
198.0
 10
291.0
 20
198.0
 10
291.0
 20
198.0
 10
292.0
 20
199.0
 10
292.0
 20
199.0
 10
293.0
 20
199.0
 10
293.0
 20
199.0
 10
294.0
 20
200.0
 10
294.0
 20
200.0
 10
295.0
 20
200.0
 10
295.0
 20
200.0
 10
296.0
 20
201.0
 10
296.0
 20
201.0
 10
297.0
 20
201.0
 10
297.0
 20
201.0
 10
298.0
 20
202.0
 10
298.0
 20
202.0
 10
299.0
 20
202.0
 10
299.0
 20
202.0
 10
300.0
 20
203.0
 10
300.0
 20
203.0
 10
301.0
 20
203.0
 10
301.0
 20
203.0
 10
304.0
 20
206.0
 10
304.0
 20
206.0
 10
304.0
 20
212.0
 10
304.0
 20
212.0
 10
303.0
 20
213.0
 10
303.0
 20
213.0
 10
303.0
 20
218.0
 10
303.0
 20
218.0
 10
299.0
 20
222.0
 10
299.0
 20
222.0
 10
298.0
 20
222.0
 10
298.0
 20
222.0
 10
297.0
 20
223.0
 10
297.0
 20
223.0
 10
296.0
 20
223.0
 10
296.0
 20
223.0
 10
294.0
 20
225.0
 10
294.0
 20
225.0
 10
293.0
 20
225.0
 10
293.0
 20
225.0
 10
291.0
 20
227.0
 10
291.0
 20
227.0
 10
290.0
 20
227.0
 10
290.0
 20
227.0
 10
286.0
 20
231.0
 10
286.0
 20
231.0
 10
285.0
 20
231.0
 10
285.0
 20
231.0
 10
277.0
 20
239.0
 10
277.0
 20
239.0
 10
277.0
 20
240.0
 10
277.0
 20
240.0
 10
274.0
 20
243.0
 10
274.0
 20
243.0
 10
274.0
 20
244.0
 10
274.0
 20
244.0
 10
272.0
 20
246.0
 10
272.0
 20
246.0
 10
272.0
 20
247.0
 10
272.0
 20
247.0
 10
270.0
 20
249.0
 10
270.0
 20
249.0
 10
270.0
 20
250.0
 10
270.0
 20
250.0
 10
268.0
 20
252.0
 10
268.0
 20
252.0
 10
268.0
 20
253.0
 10
268.0
 20
253.0
 10
267.0
 20
254.0
 10
267.0
 20
254.0
 10
267.0
 20
256.0
 10
267.0
 20
256.0
 10
266.0
 20
257.0
 10
266.0
 20
257.0
 10
266.0
 20
258.0
 10
266.0
 20
258.0
 10
265.0
 20
259.0
 10
265.0
 20
259.0
 10
265.0
 20
260.0
 10
265.0
 20
260.0
 10
264.0
 20
261.0
 10
264.0
 20
261.0
 10
264.0
 20
263.0
 10
264.0
 20
263.0
 10
263.0
 20
264.0
 10
263.0
 20
264.0
 10
263.0
 20
266.0
 10
263.0
 20
266.0
 10
262.0
 20
267.0
 10
262.0
 20
267.0
 10
262.0
 20
270.0
 10
262.0
 20
270.0
 10
261.0
 20
271.0
 10
261.0
 20
271.0
 10
261.0
 20
276.0
 10
261.0
 20
276.0
 10
260.0
 20
277.0
 10
260.0
 20
277.0
 10
260.0
 20
293.0
 10
260.0
 20
293.0
 10
261.0
 20
294.0
 10
261.0
 20
294.0
 10
261.0
 20
299.0
 10
261.0
 20
299.0
 10
262.0
 20
300.0
 10
262.0
 20
300.0
 10
262.0
 20
303.0
 10
262.0
 20
303.0
 10
263.0
 20
304.0
 10
263.0
 20
304.0
 10
263.0
 20
306.0
 10
263.0
 20
306.0
 10
264.0
 20
307.0
 10
264.0
 20
307.0
 10
264.0
 20
309.0
 10
264.0
 20
309.0
 10
265.0
 20
310.0
 10
265.0
 20
310.0
 10
265.0
 20
311.0
 10
265.0
 20
311.0
 10
266.0
 20
312.0
 10
266.0
 20
312.0
 10
266.0
 20
313.0
 10
266.0
 20
313.0
 10
267.0
 20
314.0
 10
267.0
 20
314.0
 10
267.0
 20
316.0
 10
267.0
 20
316.0
 10
269.0
 20
318.0
 10
269.0
 20
318.0
 10
269.0
 20
319.0
 10
269.0
 20
319.0
 10
270.0
 20
320.0
 10
270.0
 20
320.0
 10
270.0
 20
321.0
 10
270.0
 20
321.0
 10
272.0
 20
323.0
 10
272.0
 20
323.0
 10
272.0
 20
324.0
 10
272.0
 20
324.0
 10
275.0
 20
327.0
 10
275.0
 20
327.0
 10
275.0
 20
328.0
 10
275.0
 20
328.0
 10
282.0
 20
335.0
 10
282.0
 20
335.0
 10
283.0
 20
335.0
 10
283.0
 20
335.0
 10
286.0
 20
338.0
 10
286.0
 20
338.0
 10
287.0
 20
338.0
 10
287.0
 20
338.0
 10
289.0
 20
340.0
 10
289.0
 20
340.0
 10
290.0
 20
340.0
 10
290.0
 20
340.0
 10
291.0
 20
341.0
 10
291.0
 20
341.0
 10
292.0
 20
341.0
 10
292.0
 20
341.0
 10
293.0
 20
342.0
 10
293.0
 20
342.0
 10
293.0
 20
344.0
 10
293.0
 20
344.0
 10
292.0
 20
345.0
 10
292.0
 20
345.0
 10
291.0
 20
345.0
 10
291.0
 20
345.0
 10
290.0
 20
346.0
 10
290.0
 20
346.0
 10
288.0
 20
346.0
 10
288.0
 20
346.0
 10
287.0
 20
347.0
 10
287.0
 20
347.0
 10
285.0
 20
347.0
 10
285.0
 20
347.0
 10
284.0
 20
348.0
 10
284.0
 20
348.0
 10
278.0
 20
348.0
 10
278.0
 20
348.0
 10
275.0
 20
345.0
 10
275.0
 20
345.0
 10
275.0
 20
344.0
 10
275.0
 20
344.0
 10
273.0
 20
342.0
 10
273.0
 20
342.0
 10
273.0
 20
341.0
 10
273.0
 20
341.0
 10
271.0
 20
339.0
 10
271.0
 20
339.0
 10
271.0
 20
338.0
 10
271.0
 20
338.0
 10
270.0
 20
337.0
 10
270.0
 20
337.0
 10
270.0
 20
336.0
 10
270.0
 20
336.0
 10
269.0
 20
335.0
 10
269.0
 20
335.0
 10
269.0
 20
334.0
 10
269.0
 20
334.0
 10
267.0
 20
332.0
 10
267.0
 20
332.0
 10
267.0
 20
331.0
 10
267.0
 20
331.0
 10
266.0
 20
331.0
 10
266.0
 20
331.0
 10
265.0
 20
330.0
 10
265.0
 20
330.0
 10
259.0
 20
330.0
 10
259.0
 20
330.0
 10
257.0
 20
328.0
 10
257.0
 20
328.0
 10
257.0
 20
325.0
 10
257.0
 20
325.0
 10
254.0
 20
325.0
 10
254.0
 20
325.0
 10
254.0
 20
326.0
 10
254.0
 20
326.0
 10
253.0
 20
327.0
 10
253.0
 20
327.0
 10
253.0
 20
332.0
 10
253.0
 20
332.0
 10
252.0
 20
333.0
 10
252.0
 20
333.0
 10
252.0
 20
338.0
 10
252.0
 20
338.0
 10
251.0
 20
339.0
 10
251.0
 20
339.0
 10
251.0
 20
344.0
 10
251.0
 20
344.0
 10
250.0
 20
345.0
 10
250.0
 20
345.0
 10
250.0
 20
348.0
 10
250.0
 20
348.0
 10
252.0
 20
348.0
 10
252.0
 20
348.0
 10
256.0
 20
344.0
 10
256.0
 20
344.0
 10
257.0
 20
344.0
 10
257.0
 20
344.0
 10
259.0
 20
342.0
 10
259.0
 20
342.0
 10
259.0
 20
340.0
 10
259.0
 20
340.0
 10
258.0
 20
339.0
 10
258.0
 20
339.0
 10
257.0
 20
339.0
 10
257.0
 20
339.0
 10
255.0
 20
337.0
 10
255.0
 20
337.0
 10
255.0
 20
335.0
 10
255.0
 20
335.0
 10
258.0
 20
332.0
 10
258.0
 20
332.0
 10
262.0
 20
332.0
 10
262.0
 20
332.0
 10
266.0
 20
336.0
 10
266.0
 20
336.0
 10
266.0
 20
337.0
 10
266.0
 20
337.0
 10
268.0
 20
339.0
 10
268.0
 20
339.0
 10
268.0
 20
340.0
 10
268.0
 20
340.0
 10
271.0
 20
343.0
 10
271.0
 20
343.0
 10
271.0
 20
344.0
 10
271.0
 20
344.0
 10
274.0
 20
347.0
 10
274.0
 20
347.0
 10
274.0
 20
349.0
 10
274.0
 20
349.0
 10
272.0
 20
351.0
 10
272.0
 20
351.0
 10
270.0
 20
351.0
 10
270.0
 20
351.0
 10
269.0
 20
352.0
 10
269.0
 20
352.0
 10
266.0
 20
352.0
 10
266.0
 20
352.0
 10
265.0
 20
353.0
 10
265.0
 20
353.0
 10
259.0
 20
353.0
 10
259.0
 20
353.0
 10
258.0
 20
354.0
 10
258.0
 20
354.0
 10
241.0
 20
354.0
 10
241.0
 20
354.0
 10
240.0
 20
353.0
 10
240.0
 20
353.0
 10
237.0
 20
353.0
 10
237.0
 20
353.0
 10
236.0
 20
352.0
 10
236.0
 20
352.0
 10
236.0
 20
348.0
 10
236.0
 20
348.0
 10
237.0
 20
347.0
 10
237.0
 20
347.0
 10
237.0
 20
346.0
 10
237.0
 20
346.0
 10
238.0
 20
345.0
 10
238.0
 20
345.0
 10
238.0
 20
343.0
 10
238.0
 20
343.0
 10
239.0
 20
342.0
 10
239.0
 20
342.0
 10
239.0
 20
341.0
 10
239.0
 20
341.0
 10
240.0
 20
340.0
 10
240.0
 20
340.0
 10
240.0
 20
339.0
 10
240.0
 20
339.0
 10
241.0
 20
338.0
 10
241.0
 20
338.0
 10
241.0
 20
337.0
 10
241.0
 20
337.0
 10
242.0
 20
336.0
 10
242.0
 20
336.0
 10
242.0
 20
335.0
 10
242.0
 20
335.0
 10
243.0
 20
334.0
 10
243.0
 20
334.0
 10
243.0
 20
330.0
 10
243.0
 20
330.0
 10
242.0
 20
330.0
 10
242.0
 20
330.0
 10
241.0
 20
329.0
 10
241.0
 20
329.0
 10
240.0
 20
329.0
 10
240.0
 20
329.0
 10
239.0
 20
328.0
 10
239.0
 20
328.0
 10
239.0
 20
326.0
 10
239.0
 20
326.0
 10
240.0
 20
325.0
 10
240.0
 20
325.0
 10
240.0
 20
324.0
 10
240.0
 20
324.0
 10
241.0
 20
323.0
 10
241.0
 20
323.0
 10
241.0
 20
322.0
 10
241.0
 20
322.0
 10
243.0
 20
320.0
 10
243.0
 20
320.0
 10
243.0
 20
319.0
 10
243.0
 20
319.0
 10
244.0
 20
318.0
 10
244.0
 20
318.0
 10
244.0
 20
317.0
 10
244.0
 20
317.0
 10
246.0
 20
315.0
 10
246.0
 20
315.0
 10
246.0
 20
314.0
 10
246.0
 20
314.0
 10
248.0
 20
312.0
 10
248.0
 20
312.0
 10
248.0
 20
311.0
 10
248.0
 20
311.0
 10
250.0
 20
309.0
 10
250.0
 20
309.0
 10
250.0
 20
308.0
 10
250.0
 20
308.0
 10
253.0
 20
305.0
 10
253.0
 20
305.0
 10
253.0
 20
304.0
 10
253.0
 20
304.0
 10
254.0
 20
303.0
 10
254.0
 20
303.0
 10
254.0
 20
300.0
 10
254.0
 20
300.0
 10
251.0
 20
297.0
 10
251.0
 20
297.0
 10
250.0
 20
297.0
 10
250.0
 20
297.0
 10
247.0
 20
294.0
 10
247.0
 20
294.0
 10
246.0
 20
294.0
 10
246.0
 20
294.0
 10
244.0
 20
292.0
 10
244.0
 20
292.0
 10
243.0
 20
292.0
 10
243.0
 20
292.0
 10
240.0
 20
289.0
 10
240.0
 20
289.0
 10
239.0
 20
289.0
 10
239.0
 20
289.0
 10
237.0
 20
287.0
 10
237.0
 20
287.0
 10
236.0
 20
287.0
 10
236.0
 20
287.0
 10
234.0
 20
285.0
 10
234.0
 20
285.0
 10
233.0
 20
285.0
 10
233.0
 20
285.0
 10
231.0
 20
283.0
 10
231.0
 20
283.0
 10
230.0
 20
283.0
 10
230.0
 20
283.0
 10
227.0
 20
280.0
 10
227.0
 20
280.0
 10
226.0
 20
280.0
 10
226.0
 20
280.0
 10
224.0
 20
278.0
 10
224.0
 20
278.0
 10
224.0
 20
275.0
 10
224.0
 20
275.0
 10
225.0
 20
274.0
 10
225.0
 20
274.0
 10
226.0
 20
274.0
 10
226.0
 20
274.0
 10
227.0
 20
273.0
 10
227.0
 20
273.0
 10
228.0
 20
273.0
 10
228.0
 20
273.0
 10
229.0
 20
272.0
 10
229.0
 20
272.0
 10
231.0
 20
272.0
 10
231.0
 20
272.0
 10
232.0
 20
271.0
 10
232.0
 20
271.0
 10
233.0
 20
271.0
 10
233.0
 20
271.0
 10
234.0
 20
270.0
 10
234.0
 20
270.0
 10
235.0
 20
270.0
 10
235.0
 20
270.0
 10
236.0
 20
269.0
 10
236.0
 20
269.0
 10
237.0
 20
269.0
 10
237.0
 20
269.0
 10
238.0
 20
268.0
 10
238.0
 20
268.0
 10
240.0
 20
268.0
 10
240.0
 20
268.0
 10
241.0
 20
267.0
 10
241.0
 20
267.0
 10
242.0
 20
267.0
 10
242.0
 20
267.0
 10
243.0
 20
266.0
 10
243.0
 20
266.0
 10
244.0
 20
266.0
 10
244.0
 20
266.0
 10
245.0
 20
265.0
 10
245.0
 20
265.0
 10
247.0
 20
265.0
 10
247.0
 20
265.0
 10
248.0
 20
264.0
 10
248.0
 20
264.0
 10
250.0
 20
264.0
 10
250.0
 20
264.0
 10
251.0
 20
263.0
 10
251.0
 20
263.0
 10
252.0
 20
263.0
 10
252.0
 20
263.0
 10
253.0
 20
262.0
 10
253.0
 20
262.0
 10
254.0
 20
262.0
 10
254.0
 20
262.0
 10
255.0
 20
261.0
 10
255.0
 20
261.0
 10
255.0
 20
258.0
 10
255.0
 20
258.0
 10
254.0
 20
257.0
 10
254.0
 20
257.0
 10
254.0
 20
255.0
 10
254.0
 20
255.0
 10
253.0
 20
254.0
 10
253.0
 20
254.0
 10
253.0
 20
253.0
 10
253.0
 20
253.0
 10
252.0
 20
252.0
 10
252.0
 20
252.0
 10
252.0
 20
250.0
 10
252.0
 20
250.0
 10
251.0
 20
249.0
 10
251.0
 20
249.0
 10
251.0
 20
247.0
 10
251.0
 20
247.0
 10
250.0
 20
246.0
 10
250.0
 20
246.0
 10
250.0
 20
244.0
 10
250.0
 20
244.0
 10
249.0
 20
243.0
 10
249.0
 20
243.0
 10
249.0
 20
241.0
 10
249.0
 20
241.0
 10
248.0
 20
240.0
 10
248.0
 20
240.0
 10
248.0
 20
238.0
 10
248.0
 20
238.0
 10
247.0
 20
237.0
 10
247.0
 20
237.0
 10
247.0
 20
235.0
 10
247.0
 20
235.0
 10
246.0
 20
234.0
 10
246.0
 20
234.0
 10
246.0
 20
232.0
 10
246.0
 20
232.0
 10
245.0
 20
231.0
 10
245.0
 20
231.0
 10
245.0
 20
229.0
 10
245.0
 20
229.0
 10
246.0
 20
228.0
 10
246.0
 20
228.0
 10
252.0
 20
228.0
 10
252.0
 20
228.0
 10
253.0
 20
229.0
 10
253.0
 20
229.0
 10
256.0
 20
229.0
 10
256.0
 20
229.0
 10
257.0
 20
230.0
 10
257.0
 20
230.0
 10
260.0
 20
230.0
 10
260.0
 20
230.0
 10
261.0
 20
231.0
 10
261.0
 20
231.0
 10
264.0
 20
231.0
 10
264.0
 20
231.0
 10
265.0
 20
232.0
 10
265.0
 20
232.0
 10
268.0
 20
232.0
 10
268.0
 20
232.0
 10
269.0
 20
233.0
 10
269.0
 20
233.0
 10
275.0
 20
233.0
 10
275.0
 20
233.0
 10
275.0
 20
201.0
 10
275.0
 20
201.0
 10
274.0
 20
200.0
 10
274.0
 20
200.0
 10
272.0
 20
200.0
 10
272.0
 20
200.0
 10
270.0
 20
202.0
 10
270.0
 20
202.0
 10
270.0
 20
214.0
 10
270.0
 20
214.0
 10
271.0
 20
215.0
 10
271.0
 20
215.0
 10
271.0
 20
225.0
 10
271.0
 20
225.0
 10
270.0
 20
226.0
 10
270.0
 20
226.0
 10
266.0
 20
226.0
 10
266.0
 20
226.0
 10
265.0
 20
225.0
 10
265.0
 20
225.0
 10
263.0
 20
225.0
 10
263.0
 20
225.0
 10
262.0
 20
224.0
 10
262.0
 20
224.0
 10
260.0
 20
224.0
 10
260.0
 20
224.0
 10
259.0
 20
223.0
 10
259.0
 20
223.0
 10
256.0
 20
223.0
 10
256.0
 20
223.0
 10
255.0
 20
222.0
 10
255.0
 20
222.0
 10
253.0
 20
222.0
 10
253.0
 20
222.0
 10
252.0
 20
221.0
 10
252.0
 20
221.0
 10
250.0
 20
221.0
 10
250.0
 20
221.0
 10
249.0
 20
220.0
 10
249.0
 20
220.0
 10
248.0
 20
220.0
 10
248.0
 20
220.0
 10
247.0
 20
219.0
 10
247.0
 20
219.0
 10
242.0
 20
219.0
 10
242.0
 20
219.0
 10
241.0
 20
220.0
 10
241.0
 20
220.0
 10
240.0
 20
220.0
 10
240.0
 20
220.0
 10
239.0
 20
221.0
 10
239.0
 20
221.0
 10
239.0
 20
225.0
 10
239.0
 20
225.0
 10
240.0
 20
226.0
 10
240.0
 20
226.0
 10
240.0
 20
229.0
 10
240.0
 20
229.0
 10
241.0
 20
230.0
 10
241.0
 20
230.0
 10
241.0
 20
232.0
 10
241.0
 20
232.0
 10
242.0
 20
233.0
 10
242.0
 20
233.0
 10
242.0
 20
235.0
 10
242.0
 20
235.0
 10
243.0
 20
236.0
 10
243.0
 20
236.0
 10
243.0
 20
238.0
 10
243.0
 20
238.0
 10
244.0
 20
239.0
 10
244.0
 20
239.0
 10
244.0
 20
242.0
 10
244.0
 20
242.0
 10
245.0
 20
243.0
 10
245.0
 20
243.0
 10
245.0
 20
245.0
 10
245.0
 20
245.0
 10
246.0
 20
246.0
 10
246.0
 20
246.0
 10
246.0
 20
247.0
 10
246.0
 20
247.0
 10
247.0
 20
248.0
 10
247.0
 20
248.0
 10
247.0
 20
250.0
 10
247.0
 20
250.0
 10
248.0
 20
251.0
 10
248.0
 20
251.0
 10
248.0
 20
255.0
 10
248.0
 20
255.0
 10
247.0
 20
256.0
 10
247.0
 20
256.0
 10
244.0
 20
256.0
 10
244.0
 20
256.0
 10
243.0
 20
255.0
 10
243.0
 20
255.0
 10
240.0
 20
255.0
 10
240.0
 20
255.0
 10
239.0
 20
254.0
 10
239.0
 20
254.0
 10
236.0
 20
254.0
 10
236.0
 20
254.0
 10
235.0
 20
253.0
 10
235.0
 20
253.0
 10
232.0
 20
253.0
 10
232.0
 20
253.0
 10
231.0
 20
252.0
 10
231.0
 20
252.0
 10
227.0
 20
252.0
 10
227.0
 20
252.0
 10
226.0
 20
251.0
 10
226.0
 20
251.0
 10
223.0
 20
251.0
 10
223.0
 20
251.0
 10
222.0
 20
250.0
 10
222.0
 20
250.0
 10
219.0
 20
250.0
 10
219.0
 20
250.0
 10
217.0
 20
248.0
 10
217.0
 20
248.0
 10
215.0
 20
248.0
 10
215.0
 20
248.0
 10
213.0
 20
250.0
 10
213.0
 20
250.0
 10
213.0
 20
251.0
 10
213.0
 20
251.0
 10
212.0
 20
252.0
 10
212.0
 20
252.0
 10
212.0
 20
255.0
 10
212.0
 20
255.0
 10
213.0
 20
255.0
 10
213.0
 20
255.0
 10
214.0
 20
256.0
 10
214.0
 20
256.0
 10
218.0
 20
256.0
 10
218.0
 20
256.0
 10
219.0
 20
257.0
 10
219.0
 20
257.0
 10
223.0
 20
257.0
 10
223.0
 20
257.0
 10
224.0
 20
258.0
 10
224.0
 20
258.0
 10
230.0
 20
258.0
 10
230.0
 20
258.0
 10
231.0
 20
259.0
 10
231.0
 20
259.0
 10
235.0
 20
259.0
 10
235.0
 20
259.0
 10
237.0
 20
261.0
 10
237.0
 20
261.0
 10
237.0
 20
263.0
 10
237.0
 20
263.0
 10
236.0
 20
264.0
 10
236.0
 20
264.0
 10
235.0
 20
264.0
 10
235.0
 20
264.0
 10
234.0
 20
265.0
 10
234.0
 20
265.0
 10
232.0
 20
265.0
 10
232.0
 20
265.0
 10
231.0
 20
266.0
 10
231.0
 20
266.0
 10
230.0
 20
266.0
 10
230.0
 20
266.0
 10
229.0
 20
267.0
 10
229.0
 20
267.0
 10
227.0
 20
267.0
 10
227.0
 20
267.0
 10
226.0
 20
268.0
 10
226.0
 20
268.0
 10
225.0
 20
268.0
 10
225.0
 20
268.0
 10
224.0
 20
269.0
 10
224.0
 20
269.0
 10
223.0
 20
269.0
 10
223.0
 20
269.0
 10
222.0
 20
270.0
 10
222.0
 20
270.0
 10
221.0
 20
270.0
 10
221.0
 20
270.0
 10
220.0
 20
271.0
 10
220.0
 20
271.0
 10
219.0
 20
271.0
 10
219.0
 20
271.0
 10
218.0
 20
272.0
 10
218.0
 20
272.0
 10
217.0
 20
272.0
 10
217.0
 20
272.0
 10
216.0
 20
273.0
 10
216.0
 20
273.0
 10
214.0
 20
273.0
 10
214.0
 20
273.0
 10
213.0
 20
274.0
 10
213.0
 20
274.0
 10
212.0
 20
274.0
 10
212.0
 20
274.0
 10
211.0
 20
275.0
 10
211.0
 20
275.0
 10
210.0
 20
275.0
 10
210.0
 20
275.0
 10
209.0
 20
276.0
 10
209.0
 20
276.0
 10
208.0
 20
276.0
 10
208.0
 20
276.0
 10
206.0
 20
278.0
 10
206.0
 20
278.0
 10
205.0
 20
278.0
 10
205.0
 20
278.0
 10
204.0
 20
279.0
 10
204.0
 20
279.0
 10
203.0
 20
279.0
 10
203.0
 20
279.0
 10
202.0
 20
280.0
 10
202.0
 20
280.0
 10
201.0
 20
280.0
 10
201.0
 20
280.0
 10
200.0
 20
281.0
 10
200.0
 20
281.0
 10
199.0
 20
281.0
 10
199.0
 20
281.0
 10
199.0
 20
283.0
 10
199.0
 20
283.0
 10
201.0
 20
285.0
 10
201.0
 20
285.0
 10
202.0
 20
285.0
 10
202.0
 20
285.0
 10
206.0
 20
289.0
 10
206.0
 20
289.0
 10
207.0
 20
289.0
 10
207.0
 20
289.0
 10
209.0
 20
291.0
 10
209.0
 20
291.0
 10
209.0
 20
294.0
 10
209.0
 20
294.0
 10
205.0
 20
298.0
 10
205.0
 20
298.0
 10
204.0
 20
298.0
 10
204.0
 20
298.0
 10
196.0
 20
306.0
 10
196.0
 20
306.0
 10
196.0
 20
308.0
 10
196.0
 20
308.0
 10
203.0
 20
308.0
 10
203.0
 20
308.0
 10
204.0
 20
307.0
 10
204.0
 20
307.0
 10
211.0
 20
307.0
 10
211.0
 20
307.0
 10
212.0
 20
306.0
 10
212.0
 20
306.0
 10
218.0
 20
306.0
 10
218.0
 20
306.0
 10
219.0
 20
305.0
 10
219.0
 20
305.0
 10
226.0
 20
305.0
 10
226.0
 20
305.0
 10
227.0
 20
304.0
 10
227.0
 20
304.0
 10
234.0
 20
304.0
 10
234.0
 20
304.0
 10
235.0
 20
303.0
 10
235.0
 20
303.0
 10
242.0
 20
303.0
 10
242.0
 20
303.0
 10
243.0
 20
302.0
 10
243.0
 20
302.0
 10
246.0
 20
302.0
 10
246.0
 20
302.0
 10
247.0
 20
303.0
 10
247.0
 20
303.0
 10
247.0
 20
305.0
 10
247.0
 20
305.0
 10
246.0
 20
306.0
 10
246.0
 20
306.0
 10
246.0
 20
307.0
 10
246.0
 20
307.0
 10
244.0
 20
309.0
 10
244.0
 20
309.0
 10
244.0
 20
310.0
 10
244.0
 20
310.0
 10
242.0
 20
312.0
 10
242.0
 20
312.0
 10
242.0
 20
313.0
 10
242.0
 20
313.0
 10
240.0
 20
315.0
 10
240.0
 20
315.0
 10
240.0
 20
316.0
 10
240.0
 20
316.0
 10
238.0
 20
318.0
 10
238.0
 20
318.0
 10
238.0
 20
319.0
 10
238.0
 20
319.0
 10
237.0
 20
320.0
 10
237.0
 20
320.0
 10
237.0
 20
321.0
 10
237.0
 20
321.0
 10
235.0
 20
323.0
 10
235.0
 20
323.0
 10
235.0
 20
324.0
 10
235.0
 20
324.0
 10
234.0
 20
325.0
 10
234.0
 20
325.0
 10
234.0
 20
326.0
 10
234.0
 20
326.0
 10
232.0
 20
328.0
 10
232.0
 20
328.0
 10
232.0
 20
329.0
 10
232.0
 20
329.0
 10
231.0
 20
330.0
 10
231.0
 20
330.0
 10
231.0
 20
331.0
 10
231.0
 20
331.0
 10
230.0
 20
332.0
 10
230.0
 20
332.0
 10
230.0
 20
333.0
 10
230.0
 20
333.0
 10
228.0
 20
335.0
 10
228.0
 20
335.0
 10
228.0
 20
336.0
 10
228.0
 20
336.0
 10
227.0
 20
337.0
 10
227.0
 20
337.0
 10
227.0
 20
338.0
 10
227.0
 20
338.0
 10
226.0
 20
339.0
 10
226.0
 20
339.0
 10
226.0
 20
340.0
 10
226.0
 20
340.0
 10
225.0
 20
341.0
 10
225.0
 20
341.0
 10
225.0
 20
342.0
 10
225.0
 20
342.0
 10
224.0
 20
343.0
 10
224.0
 20
343.0
 10
224.0
 20
344.0
 10
224.0
 20
344.0
 10
223.0
 20
345.0
 10
223.0
 20
345.0
 10
223.0
 20
346.0
 10
223.0
 20
346.0
 10
222.0
 20
347.0
 10
222.0
 20
347.0
 10
218.0
 20
347.0
 10
218.0
 20
347.0
 10
216.0
 20
345.0
 10
216.0
 20
345.0
 10
215.0
 20
345.0
 10
215.0
 20
345.0
 10
213.0
 20
343.0
 10
213.0
 20
343.0
 10
212.0
 20
343.0
 10
212.0
 20
343.0
 10
211.0
 20
342.0
 10
211.0
 20
342.0
 10
211.0
 20
339.0
 10
211.0
 20
339.0
 10
213.0
 20
337.0
 10
213.0
 20
337.0
 10
213.0
 20
336.0
 10
213.0
 20
336.0
 10
217.0
 20
332.0
 10
217.0
 20
332.0
 10
217.0
 20
331.0
 10
217.0
 20
331.0
 10
221.0
 20
327.0
 10
221.0
 20
327.0
 10
221.0
 20
326.0
 10
221.0
 20
326.0
 10
226.0
 20
321.0
 10
226.0
 20
321.0
 10
226.0
 20
320.0
 10
226.0
 20
320.0
 10
231.0
 20
315.0
 10
231.0
 20
315.0
 10
231.0
 20
314.0
 10
231.0
 20
314.0
 10
234.0
 20
311.0
 10
234.0
 20
311.0
 10
234.0
 20
309.0
 10
234.0
 20
309.0
 10
232.0
 20
309.0
 10
232.0
 20
309.0
 10
231.0
 20
310.0
 10
231.0
 20
310.0
 10
227.0
 20
310.0
 10
227.0
 20
310.0
 10
226.0
 20
311.0
 10
226.0
 20
311.0
 10
223.0
 20
311.0
 10
223.0
 20
311.0
 10
222.0
 20
312.0
 10
222.0
 20
312.0
 10
219.0
 20
312.0
 10
219.0
 20
312.0
 10
218.0
 20
313.0
 10
218.0
 20
313.0
 10
216.0
 20
313.0
 10
216.0
 20
313.0
 10
215.0
 20
314.0
 10
215.0
 20
314.0
 10
213.0
 20
314.0
 10
213.0
 20
314.0
 10
212.0
 20
315.0
 10
212.0
 20
315.0
 10
210.0
 20
315.0
 10
210.0
 20
315.0
 10
209.0
 20
316.0
 10
209.0
 20
316.0
 10
207.0
 20
316.0
 10
207.0
 20
316.0
 10
206.0
 20
317.0
 10
206.0
 20
317.0
 10
205.0
 20
317.0
 10
205.0
 20
317.0
 10
204.0
 20
318.0
 10
204.0
 20
318.0
 10
202.0
 20
318.0
 10
202.0
 20
318.0
 10
201.0
 20
319.0
 10
201.0
 20
319.0
 10
200.0
 20
319.0
 10
200.0
 20
319.0
 10
200.0
 20
321.0
 10
200.0
 20
321.0
 10
202.0
 20
321.0
 10
202.0
 20
321.0
 10
203.0
 20
320.0
 10
203.0
 20
320.0
 10
208.0
 20
320.0
 10
208.0
 20
320.0
 10
209.0
 20
319.0
 10
209.0
 20
319.0
 10
212.0
 20
319.0
 10
212.0
 20
319.0
 10
213.0
 20
318.0
 10
213.0
 20
318.0
 10
216.0
 20
318.0
 10
216.0
 20
318.0
 10
217.0
 20
317.0
 10
217.0
 20
317.0
 10
221.0
 20
317.0
 10
221.0
 20
317.0
 10
222.0
 20
318.0
 10
222.0
 20
318.0
 10
222.0
 20
320.0
 10
222.0
 20
320.0
 10
218.0
 20
324.0
 10
218.0
 20
324.0
 10
218.0
 20
325.0
 10
218.0
 20
325.0
 10
213.0
 20
330.0
 10
213.0
 20
330.0
 10
213.0
 20
331.0
 10
213.0
 20
331.0
 10
210.0
 20
334.0
 10
210.0
 20
334.0
 10
210.0
 20
335.0
 10
210.0
 20
335.0
 10
207.0
 20
338.0
 10
207.0
 20
338.0
 10
207.0
 20
339.0
 10
207.0
 20
339.0
 10
206.0
 20
340.0
 10
206.0
 20
340.0
 10
206.0
 20
344.0
 10
206.0
 20
344.0
 10
207.0
 20
344.0
 10
207.0
 20
344.0
 10
211.0
 20
348.0
 10
211.0
 20
348.0
 10
212.0
 20
348.0
 10
212.0
 20
348.0
 10
214.0
 20
350.0
 10
214.0
 20
350.0
 10
215.0
 20
350.0
 10
215.0
 20
350.0
 10
216.0
 20
351.0
 10
216.0
 20
351.0
 10
217.0
 20
351.0
 10
217.0
 20
351.0
 10
219.0
 20
353.0
 10
219.0
 20
353.0
 10
221.0
 20
353.0
 10
221.0
 20
353.0
 10
222.0
 20
354.0
 10
222.0
 20
354.0
 10
223.0
 20
354.0
 10
223.0
 20
354.0
 10
224.0
 20
355.0
 10
224.0
 20
355.0
 10
226.0
 20
355.0
 10
226.0
 20
355.0
 10
227.0
 20
356.0
 10
227.0
 20
356.0
 10
229.0
 20
356.0
 10
229.0
 20
356.0
 10
230.0
 20
357.0
 10
230.0
 20
357.0
 10
233.0
 20
357.0
 10
233.0
 20
357.0
 10
234.0
 20
358.0
 10
234.0
 20
358.0
 10
238.0
 20
358.0
 10
238.0
 20
358.0
 10
239.0
 20
359.0
 10
239.0
 20
359.0
 10
261.0
 20
359.0
 10
261.0
 20
359.0
 10
262.0
 20
358.0
 10
262.0
 20
358.0
 10
266.0
 20
358.0
 10
266.0
 20
358.0
 10
267.0
 20
357.0
 10
267.0
 20
357.0
 10
270.0
 20
357.0
 10
270.0
 20
357.0
 10
271.0
 20
356.0
 10
271.0
 20
356.0
 10
274.0
 20
356.0
 10
274.0
 20
356.0
 10
275.0
 20
355.0
 10
275.0
 20
355.0
 10
278.0
 20
355.0
 10
278.0
 20
355.0
 10
279.0
 20
354.0
 10
279.0
 20
354.0
 10
281.0
 20
354.0
 10
281.0
 20
354.0
 10
282.0
 20
353.0
 10
282.0
 20
353.0
 10
284.0
 20
353.0
 10
284.0
 20
353.0
 10
285.0
 20
352.0
 10
285.0
 20
352.0
 10
286.0
 20
352.0
 10
286.0
 20
352.0
 10
287.0
 20
351.0
 10
287.0
 20
351.0
 10
289.0
 20
351.0
 10
289.0
 20
351.0
 10
290.0
 20
350.0
 10
290.0
 20
350.0
 10
292.0
 20
350.0
 10
292.0
 20
350.0
 10
293.0
 20
349.0
 10
293.0
 20
349.0
 10
295.0
 20
349.0
 10
295.0
 20
349.0
 10
296.0
 20
348.0
 10
296.0
 20
348.0
 10
298.0
 20
348.0
 10
298.0
 20
348.0
 10
299.0
 20
347.0
 10
299.0
 20
347.0
 10
301.0
 20
347.0
 10
301.0
 20
347.0
 10
302.0
 20
346.0
 10
302.0
 20
346.0
 10
304.0
 20
346.0
 10
304.0
 20
346.0
 10
305.0
 20
345.0
 10
305.0
 20
345.0
 10
308.0
 20
345.0
 10
308.0
 20
345.0
 10
309.0
 20
344.0
 10
309.0
 20
344.0
 10
313.0
 20
344.0
 10
313.0
 20
344.0
 10
314.0
 20
343.0
 10
314.0
 20
343.0
 10
319.0
 20
343.0
 10
319.0
 20
343.0
 10
320.0
 20
342.0
 10
320.0
 20
342.0
 10
321.0
 20
342.0
 10
321.0
 20
342.0
 10
321.0
 20
327.0
 10
321.0
 20
327.0
 10
320.0
 20
326.0
 10
320.0
 20
326.0
 10
320.0
 20
320.0
 10
320.0
 20
320.0
 10
319.0
 20
319.0
 10
319.0
 20
319.0
 10
319.0
 20
315.0
 10
319.0
 20
315.0
 10
318.0
 20
314.0
 10
318.0
 20
314.0
 10
318.0
 20
309.0
 10
318.0
 20
309.0
 10
317.0
 20
308.0
 10
317.0
 20
308.0
 10
317.0
 20
304.0
 10
317.0
 20
304.0
 10
316.0
 20
303.0
 10
316.0
 20
303.0
 10
316.0
 20
300.0
 10
316.0
 20
300.0
 10
315.0
 20
299.0
 10
315.0
 20
299.0
 10
315.0
 20
296.0
 10
315.0
 20
296.0
 10
314.0
 20
295.0
 10
314.0
 20
295.0
 10
314.0
 20
291.0
 10
314.0
 20
291.0
 10
313.0
 20
290.0
 10
313.0
 20
290.0
 10
313.0
 20
287.0
 10
313.0
 20
287.0
 10
312.0
 20
286.0
 10
312.0
 20
286.0
 10
312.0
 20
283.0
 10
312.0
 20
283.0
 10
311.0
 20
282.0
 10
311.0
 20
282.0
 10
311.0
 20
279.0
 10
311.0
 20
279.0
 10
310.0
 20
278.0
 10
310.0
 20
278.0
 10
310.0
 20
274.0
 10
310.0
 20
274.0
 10
309.0
 20
273.0
 10
309.0
 20
273.0
 10
309.0
 20
268.0
 10
309.0
 20
268.0
 10
308.0
 20
267.0
 10
308.0
 20
267.0
 10
308.0
 20
263.0
 10
308.0
 20
263.0
 10
307.0
 20
262.0
 10
307.0
 20
262.0
 10
307.0
 20
257.0
 10
307.0
 20
257.0
 10
306.0
 20
256.0
 10
306.0
 20
256.0
 10
306.0
 20
246.0
 10
306.0
 20
246.0
 10
305.0
 20
245.0
 10
305.0
 20
245.0
 10
305.0
 20
229.0
 10
305.0
 20
229.0
 10
306.0
 20
228.0
 10
306.0
 20
228.0
 10
306.0
 20
218.0
 10
306.0
 20
218.0
 10
307.0
 20
217.0
 10
307.0
 20
217.0
 10
307.0
 20
212.0
 10
307.0
 20
212.0
 10
308.0
 20
211.0
 10
308.0
 20
211.0
 10
308.0
 20
206.0
 10
308.0
 20
206.0
 10
309.0
 20
205.0
 10
309.0
 20
205.0
 10
309.0
 20
202.0
 10
309.0
 20
202.0
 10
310.0
 20
201.0
 10
310.0
 20
201.0
 10
310.0
 20
198.0
 10
310.0
 20
198.0
 10
311.0
 20
197.0
 10
311.0
 20
197.0
 10
311.0
 20
194.0
 10
311.0
 20
194.0
 10
312.0
 20
193.0
 10
312.0
 20
193.0
 10
312.0
 20
191.0
 10
312.0
 20
191.0
 10
313.0
 20
190.0
 10
313.0
 20
190.0
 10
313.0
 20
188.0
 10
313.0
 20
188.0
 10
311.0
 20
188.0
  0
LWPOLYLINE
  5
5A
330
17
100
AcDbEntity
  8
0
100
AcDbPolyline
 90
60
 70
0
 10
234.0
 20
334.0
 10
235.0
 20
333.0
 10
235.0
 20
333.0
 10
237.0
 20
333.0
 10
237.0
 20
333.0
 10
238.0
 20
334.0
 10
238.0
 20
334.0
 10
238.0
 20
337.0
 10
238.0
 20
337.0
 10
237.0
 20
338.0
 10
237.0
 20
338.0
 10
237.0
 20
339.0
 10
237.0
 20
339.0
 10
236.0
 20
340.0
 10
236.0
 20
340.0
 10
236.0
 20
341.0
 10
236.0
 20
341.0
 10
235.0
 20
342.0
 10
235.0
 20
342.0
 10
235.0
 20
343.0
 10
235.0
 20
343.0
 10
234.0
 20
344.0
 10
234.0
 20
344.0
 10
234.0
 20
345.0
 10
234.0
 20
345.0
 10
233.0
 20
346.0
 10
233.0
 20
346.0
 10
233.0
 20
347.0
 10
233.0
 20
347.0
 10
232.0
 20
348.0
 10
232.0
 20
348.0
 10
232.0
 20
349.0
 10
232.0
 20
349.0
 10
230.0
 20
351.0
 10
230.0
 20
351.0
 10
228.0
 20
351.0
 10
228.0
 20
351.0
 10
227.0
 20
350.0
 10
227.0
 20
350.0
 10
227.0
 20
346.0
 10
227.0
 20
346.0
 10
228.0
 20
345.0
 10
228.0
 20
345.0
 10
228.0
 20
344.0
 10
228.0
 20
344.0
 10
229.0
 20
343.0
 10
229.0
 20
343.0
 10
229.0
 20
342.0
 10
229.0
 20
342.0
 10
231.0
 20
340.0
 10
231.0
 20
340.0
 10
231.0
 20
339.0
 10
231.0
 20
339.0
 10
232.0
 20
338.0
 10
232.0
 20
338.0
 10
232.0
 20
337.0
 10
232.0
 20
337.0
 10
234.0
 20
335.0
 10
234.0
 20
335.0
 10
234.0
 20
334.0
  0
LWPOLYLINE
  5
5B
330
17
100
AcDbEntity
  8
0
100
AcDbPolyline
 90
40
 70
0
 10
283.0
 20
319.0
 10
284.0
 20
318.0
 10
284.0
 20
318.0
 10
287.0
 20
318.0
 10
287.0
 20
318.0
 10
290.0
 20
321.0
 10
290.0
 20
321.0
 10
290.0
 20
322.0
 10
290.0
 20
322.0
 10
291.0
 20
323.0
 10
291.0
 20
323.0
 10
291.0
 20
325.0
 10
291.0
 20
325.0
 10
292.0
 20
326.0
 10
292.0
 20
326.0
 10
292.0
 20
327.0
 10
292.0
 20
327.0
 10
293.0
 20
328.0
 10
293.0
 20
328.0
 10
293.0
 20
329.0
 10
293.0
 20
329.0
 10
294.0
 20
330.0
 10
294.0
 20
330.0
 10
294.0
 20
333.0
 10
294.0
 20
333.0
 10
293.0
 20
334.0
 10
293.0
 20
334.0
 10
291.0
 20
334.0
 10
291.0
 20
334.0
 10
290.0
 20
333.0
 10
290.0
 20
333.0
 10
289.0
 20
333.0
 10
289.0
 20
333.0
 10
280.0
 20
324.0
 10
280.0
 20
324.0
 10
280.0
 20
321.0
 10
280.0
 20
321.0
 10
282.0
 20
319.0
 10
282.0
 20
319.0
 10
283.0
 20
319.0
  0
LWPOLYLINE
  5
5C
330
17
100
AcDbEntity
  8
0
100
AcDbPolyline
 90
138
 70
0
 10
305.0
 20
288.0
 10
308.0
 20
288.0
 10
308.0
 20
288.0
 10
309.0
 20
289.0
 10
309.0
 20
289.0
 10
309.0
 20
294.0
 10
309.0
 20
294.0
 10
308.0
 20
295.0
 10
308.0
 20
295.0
 10
308.0
 20
296.0
 10
308.0
 20
296.0
 10
307.0
 20
297.0
 10
307.0
 20
297.0
 10
307.0
 20
298.0
 10
307.0
 20
298.0
 10
306.0
 20
299.0
 10
306.0
 20
299.0
 10
306.0
 20
300.0
 10
306.0
 20
300.0
 10
304.0
 20
302.0
 10
304.0
 20
302.0
 10
304.0
 20
307.0
 10
304.0
 20
307.0
 10
305.0
 20
308.0
 10
305.0
 20
308.0
 10
305.0
 20
309.0
 10
305.0
 20
309.0
 10
306.0
 20
310.0
 10
306.0
 20
310.0
 10
308.0
 20
310.0
 10
308.0
 20
310.0
 10
308.0
 20
307.0
 10
308.0
 20
307.0
 10
310.0
 20
305.0
 10
310.0
 20
305.0
 10
312.0
 20
305.0
 10
312.0
 20
305.0
 10
313.0
 20
306.0
 10
313.0
 20
306.0
 10
313.0
 20
309.0
 10
313.0
 20
309.0
 10
314.0
 20
310.0
 10
314.0
 20
310.0
 10
314.0
 20
315.0
 10
314.0
 20
315.0
 10
315.0
 20
316.0
 10
315.0
 20
316.0
 10
315.0
 20
322.0
 10
315.0
 20
322.0
 10
316.0
 20
323.0
 10
316.0
 20
323.0
 10
316.0
 20
332.0
 10
316.0
 20
332.0
 10
317.0
 20
333.0
 10
317.0
 20
333.0
 10
317.0
 20
338.0
 10
317.0
 20
338.0
 10
314.0
 20
341.0
 10
314.0
 20
341.0
 10
312.0
 20
341.0
 10
312.0
 20
341.0
 10
310.0
 20
339.0
 10
310.0
 20
339.0
 10
310.0
 20
338.0
 10
310.0
 20
338.0
 10
309.0
 20
337.0
 10
309.0
 20
337.0
 10
309.0
 20
336.0
 10
309.0
 20
336.0
 10
308.0
 20
335.0
 10
308.0
 20
335.0
 10
308.0
 20
334.0
 10
308.0
 20
334.0
 10
307.0
 20
333.0
 10
307.0
 20
333.0
 10
307.0
 20
331.0
 10
307.0
 20
331.0
 10
306.0
 20
330.0
 10
306.0
 20
330.0
 10
306.0
 20
329.0
 10
306.0
 20
329.0
 10
305.0
 20
328.0
 10
305.0
 20
328.0
 10
305.0
 20
326.0
 10
305.0
 20
326.0
 10
304.0
 20
325.0
 10
304.0
 20
325.0
 10
304.0
 20
324.0
 10
304.0
 20
324.0
 10
303.0
 20
323.0
 10
303.0
 20
323.0
 10
303.0
 20
322.0
 10
303.0
 20
322.0
 10
302.0
 20
321.0
 10
302.0
 20
321.0
 10
302.0
 20
319.0
 10
302.0
 20
319.0
 10
301.0
 20
318.0
 10
301.0
 20
318.0
 10
301.0
 20
317.0
 10
301.0
 20
317.0
 10
300.0
 20
316.0
 10
300.0
 20
316.0
 10
300.0
 20
315.0
 10
300.0
 20
315.0
 10
299.0
 20
314.0
 10
299.0
 20
314.0
 10
299.0
 20
313.0
 10
299.0
 20
313.0
 10
298.0
 20
312.0
 10
298.0
 20
312.0
 10
298.0
 20
310.0
 10
298.0
 20
310.0
 10
297.0
 20
309.0
 10
297.0
 20
309.0
 10
297.0
 20
308.0
 10
297.0
 20
308.0
 10
296.0
 20
307.0
 10
296.0
 20
307.0
 10
296.0
 20
306.0
 10
296.0
 20
306.0
 10
295.0
 20
305.0
 10
295.0
 20
305.0
 10
295.0
 20
304.0
 10
295.0
 20
304.0
 10
294.0
 20
303.0
 10
294.0
 20
303.0
 10
294.0
 20
302.0
 10
294.0
 20
302.0
 10
293.0
 20
301.0
 10
293.0
 20
301.0
 10
293.0
 20
299.0
 10
293.0
 20
299.0
 10
302.0
 20
290.0
 10
302.0
 20
290.0
 10
303.0
 20
290.0
 10
303.0
 20
290.0
 10
305.0
 20
288.0
  0
LWPOLYLINE
  5
5D
330
17
100
AcDbEntity
  8
0
100
AcDbPolyline
 90
78
 70
0
 10
212.0
 20
280.0
 10
213.0
 20
279.0
 10
213.0
 20
279.0
 10
216.0
 20
279.0
 10
216.0
 20
279.0
 10
218.0
 20
281.0
 10
218.0
 20
281.0
 10
219.0
 20
281.0
 10
219.0
 20
281.0
 10
221.0
 20
283.0
 10
221.0
 20
283.0
 10
222.0
 20
283.0
 10
222.0
 20
283.0
 10
224.0
 20
285.0
 10
224.0
 20
285.0
 10
225.0
 20
285.0
 10
225.0
 20
285.0
 10
227.0
 20
287.0
 10
227.0
 20
287.0
 10
228.0
 20
287.0
 10
228.0
 20
287.0
 10
230.0
 20
289.0
 10
230.0
 20
289.0
 10
231.0
 20
289.0
 10
231.0
 20
289.0
 10
234.0
 20
292.0
 10
234.0
 20
292.0
 10
235.0
 20
292.0
 10
235.0
 20
292.0
 10
237.0
 20
294.0
 10
237.0
 20
294.0
 10
237.0
 20
297.0
 10
237.0
 20
297.0
 10
236.0
 20
298.0
 10
236.0
 20
298.0
 10
228.0
 20
298.0
 10
228.0
 20
298.0
 10
227.0
 20
299.0
 10
227.0
 20
299.0
 10
220.0
 20
299.0
 10
220.0
 20
299.0
 10
219.0
 20
300.0
 10
219.0
 20
300.0
 10
212.0
 20
300.0
 10
212.0
 20
300.0
 10
211.0
 20
299.0
 10
211.0
 20
299.0
 10
211.0
 20
297.0
 10
211.0
 20
297.0
 10
212.0
 20
296.0
 10
212.0
 20
296.0
 10
213.0
 20
296.0
 10
213.0
 20
296.0
 10
215.0
 20
294.0
 10
215.0
 20
294.0
 10
216.0
 20
294.0
 10
216.0
 20
294.0
 10
216.0
 20
291.0
 10
216.0
 20
291.0
 10
215.0
 20
290.0
 10
215.0
 20
290.0
 10
214.0
 20
290.0
 10
214.0
 20
290.0
 10
212.0
 20
288.0
 10
212.0
 20
288.0
 10
211.0
 20
288.0
 10
211.0
 20
288.0
 10
208.0
 20
285.0
 10
208.0
 20
285.0
 10
208.0
 20
282.0
 10
208.0
 20
282.0
 10
209.0
 20
281.0
 10
209.0
 20
281.0
 10
210.0
 20
281.0
 10
210.0
 20
281.0
 10
211.0
 20
280.0
 10
211.0
 20
280.0
 10
212.0
 20
280.0
  0
LWPOLYLINE
  5
5E
330
17
100
AcDbEntity
  8
0
100
AcDbPolyline
 90
24
 70
0
 10
293.0
 20
263.0
 10
294.0
 20
262.0
 10
294.0
 20
262.0
 10
301.0
 20
262.0
 10
301.0
 20
262.0
 10
304.0
 20
265.0
 10
304.0
 20
265.0
 10
304.0
 20
269.0
 10
304.0
 20
269.0
 10
305.0
 20
270.0
 10
305.0
 20
270.0
 10
305.0
 20
272.0
 10
305.0
 20
272.0
 10
304.0
 20
273.0
 10
304.0
 20
273.0
 10
301.0
 20
273.0
 10
301.0
 20
273.0
 10
296.0
 20
268.0
 10
296.0
 20
268.0
 10
295.0
 20
268.0
 10
295.0
 20
268.0
 10
293.0
 20
266.0
 10
293.0
 20
266.0
 10
293.0
 20
263.0
  0
LWPOLYLINE
  5
5F
330
17
100
AcDbEntity
  8
0
100
AcDbPolyline
 90
274
 70
0
 10
279.0
 20
248.0
 10
285.0
 20
248.0
 10
285.0
 20
248.0
 10
286.0
 20
249.0
 10
286.0
 20
249.0
 10
300.0
 20
249.0
 10
300.0
 20
249.0
 10
302.0
 20
251.0
 10
302.0
 20
251.0
 10
302.0
 20
258.0
 10
302.0
 20
258.0
 10
301.0
 20
259.0
 10
301.0
 20
259.0
 10
287.0
 20
259.0
 10
287.0
 20
259.0
 10
286.0
 20
260.0
 10
286.0
 20
260.0
 10
285.0
 20
260.0
 10
285.0
 20
260.0
 10
284.0
 20
261.0
 10
284.0
 20
261.0
 10
284.0
 20
263.0
 10
284.0
 20
263.0
 10
286.0
 20
265.0
 10
286.0
 20
265.0
 10
287.0
 20
265.0
 10
287.0
 20
265.0
 10
292.0
 20
270.0
 10
292.0
 20
270.0
 10
293.0
 20
270.0
 10
293.0
 20
270.0
 10
298.0
 20
275.0
 10
298.0
 20
275.0
 10
299.0
 20
275.0
 10
299.0
 20
275.0
 10
305.0
 20
281.0
 10
305.0
 20
281.0
 10
305.0
 20
283.0
 10
305.0
 20
283.0
 10
299.0
 20
289.0
 10
299.0
 20
289.0
 10
298.0
 20
289.0
 10
298.0
 20
289.0
 10
290.0
 20
297.0
 10
290.0
 20
297.0
 10
289.0
 20
297.0
 10
289.0
 20
297.0
 10
285.0
 20
301.0
 10
285.0
 20
301.0
 10
285.0
 20
303.0
 10
285.0
 20
303.0
 10
286.0
 20
304.0
 10
286.0
 20
304.0
 10
290.0
 20
304.0
 10
290.0
 20
304.0
 10
293.0
 20
307.0
 10
293.0
 20
307.0
 10
293.0
 20
308.0
 10
293.0
 20
308.0
 10
294.0
 20
309.0
 10
294.0
 20
309.0
 10
294.0
 20
310.0
 10
294.0
 20
310.0
 10
295.0
 20
311.0
 10
295.0
 20
311.0
 10
295.0
 20
313.0
 10
295.0
 20
313.0
 10
296.0
 20
314.0
 10
296.0
 20
314.0
 10
296.0
 20
315.0
 10
296.0
 20
315.0
 10
297.0
 20
316.0
 10
297.0
 20
316.0
 10
297.0
 20
317.0
 10
297.0
 20
317.0
 10
298.0
 20
318.0
 10
298.0
 20
318.0
 10
298.0
 20
319.0
 10
298.0
 20
319.0
 10
299.0
 20
320.0
 10
299.0
 20
320.0
 10
299.0
 20
322.0
 10
299.0
 20
322.0
 10
300.0
 20
323.0
 10
300.0
 20
323.0
 10
300.0
 20
324.0
 10
300.0
 20
324.0
 10
301.0
 20
325.0
 10
301.0
 20
325.0
 10
301.0
 20
326.0
 10
301.0
 20
326.0
 10
302.0
 20
327.0
 10
302.0
 20
327.0
 10
302.0
 20
329.0
 10
302.0
 20
329.0
 10
303.0
 20
330.0
 10
303.0
 20
330.0
 10
303.0
 20
331.0
 10
303.0
 20
331.0
 10
304.0
 20
332.0
 10
304.0
 20
332.0
 10
304.0
 20
334.0
 10
304.0
 20
334.0
 10
305.0
 20
335.0
 10
305.0
 20
335.0
 10
305.0
 20
336.0
 10
305.0
 20
336.0
 10
306.0
 20
337.0
 10
306.0
 20
337.0
 10
306.0
 20
340.0
 10
306.0
 20
340.0
 10
305.0
 20
341.0
 10
305.0
 20
341.0
 10
303.0
 20
341.0
 10
303.0
 20
341.0
 10
302.0
 20
340.0
 10
302.0
 20
340.0
 10
302.0
 20
339.0
 10
302.0
 20
339.0
 10
300.0
 20
337.0
 10
300.0
 20
337.0
 10
300.0
 20
336.0
 10
300.0
 20
336.0
 10
299.0
 20
335.0
 10
299.0
 20
335.0
 10
299.0
 20
334.0
 10
299.0
 20
334.0
 10
298.0
 20
333.0
 10
298.0
 20
333.0
 10
298.0
 20
332.0
 10
298.0
 20
332.0
 10
297.0
 20
331.0
 10
297.0
 20
331.0
 10
297.0
 20
330.0
 10
297.0
 20
330.0
 10
296.0
 20
329.0
 10
296.0
 20
329.0
 10
296.0
 20
327.0
 10
296.0
 20
327.0
 10
295.0
 20
326.0
 10
295.0
 20
326.0
 10
295.0
 20
325.0
 10
295.0
 20
325.0
 10
294.0
 20
324.0
 10
294.0
 20
324.0
 10
294.0
 20
323.0
 10
294.0
 20
323.0
 10
293.0
 20
322.0
 10
293.0
 20
322.0
 10
293.0
 20
321.0
 10
293.0
 20
321.0
 10
292.0
 20
320.0
 10
292.0
 20
320.0
 10
292.0
 20
319.0
 10
292.0
 20
319.0
 10
291.0
 20
318.0
 10
291.0
 20
318.0
 10
291.0
 20
317.0
 10
291.0
 20
317.0
 10
289.0
 20
315.0
 10
289.0
 20
315.0
 10
282.0
 20
315.0
 10
282.0
 20
315.0
 10
281.0
 20
316.0
 10
281.0
 20
316.0
 10
275.0
 20
316.0
 10
275.0
 20
316.0
 10
273.0
 20
314.0
 10
273.0
 20
314.0
 10
273.0
 20
313.0
 10
273.0
 20
313.0
 10
272.0
 20
312.0
 10
272.0
 20
312.0
 10
272.0
 20
311.0
 10
272.0
 20
311.0
 10
271.0
 20
310.0
 10
271.0
 20
310.0
 10
271.0
 20
309.0
 10
271.0
 20
309.0
 10
270.0
 20
308.0
 10
270.0
 20
308.0
 10
270.0
 20
306.0
 10
270.0
 20
306.0
 10
269.0
 20
305.0
 10
269.0
 20
305.0
 10
269.0
 20
303.0
 10
269.0
 20
303.0
 10
270.0
 20
302.0
 10
270.0
 20
302.0
 10
273.0
 20
302.0
 10
273.0
 20
302.0
 10
274.0
 20
303.0
 10
274.0
 20
303.0
 10
276.0
 20
303.0
 10
276.0
 20
303.0
 10
277.0
 20
304.0
 10
277.0
 20
304.0
 10
279.0
 20
304.0
 10
279.0
 20
304.0
 10
279.0
 20
302.0
 10
279.0
 20
302.0
 10
278.0
 20
302.0
 10
278.0
 20
302.0
 10
276.0
 20
300.0
 10
276.0
 20
300.0
 10
275.0
 20
300.0
 10
275.0
 20
300.0
 10
273.0
 20
298.0
 10
273.0
 20
298.0
 10
272.0
 20
298.0
 10
272.0
 20
298.0
 10
271.0
 20
297.0
 10
271.0
 20
297.0
 10
270.0
 20
297.0
 10
270.0
 20
297.0
 10
267.0
 20
294.0
 10
267.0
 20
294.0
 10
267.0
 20
291.0
 10
267.0
 20
291.0
 10
266.0
 20
290.0
 10
266.0
 20
290.0
 10
266.0
 20
287.0
 10
266.0
 20
287.0
 10
269.0
 20
284.0
 10
269.0
 20
284.0
 10
270.0
 20
284.0
 10
270.0
 20
284.0
 10
270.0
 20
281.0
 10
270.0
 20
281.0
 10
267.0
 20
278.0
 10
267.0
 20
278.0
 10
267.0
 20
272.0
 10
267.0
 20
272.0
 10
268.0
 20
271.0
 10
268.0
 20
271.0
 10
268.0
 20
270.0
 10
268.0
 20
270.0
 10
271.0
 20
267.0
 10
271.0
 20
267.0
 10
272.0
 20
267.0
 10
272.0
 20
267.0
 10
273.0
 20
266.0
 10
273.0
 20
266.0
 10
274.0
 20
266.0
 10
274.0
 20
266.0
 10
275.0
 20
265.0
 10
275.0
 20
265.0
 10
276.0
 20
265.0
 10
276.0
 20
265.0
 10
277.0
 20
264.0
 10
277.0
 20
264.0
 10
277.0
 20
262.0
 10
277.0
 20
262.0
 10
276.0
 20
261.0
 10
276.0
 20
261.0
 10
274.0
 20
261.0
 10
274.0
 20
261.0
 10
273.0
 20
260.0
 10
273.0
 20
260.0
 10
273.0
 20
257.0
 10
273.0
 20
257.0
 10
274.0
 20
256.0
 10
274.0
 20
256.0
 10
274.0
 20
255.0
 10
274.0
 20
255.0
 10
275.0
 20
254.0
 10
275.0
 20
254.0
 10
275.0
 20
253.0
 10
275.0
 20
253.0
 10
276.0
 20
252.0
 10
276.0
 20
252.0
 10
276.0
 20
251.0
 10
276.0
 20
251.0
 10
279.0
 20
248.0
  0
LWPOLYLINE
  5
60
330
17
100
AcDbEntity
  8
0
100
AcDbPolyline
 90
24
 70
0
 10
297.0
 20
231.0
 10
298.0
 20
230.0
 10
298.0
 20
230.0
 10
300.0
 20
230.0
 10
300.0
 20
230.0
 10
301.0
 20
231.0
 10
301.0
 20
231.0
 10
301.0
 20
243.0
 10
301.0
 20
243.0
 10
299.0
 20
245.0
 10
299.0
 20
245.0
 10
285.0
 20
245.0
 10
285.0
 20
245.0
 10
284.0
 20
244.0
 10
284.0
 20
244.0
 10
284.0
 20
242.0
 10
284.0
 20
242.0
 10
292.0
 20
234.0
 10
292.0
 20
234.0
 10
293.0
 20
234.0
 10
293.0
 20
234.0
 10
296.0
 20
231.0
 10
296.0
 20
231.0
 10
297.0
 20
231.0
  0
LWPOLYLINE
  5
61
330
17
100
AcDbEntity
  8
0
100
AcDbPolyline
 90
56
 70
0
 10
403.0
 20
163.0
 10
403.0
 20
165.0
 10
403.0
 20
165.0
 10
404.0
 20
166.0
 10
404.0
 20
166.0
 10
404.0
 20
172.0
 10
404.0
 20
172.0
 10
405.0
 20
173.0
 10
405.0
 20
173.0
 10
405.0
 20
175.0
 10
405.0
 20
175.0
 10
408.0
 20
175.0
 10
408.0
 20
175.0
 10
409.0
 20
174.0
 10
409.0
 20
174.0
 10
410.0
 20
174.0
 10
410.0
 20
174.0
 10
411.0
 20
173.0
 10
411.0
 20
173.0
 10
412.0
 20
173.0
 10
412.0
 20
173.0
 10
413.0
 20
172.0
 10
413.0
 20
172.0
 10
414.0
 20
172.0
 10
414.0
 20
172.0
 10
415.0
 20
171.0
 10
415.0
 20
171.0
 10
416.0
 20
171.0
 10
416.0
 20
171.0
 10
417.0
 20
170.0
 10
417.0
 20
170.0
 10
418.0
 20
170.0
 10
418.0
 20
170.0
 10
419.0
 20
169.0
 10
419.0
 20
169.0
 10
421.0
 20
169.0
 10
421.0
 20
169.0
 10
422.0
 20
168.0
 10
422.0
 20
168.0
 10
423.0
 20
168.0
 10
423.0
 20
168.0
 10
423.0
 20
166.0
 10
423.0
 20
166.0
 10
416.0
 20
166.0
 10
416.0
 20
166.0
 10
415.0
 20
165.0
 10
415.0
 20
165.0
 10
411.0
 20
165.0
 10
411.0
 20
165.0
 10
410.0
 20
164.0
 10
410.0
 20
164.0
 10
408.0
 20
164.0
 10
408.0
 20
164.0
 10
407.0
 20
163.0
 10
407.0
 20
163.0
 10
403.0
 20
163.0
  0
LWPOLYLINE
  5
62
330
17
100
AcDbEntity
  8
0
100
AcDbPolyline
 90
920
 70
0
 10
348.0
 20
94.0
 10
347.0
 20
95.0
 10
347.0
 20
95.0
 10
342.0
 20
95.0
 10
342.0
 20
95.0
 10
341.0
 20
96.0
 10
341.0
 20
96.0
 10
339.0
 20
96.0
 10
339.0
 20
96.0
 10
338.0
 20
97.0
 10
338.0
 20
97.0
 10
337.0
 20
97.0
 10
337.0
 20
97.0
 10
336.0
 20
98.0
 10
336.0
 20
98.0
 10
335.0
 20
98.0
 10
335.0
 20
98.0
 10
333.0
 20
100.0
 10
333.0
 20
100.0
 10
332.0
 20
100.0
 10
332.0
 20
100.0
 10
327.0
 20
105.0
 10
327.0
 20
105.0
 10
327.0
 20
106.0
 10
327.0
 20
106.0
 10
319.0
 20
114.0
 10
319.0
 20
114.0
 10
318.0
 20
114.0
 10
318.0
 20
114.0
 10
316.0
 20
116.0
 10
316.0
 20
116.0
 10
315.0
 20
116.0
 10
315.0
 20
116.0
 10
314.0
 20
117.0
 10
314.0
 20
117.0
 10
313.0
 20
117.0
 10
313.0
 20
117.0
 10
312.0
 20
118.0
 10
312.0
 20
118.0
 10
311.0
 20
118.0
 10
311.0
 20
118.0
 10
310.0
 20
119.0
 10
310.0
 20
119.0
 10
309.0
 20
119.0
 10
309.0
 20
119.0
 10
308.0
 20
120.0
 10
308.0
 20
120.0
 10
306.0
 20
120.0
 10
306.0
 20
120.0
 10
305.0
 20
121.0
 10
305.0
 20
121.0
 10
303.0
 20
121.0
 10
303.0
 20
121.0
 10
302.0
 20
122.0
 10
302.0
 20
122.0
 10
300.0
 20
122.0
 10
300.0
 20
122.0
 10
299.0
 20
123.0
 10
299.0
 20
123.0
 10
295.0
 20
123.0
 10
295.0
 20
123.0
 10
294.0
 20
124.0
 10
294.0
 20
124.0
 10
290.0
 20
124.0
 10
290.0
 20
124.0
 10
290.0
 20
130.0
 10
290.0
 20
130.0
 10
286.0
 20
134.0
 10
286.0
 20
134.0
 10
285.0
 20
134.0
 10
285.0
 20
134.0
 10
285.0
 20
136.0
 10
285.0
 20
136.0
 10
286.0
 20
137.0
 10
286.0
 20
137.0
 10
287.0
 20
137.0
 10
287.0
 20
137.0
 10
288.0
 20
138.0
 10
288.0
 20
138.0
 10
290.0
 20
138.0
 10
290.0
 20
138.0
 10
291.0
 20
139.0
 10
291.0
 20
139.0
 10
295.0
 20
139.0
 10
295.0
 20
139.0
 10
296.0
 20
140.0
 10
296.0
 20
140.0
 10
305.0
 20
140.0
 10
305.0
 20
140.0
 10
306.0
 20
139.0
 10
306.0
 20
139.0
 10
311.0
 20
139.0
 10
311.0
 20
139.0
 10
312.0
 20
138.0
 10
312.0
 20
138.0
 10
314.0
 20
138.0
 10
314.0
 20
138.0
 10
315.0
 20
137.0
 10
315.0
 20
137.0
 10
317.0
 20
137.0
 10
317.0
 20
137.0
 10
318.0
 20
136.0
 10
318.0
 20
136.0
 10
320.0
 20
136.0
 10
320.0
 20
136.0
 10
321.0
 20
135.0
 10
321.0
 20
135.0
 10
322.0
 20
135.0
 10
322.0
 20
135.0
 10
323.0
 20
134.0
 10
323.0
 20
134.0
 10
325.0
 20
134.0
 10
325.0
 20
134.0
 10
326.0
 20
133.0
 10
326.0
 20
133.0
 10
328.0
 20
133.0
 10
328.0
 20
133.0
 10
329.0
 20
132.0
 10
329.0
 20
132.0
 10
333.0
 20
132.0
 10
333.0
 20
132.0
 10
334.0
 20
131.0
 10
334.0
 20
131.0
 10
336.0
 20
131.0
 10
336.0
 20
131.0
 10
337.0
 20
132.0
 10
337.0
 20
132.0
 10
337.0
 20
135.0
 10
337.0
 20
135.0
 10
336.0
 20
136.0
 10
336.0
 20
136.0
 10
335.0
 20
136.0
 10
335.0
 20
136.0
 10
331.0
 20
140.0
 10
331.0
 20
140.0
 10
330.0
 20
140.0
 10
330.0
 20
140.0
 10
328.0
 20
142.0
 10
328.0
 20
142.0
 10
327.0
 20
142.0
 10
327.0
 20
142.0
 10
326.0
 20
143.0
 10
326.0
 20
143.0
 10
325.0
 20
143.0
 10
325.0
 20
143.0
 10
324.0
 20
144.0
 10
324.0
 20
144.0
 10
322.0
 20
144.0
 10
322.0
 20
144.0
 10
321.0
 20
145.0
 10
321.0
 20
145.0
 10
319.0
 20
145.0
 10
319.0
 20
145.0
 10
318.0
 20
146.0
 10
318.0
 20
146.0
 10
316.0
 20
146.0
 10
316.0
 20
146.0
 10
316.0
 20
148.0
 10
316.0
 20
148.0
 10
323.0
 20
148.0
 10
323.0
 20
148.0
 10
324.0
 20
149.0
 10
324.0
 20
149.0
 10
331.0
 20
149.0
 10
331.0
 20
149.0
 10
332.0
 20
150.0
 10
332.0
 20
150.0
 10
336.0
 20
150.0
 10
336.0
 20
150.0
 10
337.0
 20
151.0
 10
337.0
 20
151.0
 10
341.0
 20
151.0
 10
341.0
 20
151.0
 10
342.0
 20
152.0
 10
342.0
 20
152.0
 10
344.0
 20
152.0
 10
344.0
 20
152.0
 10
345.0
 20
153.0
 10
345.0
 20
153.0
 10
347.0
 20
153.0
 10
347.0
 20
153.0
 10
348.0
 20
154.0
 10
348.0
 20
154.0
 10
350.0
 20
154.0
 10
350.0
 20
154.0
 10
351.0
 20
155.0
 10
351.0
 20
155.0
 10
353.0
 20
155.0
 10
353.0
 20
155.0
 10
354.0
 20
156.0
 10
354.0
 20
156.0
 10
356.0
 20
156.0
 10
356.0
 20
156.0
 10
357.0
 20
157.0
 10
357.0
 20
157.0
 10
358.0
 20
157.0
 10
358.0
 20
157.0
 10
359.0
 20
158.0
 10
359.0
 20
158.0
 10
361.0
 20
158.0
 10
361.0
 20
158.0
 10
362.0
 20
159.0
 10
362.0
 20
159.0
 10
363.0
 20
159.0
 10
363.0
 20
159.0
 10
364.0
 20
160.0
 10
364.0
 20
160.0
 10
366.0
 20
160.0
 10
366.0
 20
160.0
 10
367.0
 20
161.0
 10
367.0
 20
161.0
 10
368.0
 20
161.0
 10
368.0
 20
161.0
 10
369.0
 20
162.0
 10
369.0
 20
162.0
 10
371.0
 20
162.0
 10
371.0
 20
162.0
 10
372.0
 20
163.0
 10
372.0
 20
163.0
 10
373.0
 20
163.0
 10
373.0
 20
163.0
 10
374.0
 20
164.0
 10
374.0
 20
164.0
 10
376.0
 20
164.0
 10
376.0
 20
164.0
 10
377.0
 20
165.0
 10
377.0
 20
165.0
 10
378.0
 20
165.0
 10
378.0
 20
165.0
 10
379.0
 20
166.0
 10
379.0
 20
166.0
 10
380.0
 20
166.0
 10
380.0
 20
166.0
 10
382.0
 20
168.0
 10
382.0
 20
168.0
 10
383.0
 20
168.0
 10
383.0
 20
168.0
 10
392.0
 20
177.0
 10
392.0
 20
177.0
 10
392.0
 20
179.0
 10
392.0
 20
179.0
 10
391.0
 20
180.0
 10
391.0
 20
180.0
 10
389.0
 20
180.0
 10
389.0
 20
180.0
 10
387.0
 20
178.0
 10
387.0
 20
178.0
 10
386.0
 20
178.0
 10
386.0
 20
178.0
 10
385.0
 20
177.0
 10
385.0
 20
177.0
 10
384.0
 20
177.0
 10
384.0
 20
177.0
 10
383.0
 20
176.0
 10
383.0
 20
176.0
 10
381.0
 20
176.0
 10
381.0
 20
176.0
 10
380.0
 20
175.0
 10
380.0
 20
175.0
 10
379.0
 20
175.0
 10
379.0
 20
175.0
 10
378.0
 20
174.0
 10
378.0
 20
174.0
 10
377.0
 20
174.0
 10
377.0
 20
174.0
 10
376.0
 20
173.0
 10
376.0
 20
173.0
 10
373.0
 20
173.0
 10
373.0
 20
173.0
 10
372.0
 20
172.0
 10
372.0
 20
172.0
 10
370.0
 20
172.0
 10
370.0
 20
172.0
 10
369.0
 20
171.0
 10
369.0
 20
171.0
 10
366.0
 20
171.0
 10
366.0
 20
171.0
 10
365.0
 20
170.0
 10
365.0
 20
170.0
 10
362.0
 20
170.0
 10
362.0
 20
170.0
 10
361.0
 20
169.0
 10
361.0
 20
169.0
 10
358.0
 20
169.0
 10
358.0
 20
169.0
 10
357.0
 20
168.0
 10
357.0
 20
168.0
 10
353.0
 20
168.0
 10
353.0
 20
168.0
 10
352.0
 20
167.0
 10
352.0
 20
167.0
 10
349.0
 20
167.0
 10
349.0
 20
167.0
 10
348.0
 20
166.0
 10
348.0
 20
166.0
 10
345.0
 20
166.0
 10
345.0
 20
166.0
 10
344.0
 20
165.0
 10
344.0
 20
165.0
 10
341.0
 20
165.0
 10
341.0
 20
165.0
 10
340.0
 20
164.0
 10
340.0
 20
164.0
 10
337.0
 20
164.0
 10
337.0
 20
164.0
 10
337.0
 20
166.0
 10
337.0
 20
166.0
 10
344.0
 20
173.0
 10
344.0
 20
173.0
 10
345.0
 20
173.0
 10
345.0
 20
173.0
 10
348.0
 20
176.0
 10
348.0
 20
176.0
 10
349.0
 20
176.0
 10
349.0
 20
176.0
 10
350.0
 20
177.0
 10
350.0
 20
177.0
 10
351.0
 20
177.0
 10
351.0
 20
177.0
 10
352.0
 20
178.0
 10
352.0
 20
178.0
 10
353.0
 20
178.0
 10
353.0
 20
178.0
 10
354.0
 20
179.0
 10
354.0
 20
179.0
 10
355.0
 20
179.0
 10
355.0
 20
179.0
 10
357.0
 20
181.0
 10
357.0
 20
181.0
 10
358.0
 20
181.0
 10
358.0
 20
181.0
 10
359.0
 20
182.0
 10
359.0
 20
182.0
 10
360.0
 20
182.0
 10
360.0
 20
182.0
 10
361.0
 20
183.0
 10
361.0
 20
183.0
 10
362.0
 20
183.0
 10
362.0
 20
183.0
 10
363.0
 20
184.0
 10
363.0
 20
184.0
 10
364.0
 20
184.0
 10
364.0
 20
184.0
 10
365.0
 20
185.0
 10
365.0
 20
185.0
 10
366.0
 20
185.0
 10
366.0
 20
185.0
 10
367.0
 20
186.0
 10
367.0
 20
186.0
 10
368.0
 20
186.0
 10
368.0
 20
186.0
 10
369.0
 20
187.0
 10
369.0
 20
187.0
 10
370.0
 20
187.0
 10
370.0
 20
187.0
 10
372.0
 20
189.0
 10
372.0
 20
189.0
 10
373.0
 20
189.0
 10
373.0
 20
189.0
 10
374.0
 20
190.0
 10
374.0
 20
190.0
 10
375.0
 20
190.0
 10
375.0
 20
190.0
 10
377.0
 20
192.0
 10
377.0
 20
192.0
 10
378.0
 20
192.0
 10
378.0
 20
192.0
 10
380.0
 20
194.0
 10
380.0
 20
194.0
 10
381.0
 20
194.0
 10
381.0
 20
194.0
 10
385.0
 20
198.0
 10
385.0
 20
198.0
 10
386.0
 20
198.0
 10
386.0
 20
198.0
 10
393.0
 20
205.0
 10
393.0
 20
205.0
 10
393.0
 20
206.0
 10
393.0
 20
206.0
 10
398.0
 20
211.0
 10
398.0
 20
211.0
 10
398.0
 20
212.0
 10
398.0
 20
212.0
 10
400.0
 20
214.0
 10
400.0
 20
214.0
 10
400.0
 20
215.0
 10
400.0
 20
215.0
 10
401.0
 20
216.0
 10
401.0
 20
216.0
 10
401.0
 20
217.0
 10
401.0
 20
217.0
 10
402.0
 20
218.0
 10
402.0
 20
218.0
 10
402.0
 20
219.0
 10
402.0
 20
219.0
 10
404.0
 20
221.0
 10
404.0
 20
221.0
 10
404.0
 20
222.0
 10
404.0
 20
222.0
 10
405.0
 20
223.0
 10
405.0
 20
223.0
 10
405.0
 20
225.0
 10
405.0
 20
225.0
 10
407.0
 20
225.0
 10
407.0
 20
225.0
 10
408.0
 20
224.0
 10
408.0
 20
224.0
 10
408.0
 20
222.0
 10
408.0
 20
222.0
 10
409.0
 20
221.0
 10
409.0
 20
221.0
 10
409.0
 20
220.0
 10
409.0
 20
220.0
 10
410.0
 20
219.0
 10
410.0
 20
219.0
 10
410.0
 20
217.0
 10
410.0
 20
217.0
 10
411.0
 20
216.0
 10
411.0
 20
216.0
 10
411.0
 20
215.0
 10
411.0
 20
215.0
 10
412.0
 20
214.0
 10
412.0
 20
214.0
 10
412.0
 20
212.0
 10
412.0
 20
212.0
 10
413.0
 20
211.0
 10
413.0
 20
211.0
 10
413.0
 20
210.0
 10
413.0
 20
210.0
 10
414.0
 20
209.0
 10
414.0
 20
209.0
 10
414.0
 20
208.0
 10
414.0
 20
208.0
 10
415.0
 20
207.0
 10
415.0
 20
207.0
 10
415.0
 20
206.0
 10
415.0
 20
206.0
 10
416.0
 20
205.0
 10
416.0
 20
205.0
 10
416.0
 20
204.0
 10
416.0
 20
204.0
 10
417.0
 20
203.0
 10
417.0
 20
203.0
 10
417.0
 20
202.0
 10
417.0
 20
202.0
 10
418.0
 20
201.0
 10
418.0
 20
201.0
 10
418.0
 20
200.0
 10
418.0
 20
200.0
 10
419.0
 20
199.0
 10
419.0
 20
199.0
 10
419.0
 20
198.0
 10
419.0
 20
198.0
 10
420.0
 20
197.0
 10
420.0
 20
197.0
 10
420.0
 20
196.0
 10
420.0
 20
196.0
 10
422.0
 20
194.0
 10
422.0
 20
194.0
 10
422.0
 20
193.0
 10
422.0
 20
193.0
 10
423.0
 20
192.0
 10
423.0
 20
192.0
 10
423.0
 20
191.0
 10
423.0
 20
191.0
 10
424.0
 20
190.0
 10
424.0
 20
190.0
 10
424.0
 20
189.0
 10
424.0
 20
189.0
 10
425.0
 20
188.0
 10
425.0
 20
188.0
 10
425.0
 20
187.0
 10
425.0
 20
187.0
 10
427.0
 20
185.0
 10
427.0
 20
185.0
 10
427.0
 20
184.0
 10
427.0
 20
184.0
 10
428.0
 20
183.0
 10
428.0
 20
183.0
 10
428.0
 20
182.0
 10
428.0
 20
182.0
 10
430.0
 20
180.0
 10
430.0
 20
180.0
 10
430.0
 20
179.0
 10
430.0
 20
179.0
 10
432.0
 20
177.0
 10
432.0
 20
177.0
 10
432.0
 20
176.0
 10
432.0
 20
176.0
 10
435.0
 20
173.0
 10
435.0
 20
173.0
 10
435.0
 20
172.0
 10
435.0
 20
172.0
 10
436.0
 20
171.0
 10
436.0
 20
171.0
 10
436.0
 20
164.0
 10
436.0
 20
164.0
 10
431.0
 20
164.0
 10
431.0
 20
164.0
 10
430.0
 20
165.0
 10
430.0
 20
165.0
 10
427.0
 20
165.0
 10
427.0
 20
165.0
 10
427.0
 20
167.0
 10
427.0
 20
167.0
 10
428.0
 20
168.0
 10
428.0
 20
168.0
 10
428.0
 20
170.0
 10
428.0
 20
170.0
 10
426.0
 20
172.0
 10
426.0
 20
172.0
 10
426.0
 20
173.0
 10
426.0
 20
173.0
 10
424.0
 20
175.0
 10
424.0
 20
175.0
 10
424.0
 20
176.0
 10
424.0
 20
176.0
 10
422.0
 20
178.0
 10
422.0
 20
178.0
 10
422.0
 20
179.0
 10
422.0
 20
179.0
 10
421.0
 20
180.0
 10
421.0
 20
180.0
 10
421.0
 20
181.0
 10
421.0
 20
181.0
 10
419.0
 20
183.0
 10
419.0
 20
183.0
 10
419.0
 20
184.0
 10
419.0
 20
184.0
 10
418.0
 20
185.0
 10
418.0
 20
185.0
 10
418.0
 20
186.0
 10
418.0
 20
186.0
 10
417.0
 20
187.0
 10
417.0
 20
187.0
 10
417.0
 20
188.0
 10
417.0
 20
188.0
 10
415.0
 20
190.0
 10
415.0
 20
190.0
 10
415.0
 20
191.0
 10
415.0
 20
191.0
 10
414.0
 20
192.0
 10
414.0
 20
192.0
 10
414.0
 20
194.0
 10
414.0
 20
194.0
 10
413.0
 20
195.0
 10
413.0
 20
195.0
 10
413.0
 20
196.0
 10
413.0
 20
196.0
 10
412.0
 20
197.0
 10
412.0
 20
197.0
 10
412.0
 20
198.0
 10
412.0
 20
198.0
 10
411.0
 20
199.0
 10
411.0
 20
199.0
 10
411.0
 20
200.0
 10
411.0
 20
200.0
 10
410.0
 20
201.0
 10
410.0
 20
201.0
 10
410.0
 20
203.0
 10
410.0
 20
203.0
 10
408.0
 20
205.0
 10
408.0
 20
205.0
 10
406.0
 20
205.0
 10
406.0
 20
205.0
 10
405.0
 20
204.0
 10
405.0
 20
204.0
 10
405.0
 20
201.0
 10
405.0
 20
201.0
 10
404.0
 20
200.0
 10
404.0
 20
200.0
 10
404.0
 20
196.0
 10
404.0
 20
196.0
 10
403.0
 20
195.0
 10
403.0
 20
195.0
 10
403.0
 20
191.0
 10
403.0
 20
191.0
 10
402.0
 20
190.0
 10
402.0
 20
190.0
 10
402.0
 20
188.0
 10
402.0
 20
188.0
 10
401.0
 20
187.0
 10
401.0
 20
187.0
 10
401.0
 20
185.0
 10
401.0
 20
185.0
 10
400.0
 20
184.0
 10
400.0
 20
184.0
 10
400.0
 20
182.0
 10
400.0
 20
182.0
 10
399.0
 20
181.0
 10
399.0
 20
181.0
 10
399.0
 20
180.0
 10
399.0
 20
180.0
 10
398.0
 20
179.0
 10
398.0
 20
179.0
 10
398.0
 20
178.0
 10
398.0
 20
178.0
 10
397.0
 20
177.0
 10
397.0
 20
177.0
 10
397.0
 20
176.0
 10
397.0
 20
176.0
 10
396.0
 20
175.0
 10
396.0
 20
175.0
 10
396.0
 20
174.0
 10
396.0
 20
174.0
 10
394.0
 20
172.0
 10
394.0
 20
172.0
 10
394.0
 20
171.0
 10
394.0
 20
171.0
 10
387.0
 20
164.0
 10
387.0
 20
164.0
 10
386.0
 20
164.0
 10
386.0
 20
164.0
 10
385.0
 20
163.0
 10
385.0
 20
163.0
 10
384.0
 20
163.0
 10
384.0
 20
163.0
 10
383.0
 20
162.0
 10
383.0
 20
162.0
 10
382.0
 20
162.0
 10
382.0
 20
162.0
 10
381.0
 20
161.0
 10
381.0
 20
161.0
 10
380.0
 20
161.0
 10
380.0
 20
161.0
 10
379.0
 20
160.0
 10
379.0
 20
160.0
 10
377.0
 20
160.0
 10
377.0
 20
160.0
 10
376.0
 20
159.0
 10
376.0
 20
159.0
 10
374.0
 20
159.0
 10
374.0
 20
159.0
 10
373.0
 20
158.0
 10
373.0
 20
158.0
 10
371.0
 20
158.0
 10
371.0
 20
158.0
 10
370.0
 20
157.0
 10
370.0
 20
157.0
 10
370.0
 20
155.0
 10
370.0
 20
155.0
 10
371.0
 20
154.0
 10
371.0
 20
154.0
 10
373.0
 20
154.0
 10
373.0
 20
154.0
 10
374.0
 20
155.0
 10
374.0
 20
155.0
 10
376.0
 20
155.0
 10
376.0
 20
155.0
 10
377.0
 20
154.0
 10
377.0
 20
154.0
 10
387.0
 20
154.0
 10
387.0
 20
154.0
 10
388.0
 20
153.0
 10
388.0
 20
153.0
 10
391.0
 20
153.0
 10
391.0
 20
153.0
 10
392.0
 20
152.0
 10
392.0
 20
152.0
 10
395.0
 20
152.0
 10
395.0
 20
152.0
 10
396.0
 20
151.0
 10
396.0
 20
151.0
 10
398.0
 20
151.0
 10
398.0
 20
151.0
 10
399.0
 20
150.0
 10
399.0
 20
150.0
 10
400.0
 20
150.0
 10
400.0
 20
150.0
 10
401.0
 20
149.0
 10
401.0
 20
149.0
 10
403.0
 20
149.0
 10
403.0
 20
149.0
 10
405.0
 20
147.0
 10
405.0
 20
147.0
 10
406.0
 20
147.0
 10
406.0
 20
147.0
 10
407.0
 20
146.0
 10
407.0
 20
146.0
 10
407.0
 20
144.0
 10
407.0
 20
144.0
 10
405.0
 20
144.0
 10
405.0
 20
144.0
 10
404.0
 20
143.0
 10
404.0
 20
143.0
 10
403.0
 20
143.0
 10
403.0
 20
143.0
 10
402.0
 20
142.0
 10
402.0
 20
142.0
 10
400.0
 20
142.0
 10
400.0
 20
142.0
 10
399.0
 20
141.0
 10
399.0
 20
141.0
 10
398.0
 20
141.0
 10
398.0
 20
141.0
 10
397.0
 20
140.0
 10
397.0
 20
140.0
 10
396.0
 20
140.0
 10
396.0
 20
140.0
 10
393.0
 20
137.0
 10
393.0
 20
137.0
 10
393.0
 20
131.0
 10
393.0
 20
131.0
 10
392.0
 20
130.0
 10
392.0
 20
130.0
 10
392.0
 20
127.0
 10
392.0
 20
127.0
 10
390.0
 20
127.0
 10
390.0
 20
127.0
 10
390.0
 20
130.0
 10
390.0
 20
130.0
 10
391.0
 20
131.0
 10
391.0
 20
131.0
 10
391.0
 20
134.0
 10
391.0
 20
134.0
 10
389.0
 20
136.0
 10
389.0
 20
136.0
 10
386.0
 20
136.0
 10
386.0
 20
136.0
 10
384.0
 20
134.0
 10
384.0
 20
134.0
 10
384.0
 20
128.0
 10
384.0
 20
128.0
 10
383.0
 20
127.0
 10
383.0
 20
127.0
 10
383.0
 20
124.0
 10
383.0
 20
124.0
 10
382.0
 20
123.0
 10
382.0
 20
123.0
 10
382.0
 20
122.0
 10
382.0
 20
122.0
 10
381.0
 20
121.0
 10
381.0
 20
121.0
 10
381.0
 20
120.0
 10
381.0
 20
120.0
 10
380.0
 20
119.0
 10
380.0
 20
119.0
 10
380.0
 20
118.0
 10
380.0
 20
118.0
 10
379.0
 20
117.0
 10
379.0
 20
117.0
 10
379.0
 20
116.0
 10
379.0
 20
116.0
 10
378.0
 20
115.0
 10
378.0
 20
115.0
 10
376.0
 20
115.0
 10
376.0
 20
115.0
 10
376.0
 20
117.0
 10
376.0
 20
117.0
 10
378.0
 20
119.0
 10
378.0
 20
119.0
 10
378.0
 20
120.0
 10
378.0
 20
120.0
 10
379.0
 20
121.0
 10
379.0
 20
121.0
 10
379.0
 20
122.0
 10
379.0
 20
122.0
 10
380.0
 20
123.0
 10
380.0
 20
123.0
 10
380.0
 20
125.0
 10
380.0
 20
125.0
 10
381.0
 20
126.0
 10
381.0
 20
126.0
 10
381.0
 20
131.0
 10
381.0
 20
131.0
 10
379.0
 20
133.0
 10
379.0
 20
133.0
 10
377.0
 20
133.0
 10
377.0
 20
133.0
 10
376.0
 20
132.0
 10
376.0
 20
132.0
 10
375.0
 20
132.0
 10
375.0
 20
132.0
 10
373.0
 20
130.0
 10
373.0
 20
130.0
 10
373.0
 20
126.0
 10
373.0
 20
126.0
 10
372.0
 20
125.0
 10
372.0
 20
125.0
 10
372.0
 20
122.0
 10
372.0
 20
122.0
 10
371.0
 20
121.0
 10
371.0
 20
121.0
 10
371.0
 20
120.0
 10
371.0
 20
120.0
 10
370.0
 20
119.0
 10
370.0
 20
119.0
 10
368.0
 20
119.0
 10
368.0
 20
119.0
 10
368.0
 20
121.0
 10
368.0
 20
121.0
 10
369.0
 20
122.0
 10
369.0
 20
122.0
 10
369.0
 20
123.0
 10
369.0
 20
123.0
 10
370.0
 20
124.0
 10
370.0
 20
124.0
 10
370.0
 20
128.0
 10
370.0
 20
128.0
 10
369.0
 20
129.0
 10
369.0
 20
129.0
 10
362.0
 20
129.0
 10
362.0
 20
129.0
 10
361.0
 20
128.0
 10
361.0
 20
128.0
 10
357.0
 20
128.0
 10
357.0
 20
128.0
 10
356.0
 20
127.0
 10
356.0
 20
127.0
 10
350.0
 20
127.0
 10
350.0
 20
127.0
 10
349.0
 20
126.0
 10
349.0
 20
126.0
 10
319.0
 20
126.0
 10
319.0
 20
126.0
 10
318.0
 20
127.0
 10
318.0
 20
127.0
 10
311.0
 20
127.0
 10
311.0
 20
127.0
 10
310.0
 20
128.0
 10
310.0
 20
128.0
 10
304.0
 20
128.0
 10
304.0
 20
128.0
 10
303.0
 20
129.0
 10
303.0
 20
129.0
 10
297.0
 20
129.0
 10
297.0
 20
129.0
 10
296.0
 20
130.0
 10
296.0
 20
130.0
 10
293.0
 20
130.0
 10
293.0
 20
130.0
 10
292.0
 20
129.0
 10
292.0
 20
129.0
 10
292.0
 20
127.0
 10
292.0
 20
127.0
 10
293.0
 20
126.0
 10
293.0
 20
126.0
 10
295.0
 20
126.0
 10
295.0
 20
126.0
 10
296.0
 20
125.0
 10
296.0
 20
125.0
 10
299.0
 20
125.0
 10
299.0
 20
125.0
 10
300.0
 20
124.0
 10
300.0
 20
124.0
 10
303.0
 20
124.0
 10
303.0
 20
124.0
 10
304.0
 20
123.0
 10
304.0
 20
123.0
 10
308.0
 20
123.0
 10
308.0
 20
123.0
 10
309.0
 20
122.0
 10
309.0
 20
122.0
 10
313.0
 20
122.0
 10
313.0
 20
122.0
 10
314.0
 20
121.0
 10
314.0
 20
121.0
 10
318.0
 20
121.0
 10
318.0
 20
121.0
 10
319.0
 20
120.0
 10
319.0
 20
120.0
 10
327.0
 20
120.0
 10
327.0
 20
120.0
 10
328.0
 20
119.0
 10
328.0
 20
119.0
 10
345.0
 20
119.0
 10
345.0
 20
119.0
 10
346.0
 20
118.0
 10
346.0
 20
118.0
 10
351.0
 20
118.0
 10
351.0
 20
118.0
 10
352.0
 20
117.0
 10
352.0
 20
117.0
 10
354.0
 20
117.0
 10
354.0
 20
117.0
 10
355.0
 20
116.0
 10
355.0
 20
116.0
 10
356.0
 20
116.0
 10
356.0
 20
116.0
 10
357.0
 20
115.0
 10
357.0
 20
115.0
 10
358.0
 20
115.0
 10
358.0
 20
115.0
 10
359.0
 20
114.0
 10
359.0
 20
114.0
 10
360.0
 20
114.0
 10
360.0
 20
114.0
 10
361.0
 20
113.0
 10
361.0
 20
113.0
 10
362.0
 20
113.0
 10
362.0
 20
113.0
 10
366.0
 20
109.0
 10
366.0
 20
109.0
 10
367.0
 20
109.0
 10
367.0
 20
109.0
 10
374.0
 20
102.0
 10
374.0
 20
102.0
 10
374.0
 20
99.0
 10
374.0
 20
99.0
 10
372.0
 20
99.0
 10
372.0
 20
99.0
 10
371.0
 20
98.0
 10
371.0
 20
98.0
 10
369.0
 20
98.0
 10
369.0
 20
98.0
 10
368.0
 20
97.0
 10
368.0
 20
97.0
 10
366.0
 20
97.0
 10
366.0
 20
97.0
 10
365.0
 20
96.0
 10
365.0
 20
96.0
 10
362.0
 20
96.0
 10
362.0
 20
96.0
 10
361.0
 20
95.0
 10
361.0
 20
95.0
 10
356.0
 20
95.0
 10
356.0
 20
95.0
 10
355.0
 20
94.0
 10
355.0
 20
94.0
 10
348.0
 20
94.0
  0
LWPOLYLINE
  5
63
330
17
100
AcDbEntity
  8
0
100
AcDbPolyline
 90
48
 70
0
 10
369.0
 20
138.0
 10
370.0
 20
137.0
 10
370.0
 20
137.0
 10
374.0
 20
137.0
 10
374.0
 20
137.0
 10
375.0
 20
138.0
 10
375.0
 20
138.0
 10
378.0
 20
138.0
 10
378.0
 20
138.0
 10
379.0
 20
139.0
 10
379.0
 20
139.0
 10
381.0
 20
139.0
 10
381.0
 20
139.0
 10
382.0
 20
140.0
 10
382.0
 20
140.0
 10
384.0
 20
140.0
 10
384.0
 20
140.0
 10
385.0
 20
141.0
 10
385.0
 20
141.0
 10
387.0
 20
141.0
 10
387.0
 20
141.0
 10
388.0
 20
142.0
 10
388.0
 20
142.0
 10
388.0
 20
144.0
 10
388.0
 20
144.0
 10
387.0
 20
145.0
 10
387.0
 20
145.0
 10
384.0
 20
145.0
 10
384.0
 20
145.0
 10
383.0
 20
144.0
 10
383.0
 20
144.0
 10
380.0
 20
144.0
 10
380.0
 20
144.0
 10
379.0
 20
143.0
 10
379.0
 20
143.0
 10
377.0
 20
143.0
 10
377.0
 20
143.0
 10
376.0
 20
142.0
 10
376.0
 20
142.0
 10
374.0
 20
142.0
 10
374.0
 20
142.0
 10
373.0
 20
141.0
 10
373.0
 20
141.0
 10
370.0
 20
141.0
 10
370.0
 20
141.0
 10
369.0
 20
140.0
 10
369.0
 20
140.0
 10
369.0
 20
138.0
  0
LWPOLYLINE
  5
64
330
17
100
AcDbEntity
  8
0
100
AcDbPolyline
 90
56
 70
0
 10
342.0
 20
102.0
 10
343.0
 20
101.0
 10
343.0
 20
101.0
 10
356.0
 20
101.0
 10
356.0
 20
101.0
 10
357.0
 20
102.0
 10
357.0
 20
102.0
 10
360.0
 20
102.0
 10
360.0
 20
102.0
 10
361.0
 20
103.0
 10
361.0
 20
103.0
 10
361.0
 20
106.0
 10
361.0
 20
106.0
 10
358.0
 20
109.0
 10
358.0
 20
109.0
 10
357.0
 20
109.0
 10
357.0
 20
109.0
 10
355.0
 20
111.0
 10
355.0
 20
111.0
 10
354.0
 20
111.0
 10
354.0
 20
111.0
 10
353.0
 20
112.0
 10
353.0
 20
112.0
 10
352.0
 20
112.0
 10
352.0
 20
112.0
 10
351.0
 20
113.0
 10
351.0
 20
113.0
 10
350.0
 20
113.0
 10
350.0
 20
113.0
 10
349.0
 20
114.0
 10
349.0
 20
114.0
 10
346.0
 20
114.0
 10
346.0
 20
114.0
 10
345.0
 20
115.0
 10
345.0
 20
115.0
 10
339.0
 20
115.0
 10
339.0
 20
115.0
 10
338.0
 20
116.0
 10
338.0
 20
116.0
 10
328.0
 20
116.0
 10
328.0
 20
116.0
 10
327.0
 20
115.0
 10
327.0
 20
115.0
 10
327.0
 20
113.0
 10
327.0
 20
113.0
 10
336.0
 20
104.0
 10
336.0
 20
104.0
 10
337.0
 20
104.0
 10
337.0
 20
104.0
 10
338.0
 20
103.0
 10
338.0
 20
103.0
 10
339.0
 20
103.0
 10
339.0
 20
103.0
 10
340.0
 20
102.0
 10
340.0
 20
102.0
 10
342.0
 20
102.0
  0
LWPOLYLINE
  5
65
330
17
100
AcDbEntity
  8
0
100
AcDbPolyline
 90
148
 70
0
 10
320.0
 20
18.0
 10
322.0
 20
18.0
 10
322.0
 20
18.0
 10
323.0
 20
19.0
 10
323.0
 20
19.0
 10
324.0
 20
19.0
 10
324.0
 20
19.0
 10
325.0
 20
20.0
 10
325.0
 20
20.0
 10
326.0
 20
20.0
 10
326.0
 20
20.0
 10
328.0
 20
22.0
 10
328.0
 20
22.0
 10
329.0
 20
22.0
 10
329.0
 20
22.0
 10
330.0
 20
23.0
 10
330.0
 20
23.0
 10
331.0
 20
23.0
 10
331.0
 20
23.0
 10
333.0
 20
25.0
 10
333.0
 20
25.0
 10
334.0
 20
25.0
 10
334.0
 20
25.0
 10
337.0
 20
28.0
 10
337.0
 20
28.0
 10
338.0
 20
28.0
 10
338.0
 20
28.0
 10
342.0
 20
32.0
 10
342.0
 20
32.0
 10
343.0
 20
32.0
 10
343.0
 20
32.0
 10
351.0
 20
40.0
 10
351.0
 20
40.0
 10
352.0
 20
40.0
 10
352.0
 20
40.0
 10
354.0
 20
42.0
 10
354.0
 20
42.0
 10
354.0
 20
43.0
 10
354.0
 20
43.0
 10
362.0
 20
51.0
 10
362.0
 20
51.0
 10
362.0
 20
52.0
 10
362.0
 20
52.0
 10
365.0
 20
55.0
 10
365.0
 20
55.0
 10
365.0
 20
57.0
 10
365.0
 20
57.0
 10
364.0
 20
58.0
 10
364.0
 20
58.0
 10
359.0
 20
58.0
 10
359.0
 20
58.0
 10
358.0
 20
59.0
 10
358.0
 20
59.0
 10
351.0
 20
59.0
 10
351.0
 20
59.0
 10
350.0
 20
60.0
 10
350.0
 20
60.0
 10
347.0
 20
60.0
 10
347.0
 20
60.0
 10
346.0
 20
61.0
 10
346.0
 20
61.0
 10
343.0
 20
61.0
 10
343.0
 20
61.0
 10
342.0
 20
62.0
 10
342.0
 20
62.0
 10
340.0
 20
62.0
 10
340.0
 20
62.0
 10
339.0
 20
63.0
 10
339.0
 20
63.0
 10
338.0
 20
63.0
 10
338.0
 20
63.0
 10
337.0
 20
64.0
 10
337.0
 20
64.0
 10
336.0
 20
64.0
 10
336.0
 20
64.0
 10
335.0
 20
65.0
 10
335.0
 20
65.0
 10
334.0
 20
65.0
 10
334.0
 20
65.0
 10
333.0
 20
66.0
 10
333.0
 20
66.0
 10
332.0
 20
66.0
 10
332.0
 20
66.0
 10
331.0
 20
67.0
 10
331.0
 20
67.0
 10
329.0
 20
67.0
 10
329.0
 20
67.0
 10
327.0
 20
65.0
 10
327.0
 20
65.0
 10
327.0
 20
62.0
 10
327.0
 20
62.0
 10
326.0
 20
61.0
 10
326.0
 20
61.0
 10
326.0
 20
54.0
 10
326.0
 20
54.0
 10
325.0
 20
53.0
 10
325.0
 20
53.0
 10
325.0
 20
47.0
 10
325.0
 20
47.0
 10
323.0
 20
47.0
 10
323.0
 20
47.0
 10
323.0
 20
64.0
 10
323.0
 20
64.0
 10
324.0
 20
65.0
 10
324.0
 20
65.0
 10
324.0
 20
71.0
 10
324.0
 20
71.0
 10
318.0
 20
77.0
 10
318.0
 20
77.0
 10
315.0
 20
77.0
 10
315.0
 20
77.0
 10
314.0
 20
76.0
 10
314.0
 20
76.0
 10
314.0
 20
72.0
 10
314.0
 20
72.0
 10
313.0
 20
71.0
 10
313.0
 20
71.0
 10
313.0
 20
61.0
 10
313.0
 20
61.0
 10
312.0
 20
60.0
 10
312.0
 20
60.0
 10
312.0
 20
50.0
 10
312.0
 20
50.0
 10
313.0
 20
49.0
 10
313.0
 20
49.0
 10
313.0
 20
40.0
 10
313.0
 20
40.0
 10
314.0
 20
39.0
 10
314.0
 20
39.0
 10
314.0
 20
33.0
 10
314.0
 20
33.0
 10
315.0
 20
32.0
 10
315.0
 20
32.0
 10
315.0
 20
30.0
 10
315.0
 20
30.0
 10
316.0
 20
29.0
 10
316.0
 20
29.0
 10
316.0
 20
26.0
 10
316.0
 20
26.0
 10
317.0
 20
25.0
 10
317.0
 20
25.0
 10
317.0
 20
22.0
 10
317.0
 20
22.0
 10
318.0
 20
21.0
 10
318.0
 20
21.0
 10
318.0
 20
20.0
 10
318.0
 20
20.0
 10
320.0
 20
18.0
  0
ENDSEC
  0
SECTION
  2
OBJECTS
  0
DICTIONARY
  5
A
330
0
100
AcDbDictionary
281
1
  3
ACAD_COLOR
350
B
  3
ACAD_GROUP
350
C
  3
ACAD_LAYOUT
350
D
  3
ACAD_MATERIAL
350
E
  3
ACAD_MLEADERSTYLE
350
F
  3
ACAD_MLINESTYLE
350
10
  3
ACAD_PLOTSETTINGS
350
11
  3
ACAD_PLOTSTYLENAME
350
12
  3
ACAD_SCALELIST
350
14
  3
ACAD_TABLESTYLE
350
15
  3
ACAD_VISUALSTYLE
350
16
  3
EZDXF_META
350
2D
  0
DICTIONARY
  5
B
330
A
100
AcDbDictionary
281
1
  0
DICTIONARY
  5
C
330
A
100
AcDbDictionary
281
1
  0
DICTIONARY
  5
D
330
A
100
AcDbDictionary
281
1
  3
Model
350
1A
  3
Layout1
350
1E
  0
DICTIONARY
  5
E
330
A
100
AcDbDictionary
281
1
  3
ByBlock
350
1F
  3
ByLayer
350
20
  3
Global
350
21
  0
DICTIONARY
  5
F
330
A
100
AcDbDictionary
281
1
  3
Standard
350
2C
  0
DICTIONARY
  5
10
330
A
100
AcDbDictionary
281
1
  3
Standard
350
22
  0
DICTIONARY
  5
11
330
A
100
AcDbDictionary
281
1
  0
ACDBDICTIONARYWDFLT
  5
12
330
A
100
AcDbDictionary
281
1
  3
Normal
350
13
100
AcDbDictionaryWithDefault
340
13
  0
ACDBPLACEHOLDER
  5
13
330
12
  0
DICTIONARY
  5
14
330
A
100
AcDbDictionary
281
1
  0
DICTIONARY
  5
15
330
A
100
AcDbDictionary
281
1
  0
DICTIONARY
  5
16
330
A
100
AcDbDictionary
281
1
  0
LAYOUT
  5
1A
330
D
100
AcDbPlotSettings
  1

  4
A3
  6

 40
7.5
 41
20.0
 42
7.5
 43
20.0
 44
420.0
 45
297.0
 46
0.0
 47
0.0
 48
0.0
 49
0.0
140
0.0
141
0.0
142
1.0
143
1.0
 70
1024
 72
1
 73
0
 74
5
  7

 75
16
 76
0
 77
2
 78
300
147
1.0
148
0.0
149
0.0
100
AcDbLayout
  1
Model
 70
1
 71
0
 10
0.0
 20
0.0
 11
420.0
 21
297.0
 12
0.0
 22
0.0
 32
0.0
 14
1e+20
 24
1e+20
 34
1e+20
 15
-1e+20
 25
-1e+20
 35
-1e+20
146
0.0
 13
0.0
 23
0.0
 33
0.0
 16
1.0
 26
0.0
 36
0.0
 17
0.0
 27
1.0
 37
0.0
 76
1
330
17
  0
LAYOUT
  5
1E
330
D
100
AcDbPlotSettings
  1

  4
A3
  6

 40
7.5
 41
20.0
 42
7.5
 43
20.0
 44
420.0
 45
297.0
 46
0.0
 47
0.0
 48
0.0
 49
0.0
140
0.0
141
0.0
142
1.0
143
1.0
 70
0
 72
1
 73
0
 74
5
  7

 75
16
 76
0
 77
2
 78
300
147
1.0
148
0.0
149
0.0
100
AcDbLayout
  1
Layout1
 70
1
 71
1
 10
0.0
 20
0.0
 11
420.0
 21
297.0
 12
0.0
 22
0.0
 32
0.0
 14
1e+20
 24
1e+20
 34
1e+20
 15
-1e+20
 25
-1e+20
 35
-1e+20
146
0.0
 13
0.0
 23
0.0
 33
0.0
 16
1.0
 26
0.0
 36
0.0
 17
0.0
 27
1.0
 37
0.0
 76
1
330
1B
  0
MATERIAL
  5
1F
102
{ACAD_REACTORS
330
E
102
}
330
E
100
AcDbMaterial
  1
ByBlock
  2

 70
0
 40
1.0
 71
1
 41
1.0
 91
-1023410177
 42
1.0
 72
1
  3

 73
1
 74
1
 75
1
 44
0.5
 73
0
 45
1.0
 46
1.0
 77
1
  4

 78
1
 79
1
170
1
 48
1.0
171
1
  6

172
1
173
1
174
1
140
1.0
141
1.0
175
1
  7

176
1
177
1
178
1
143
1.0
179
1
  8

270
1
271
1
272
1
145
1.0
146
1.0
273
1
  9

274
1
275
1
276
1
 42
1.0
 72
1
  3

 73
1
 74
1
 75
1
 94
63
  0
MATERIAL
  5
20
102
{ACAD_REACTORS
330
E
102
}
330
E
100
AcDbMaterial
  1
ByLayer
  2

 70
0
 40
1.0
 71
1
 41
1.0
 91
-1023410177
 42
1.0
 72
1
  3

 73
1
 74
1
 75
1
 44
0.5
 73
0
 45
1.0
 46
1.0
 77
1
  4

 78
1
 79
1
170
1
 48
1.0
171
1
  6

172
1
173
1
174
1
140
1.0
141
1.0
175
1
  7

176
1
177
1
178
1
143
1.0
179
1
  8

270
1
271
1
272
1
145
1.0
146
1.0
273
1
  9

274
1
275
1
276
1
 42
1.0
 72
1
  3

 73
1
 74
1
 75
1
 94
63
  0
MATERIAL
  5
21
102
{ACAD_REACTORS
330
E
102
}
330
E
100
AcDbMaterial
  1
Global
  2

 70
0
 40
1.0
 71
1
 41
1.0
 91
-1023410177
 42
1.0
 72
1
  3

 73
1
 74
1
 75
1
 44
0.5
 73
0
 45
1.0
 46
1.0
 77
1
  4

 78
1
 79
1
170
1
 48
1.0
171
1
  6

172
1
173
1
174
1
140
1.0
141
1.0
175
1
  7

176
1
177
1
178
1
143
1.0
179
1
  8

270
1
271
1
272
1
145
1.0
146
1.0
273
1
  9

274
1
275
1
276
1
 42
1.0
 72
1
  3

 73
1
 74
1
 75
1
 94
63
  0
MLINESTYLE
  5
22
102
{ACAD_REACTORS
330
10
102
}
330
10
100
AcDbMlineStyle
  2
Standard
 70
0
  3

 62
256
 51
90.0
 52
90.0
 71
2
 49
0.5
 62
256
  6
BYLAYER
 49
-0.5
 62
256
  6
BYLAYER
  0
MLEADERSTYLE
  5
2C
102
{ACAD_REACTORS
330
F
102
}
330
F
100
AcDbMLeaderStyle
179
2
170
2
171
1
172
0
 90
2
 40
0.0
 41
0.0
173
1
 91
-1056964608
 92
-2
290
1
 42
2.0
291
1
 43
8.0
  3
Standard
 44
4.0
300

342
29
174
1
175
1
176
0
178
1
 93
-1056964608
 45
4.0
292
0
297
0
 46
4.0
 94
-1056964608
 47
1.0
 49
1.0
140
1.0
294
1
141
0.0
177
0
142
1.0
295
0
296
0
143
3.75
271
0
272
9
273
9
  0
DICTIONARY
  5
2D
330
A
100
AcDbDictionary
280
1
281
1
  3
CREATED_BY_EZDXF
350
2E
  3
WRITTEN_BY_EZDXF
350
68
  0
DICTIONARYVAR
  5
2E
330
2D
100
DictionaryVariables
280
0
  1
1.4.2 @ 2025-09-10T18:52:01.097764+00:00
  0
DICTIONARYVAR
  5
68
330
2D
100
DictionaryVariables
280
0
  1
1.4.2 @ 2025-09-10T18:52:01.126755+00:00
  0
ENDSEC
  0
EOF
