<?xml version="1.0" standalone="no"?>
<!DOCTYPE svg PUBLIC "-//W3C//DTD SVG 20010904//EN"
 "http://www.w3.org/TR/2001/REC-SVG-20010904/DTD/svg10.dtd">
<svg version="1.0" xmlns="http://www.w3.org/2000/svg"
 width="667.000000pt" height="1132.000000pt" viewBox="0 0 667.000000 1132.000000"
 preserveAspectRatio="xMidYMid meet">
<metadata>
Created by potrace 1.16, written by Peter Selinger 2001-2019
</metadata>
<g transform="translate(0.000000,1132.000000) scale(0.100000,-0.100000)"
fill="#000000" stroke="none">
<path d="M3195 9960 c-22 -4 -76 -17 -119 -28 -70 -19 -86 -27 -135 -75 -41
-40 -89 -70 -181 -115 -92 -45 -147 -81 -210 -134 -47 -40 -89 -78 -93 -85 -4
-7 -33 -41 -63 -75 -30 -35 -71 -93 -89 -129 -19 -36 -46 -80 -60 -98 -24 -27
-48 -81 -97 -216 -6 -16 -21 -46 -33 -65 -12 -19 -28 -62 -35 -95 -7 -33 -28
-114 -47 -180 -19 -66 -39 -160 -45 -210 -16 -139 5 -449 35 -530 8 -22 21
-61 27 -87 20 -77 196 -339 260 -386 19 -15 49 -38 67 -53 28 -24 105 -66 365
-196 62 -31 222 -94 374 -147 33 -12 71 -28 85 -37 13 -8 64 -30 113 -49 l88
-34 -6 -34 c-3 -19 -31 -78 -62 -131 -31 -53 -78 -132 -104 -176 -26 -44 -55
-96 -65 -115 -10 -19 -37 -65 -61 -101 -24 -36 -64 -110 -89 -165 -56 -118
-46 -100 -121 -210 -33 -49 -66 -104 -74 -122 -7 -18 -37 -62 -67 -99 -29 -36
-65 -86 -80 -112 -14 -25 -37 -64 -50 -86 -124 -206 -168 -285 -249 -445 -52
-102 -103 -201 -114 -220 -30 -55 -80 -171 -80 -187 0 -7 -18 -67 -41 -131
-46 -135 -61 -204 -91 -432 -25 -192 -26 -422 -2 -535 8 -38 21 -105 28 -147
15 -82 61 -195 109 -266 16 -24 46 -81 68 -128 33 -72 52 -97 131 -174 68 -66
111 -99 158 -121 36 -17 81 -39 100 -49 19 -10 91 -32 160 -49 69 -18 141 -36
160 -42 19 -5 96 -14 171 -20 135 -12 136 -11 200 14 59 24 166 47 337 76 62
10 139 42 238 101 31 18 82 36 128 45 100 19 126 34 199 111 40 42 81 74 121
93 69 33 106 67 292 266 125 135 165 188 213 285 13 25 31 54 42 66 11 11 26
47 34 79 9 32 22 72 30 89 47 104 95 279 95 348 0 23 4 67 10 97 5 31 14 138
20 238 9 165 9 186 -7 220 -9 21 -20 78 -23 128 -4 50 -21 142 -38 205 -17 63
-40 159 -53 213 -12 56 -32 113 -46 133 -13 20 -41 86 -62 147 -106 307 -119
337 -159 381 -22 24 -48 59 -57 77 -28 55 -93 137 -210 263 -212 230 -307 318
-535 495 -52 41 -113 91 -135 111 -49 45 -79 63 -127 79 -21 7 -38 16 -38 21
0 5 23 51 51 102 29 51 64 116 79 143 16 28 44 93 64 146 46 125 96 234 129
283 15 21 27 46 27 55 0 9 9 34 20 55 11 22 27 71 36 110 9 39 25 107 36 151
38 154 64 448 60 675 -1 41 5 116 14 166 22 128 15 317 -15 404 -44 131 -71
226 -78 274 -5 38 -21 71 -65 137 -33 49 -66 93 -74 100 -14 11 -83 29 -199
50 -33 6 -84 25 -114 42 -30 16 -81 36 -115 43 -66 14 -196 16 -261 4z m242
-140 c25 -6 69 -21 97 -34 28 -13 71 -27 96 -31 58 -8 190 -55 190 -67 0 -5
21 -31 46 -58 40 -43 47 -58 59 -122 16 -79 46 -194 71 -271 13 -38 15 -73 10
-170 -3 -67 -8 -171 -10 -232 -3 -60 -9 -146 -15 -190 -5 -44 -12 -154 -16
-245 -3 -105 -11 -183 -20 -215 -9 -27 -20 -95 -26 -150 -10 -98 -12 -104
-114 -320 -58 -121 -105 -229 -105 -240 0 -30 -54 -137 -80 -160 -12 -11 -43
-63 -67 -115 -45 -97 -76 -140 -100 -140 -7 0 -46 15 -86 34 -40 18 -90 39
-112 46 -22 7 -44 16 -50 20 -17 13 -135 61 -225 90 -126 42 -197 74 -301 135
-51 30 -104 55 -117 55 -37 0 -89 36 -173 120 -58 58 -91 103 -143 195 -38 66
-79 149 -93 185 -32 85 -48 230 -46 413 2 128 5 159 27 225 14 42 32 115 41
162 18 99 113 310 201 450 129 202 156 240 194 271 24 19 58 49 75 67 36 37
55 40 73 12 23 -38 92 -23 92 20 0 37 18 53 103 97 62 31 77 34 116 28 25 -3
87 -10 136 -13 54 -5 103 -15 122 -25 53 -28 59 -24 60 44 l2 60 -64 29 c-43
19 -65 35 -65 46 0 15 9 16 86 10 47 -3 106 -11 131 -16z m171 -2939 c20 -11
51 -33 67 -51 17 -18 46 -40 66 -50 20 -11 43 -30 52 -43 9 -14 51 -49 94 -80
70 -50 229 -193 308 -277 17 -18 45 -46 63 -64 91 -87 162 -162 162 -173 0 -7
21 -38 48 -70 119 -146 263 -404 275 -497 4 -27 20 -76 36 -110 45 -92 62
-136 71 -186 5 -25 23 -97 39 -160 16 -63 33 -151 36 -195 4 -44 16 -110 27
-148 22 -73 21 -114 -2 -352 -7 -66 -12 -149 -11 -184 0 -36 -6 -88 -15 -115
-8 -28 -26 -87 -39 -131 -21 -73 -59 -162 -102 -240 -74 -135 -99 -175 -132
-205 -21 -19 -66 -69 -99 -110 -86 -108 -175 -190 -272 -255 -47 -32 -103 -75
-125 -96 -38 -36 -133 -79 -176 -79 -22 0 -174 -78 -233 -119 -34 -25 -55 -30
-126 -36 -90 -7 -99 -9 -250 -50 -126 -35 -289 -45 -351 -21 -24 9 -96 25
-159 36 -95 16 -130 28 -205 66 -102 53 -204 122 -233 159 -10 13 -36 59 -56
102 -20 43 -46 94 -57 113 -63 111 -101 208 -123 320 -33 171 -38 217 -32 340
9 219 48 490 83 585 40 111 50 137 63 180 24 77 104 251 165 361 34 61 67 126
74 145 6 19 23 51 36 71 14 21 25 40 25 43 0 2 16 29 35 59 19 30 35 58 35 62
0 10 124 196 173 258 21 27 57 90 82 140 24 50 59 108 79 128 19 21 65 97 100
170 36 73 83 162 106 197 22 34 40 65 40 67 0 2 20 35 45 73 24 39 60 102 80
141 19 38 50 94 69 123 18 28 46 77 61 107 39 77 45 81 103 51z"/>
</g>
</svg>
