<?xml version="1.0" standalone="no"?>
<!DOCTYPE svg PUBLIC "-//W3C//DTD SVG 20010904//EN"
 "http://www.w3.org/TR/2001/REC-SVG-20010904/DTD/svg10.dtd">
<svg version="1.0" xmlns="http://www.w3.org/2000/svg"
 width="1197.000000pt" height="1040.000000pt" viewBox="0 0 1197.000000 1040.000000"
 preserveAspectRatio="xMidYMid meet">
<metadata>
Created by potrace 1.16, written by Peter Selinger 2001-2019
</metadata>
<g transform="translate(0.000000,1040.000000) scale(0.100000,-0.100000)"
fill="#000000" stroke="none">
<path d="M8375 7799 c-22 -5 -61 -12 -87 -16 -42 -5 -48 -9 -48 -28 0 -23 -3
-24 -122 -29 -236 -11 -384 -23 -453 -36 -106 -19 -458 -9 -504 15 -27 14 -45
16 -100 10 -75 -10 -303 -12 -556 -6 -93 2 -253 0 -355 -5 -355 -16 -468 -10
-665 36 -51 12 -155 25 -242 30 -84 5 -161 14 -172 19 -28 16 -314 14 -329 -1
-21 -21 -14 -78 14 -111 23 -28 25 -37 20 -82 -4 -27 -11 -97 -16 -155 -5 -58
-13 -123 -19 -145 -5 -22 -15 -136 -21 -255 -6 -118 -12 -251 -15 -295 -2 -44
-9 -206 -14 -360 -6 -154 -15 -329 -20 -390 -6 -60 -15 -198 -21 -305 -13
-230 -45 -397 -121 -620 -11 -33 -23 -108 -28 -190 -5 -74 -16 -155 -25 -180
-8 -25 -17 -81 -20 -125 -3 -44 -13 -102 -22 -130 -9 -27 -20 -75 -24 -105
-21 -146 -22 -167 -10 -190 12 -22 15 -23 94 -14 44 5 151 7 236 4 154 -5 354
-4 585 2 191 5 613 -11 700 -27 196 -36 276 -45 391 -45 112 0 129 -2 181 -26
52 -24 76 -27 223 -34 91 -5 197 -14 235 -20 54 -10 111 -10 245 -1 96 6 211
11 255 11 44 0 134 5 201 12 92 9 202 9 460 1 280 -9 343 -9 360 2 20 13 22
26 30 222 5 114 8 250 6 300 -2 59 2 101 9 115 15 28 15 571 0 663 -6 33 -15
92 -22 130 -8 53 -8 119 1 271 10 178 10 211 -5 300 -12 68 -16 128 -12 194 3
52 -1 340 -9 638 -8 299 -11 548 -8 553 3 5 2 87 -2 182 -7 170 -7 172 -35
199 -30 30 -66 34 -144 17z m-3150 -149 c61 -7 162 -24 225 -38 108 -24 132
-25 375 -25 143 0 384 0 535 -1 230 -1 454 1 665 6 71 2 259 -24 289 -39 21
-11 42 -13 75 -8 89 14 298 26 437 24 128 -1 150 2 230 26 49 15 105 31 124
35 19 5 54 13 76 19 23 6 68 11 101 11 54 0 62 -2 68 -22 4 -13 9 -135 10
-273 10 -985 16 -1309 26 -1370 8 -51 7 -113 -2 -230 -15 -209 -15 -283 0
-380 7 -44 16 -105 21 -135 12 -79 12 -412 0 -548 -6 -65 -14 -214 -18 -332
l-7 -214 -35 -10 c-52 -14 -131 -12 -265 7 -146 21 -230 21 -360 2 -55 -8
-152 -14 -215 -15 -63 0 -184 -5 -267 -12 -131 -10 -174 -9 -305 5 -84 9 -191
19 -238 21 -47 3 -110 12 -140 20 -184 52 -177 51 -225 38 -59 -16 -82 -15
-152 4 -32 9 -96 19 -143 24 -47 4 -112 12 -145 19 -33 6 -166 15 -295 21
-129 5 -256 15 -282 22 -40 9 -65 8 -147 -7 -86 -16 -125 -17 -283 -10 -214 9
-315 9 -380 0 l-48 -7 0 33 c0 19 11 82 24 140 13 58 27 132 31 165 4 32 12
70 17 84 5 13 16 81 24 150 15 125 37 227 75 350 11 36 24 79 29 96 6 16 17
96 25 178 8 81 17 152 21 157 9 15 25 353 29 637 2 134 9 277 15 318 5 42 10
130 10 197 1 89 4 127 15 140 11 15 12 48 8 163 -5 116 -3 153 10 196 9 29 21
103 26 163 6 61 16 136 23 168 l12 59 95 -5 c53 -2 146 -10 206 -17z"/>
</g>
</svg>
